
<svg width="155px" height="27px" viewBox="0 0 155 27" version="1.1" xmlns="http://www.w3.org/2000/svg" xmlns:xlink="http://www.w3.org/1999/xlink">
    <!-- Generator: Sketch 46.2 (44496) - http://www.bohemiancoding.com/sketch -->
    <desc>Created with Sketch.</desc>
    <defs></defs>
    <g id="Page-1" stroke="none" stroke-width="1" fill="none" fill-rule="evenodd">
        <g id="Mobile-Copy-2">
            <g id="logo-2">
                <path d="M47.4283406,6.79063719 L47.6502909,6.79063719 C47.915075,6.79063719 48.1603861,6.91157226 48.3862313,7.15344603 C48.6120766,7.3953198 48.7249976,7.67230013 48.7249976,7.98439532 C48.7249976,8.29649051 48.6081828,8.563718 48.3745498,8.78608583 C48.1409167,9.00845365 47.8488797,9.11963589 47.4984301,9.11963589 L47.3115246,9.11963589 C47.0389527,9.11963589 46.7955886,9.00455252 46.5814249,8.77438231 C46.3672613,8.54421211 46.2601811,8.27308349 46.2601811,7.9609883 C46.2601811,7.64889311 46.3711551,7.37581391 46.5931065,7.14174252 C46.8150579,6.90767113 47.0934665,6.79063719 47.4283406,6.79063719 Z M47.8605596,10.9453836 L44.9635241,22.0871261 C44.8700708,22.4382332 44.6325474,22.6137841 44.2509468,22.6137841 L43.5500511,22.6137841 C43.1061483,22.6137841 42.9309261,22.430431 43.0243793,22.0637191 L45.944778,10.9219766 C46.0226557,10.602079 46.2446038,10.4421326 46.6106289,10.4421326 L47.4049774,10.4421326 C47.6152471,10.4421326 47.7554249,10.4772428 47.8255148,10.5474642 C47.8956047,10.6176857 47.9072862,10.7503241 47.8605596,10.9453836 Z M60.1529342,6.91937581 L55.1765748,6.91937581 L53.4827436,13.6488947 L57.8282969,13.6488947 C57.9762645,13.6488947 58.077504,13.7054611 58.1320183,13.8185956 C58.1865327,13.9317301 58.1982142,14.0585169 58.1670631,14.1989597 L58.0035208,14.7958388 C57.9256431,15.1313411 57.6842259,15.2990897 57.2792619,15.2990897 L53.0505246,15.2990897 L51.3216485,22.0871261 C51.2281953,22.4382332 50.9906719,22.6137841 50.6090713,22.6137841 L49.9198572,22.6137841 C49.7251629,22.6137841 49.5830383,22.5416132 49.4934789,22.3972692 C49.4039196,22.2529252 49.3863974,22.0793248 49.4409118,21.8764629 L53.2374301,6.91937581 L52.3029025,6.91937581 C52.0692694,6.91937581 51.923251,6.88231507 51.8648427,6.80819246 C51.8064344,6.73406985 51.8122752,6.56046951 51.8823651,6.28738622 L52.0225442,5.7373212 C52.0848464,5.53445932 52.1510414,5.40377142 52.2211313,5.34525358 C52.2912213,5.28673573 52.4391866,5.25747724 52.6650319,5.25747724 L60.4683373,5.25747724 C60.6863948,5.25747724 60.8324133,5.29843912 60.9063971,5.38036411 C60.9803809,5.4622891 60.9862217,5.62028492 60.9239195,5.85435631 L60.7486956,6.46293888 C60.6708179,6.76723169 60.4722328,6.91937581 60.1529342,6.91937581 Z M64.5952772,5.78413524 C64.6887304,5.43302815 64.9262538,5.25747724 65.3078545,5.25747724 L66.0087501,5.25747724 C66.1956566,5.25747724 66.3338874,5.32964817 66.4234468,5.4739922 C66.5130061,5.61833622 66.5305283,5.7958377 66.4760139,6.00650195 L62.3874557,22.0871261 C62.2940025,22.4382332 62.0564791,22.6137841 61.6748785,22.6137841 L60.9739828,22.6137841 C60.7870763,22.6137841 60.6488455,22.5416132 60.5592861,22.3972692 C60.4697268,22.2529252 60.4483108,22.0793248 60.4950374,21.8764629 L64.5952772,5.78413524 Z M78.4413039,9.93888166 C78.4413039,10.336803 78.30502,10.574772 78.0324481,10.6527958 L77.1913733,10.9219766 C77.066769,10.9687909 76.9402196,10.9473346 76.8117215,10.8576073 C76.6832233,10.7678799 76.6189751,10.6215875 76.6189751,10.4187256 C76.6189751,8.30428072 76.2763185,7.08712774 75.5909948,6.76723017 C75.2716963,6.61118257 74.9212519,6.61898484 74.5396513,6.79063719 C74.0412341,7.04811572 73.5622935,7.58452128 73.1028151,8.39986996 C72.6433367,9.21521864 72.3980257,10.1417373 72.3668746,11.1794538 C72.3512991,11.59298 72.421388,11.9167739 72.5771433,12.1508453 C72.7328987,12.3849166 73.0366171,12.5721709 73.4883077,12.7126138 L74.4695617,13.0520156 C75.3963062,13.3719132 76.00569,13.7425207 76.2977313,14.1638492 C76.5897726,14.5851777 76.7280034,15.2054575 76.7124279,16.0247074 C76.6968524,17.7490333 76.1361414,19.3387443 75.0302783,20.7938882 C73.9244151,22.249032 72.6589216,22.9843952 71.2337599,23 C69.3569076,23 68.4184956,21.4668554 68.4184956,18.4005202 C68.3873445,17.760725 68.5041593,17.3979198 68.7689434,17.3120936 L69.6567446,17.0312094 C69.8202878,16.9687903 69.9526779,16.9804937 70.0539188,17.0663199 C70.1551598,17.1521461 70.2057796,17.2925868 70.2057796,17.4876463 C70.190204,19.8829769 70.5094978,21.2327683 71.1636704,21.5370611 C71.4050912,21.5838754 71.7165973,21.5292596 72.0981979,21.373212 C72.7523705,21.0845239 73.3306037,20.491552 73.8329148,19.5942783 C74.3352259,18.6970046 74.6311566,17.8212006 74.720716,16.9668401 C74.8102753,16.1124795 74.7577087,15.548766 74.5630145,15.2756827 C74.3683202,15.0025994 73.8660167,14.7412236 73.0560887,14.4915475 L72.0514716,14.1755527 C71.6075687,14.0351098 71.22208,13.7795857 70.8949937,13.4089727 C70.5679074,13.0383597 70.4043667,12.5760756 70.4043667,12.0221066 C70.4043667,11.0312044 70.6146333,10.0032563 71.0351728,8.93823147 C71.4557123,7.87320664 72.0806714,6.95058908 72.9100688,6.17035111 C73.7394662,5.39011313 74.6525684,5 75.6494028,5 C76.6462372,5 77.3607543,5.42327275 77.7929754,6.26983095 C78.2251966,7.11638915 78.4413039,8.33939382 78.4413039,9.93888166 Z M83.8765824,5.78413524 C83.9700357,5.43302815 84.207559,5.25747724 84.5891597,5.25747724 L85.2900554,5.25747724 C85.4769619,5.25747724 85.6151927,5.32964817 85.704752,5.4739922 C85.7943114,5.61833622 85.8157274,5.7958377 85.7690008,6.00650195 L84.1102143,12.4551365 L89.8108326,12.4551365 L91.5046639,5.78413524 C91.5981171,5.43302815 91.8395343,5.25747724 92.2289227,5.25747724 L92.9181368,5.25747724 C93.1128311,5.25747724 93.2530088,5.32964817 93.3386743,5.4739922 C93.4243397,5.61833622 93.4438088,5.7958377 93.3970822,6.00650195 L89.308524,22.0871261 C89.207283,22.4382332 88.9658658,22.6137841 88.5842652,22.6137841 L87.8950511,22.6137841 C87.7003568,22.6137841 87.5601791,22.5416132 87.4745136,22.3972692 C87.3888482,22.2529252 87.3693791,22.0793248 87.4161057,21.8764629 L89.4019768,14.1053316 L83.7013585,14.1053316 L81.668761,22.0871261 C81.5753078,22.4382332 81.3377844,22.6137841 80.9561837,22.6137841 L80.2669696,22.6137841 C80.0722754,22.6137841 79.9301508,22.5416132 79.8405914,22.3972692 C79.7510321,22.2529252 79.7335099,22.0793248 79.7880242,21.8764629 L83.8765824,5.78413524 Z M99.5566196,14.4681404 L103.913854,14.4681404 C104.163063,14.4681404 104.233152,14.6436914 104.124123,14.9947984 C103.212954,17.8972837 102.311534,19.8927124 101.419834,20.9811443 C100.528134,22.0695763 99.5391026,22.6586471 98.4527089,22.7483745 C97.3663151,22.8381019 96.4843635,22.5513687 95.8068277,21.8881664 C95.1292918,21.2249642 94.7593783,19.9941572 94.6970761,18.1957087 C94.634774,16.3972602 94.8859258,14.4662002 95.450539,12.4024707 C96.0151523,10.3387413 96.8406434,8.66515596 97.9270371,7.3816645 C99.0134309,6.09817304 100.055029,5.36476034 101.051864,5.18140442 C102.048698,4.9980485 102.821623,5.09752735 103.37066,5.47984395 C103.919698,5.86216056 104.342178,6.4960944 104.638113,7.3816645 C104.934049,8.2672346 105.082014,8.93432806 105.082014,9.38296489 C105.082014,9.83160172 104.922367,10.1183349 104.603069,10.243173 L103.761994,10.4889467 C103.606238,10.5201562 103.475795,10.4908977 103.37066,10.4011704 C103.265525,10.311443 103.201277,10.0188581 103.177914,9.52340702 C103.154551,9.02795591 103.031895,8.52080884 102.809944,8.00195059 C102.587992,7.48309233 102.294008,7.17685352 101.927983,7.08322497 C101.17257,6.88816547 100.352919,7.3699552 99.4690076,8.52860858 C98.5850959,9.68726197 97.9036763,11.142384 97.4247285,12.8940182 C96.9457808,14.6456525 96.6868413,16.1202801 96.6479025,17.3179454 C96.6089636,18.5156107 96.71215,19.4421294 96.9574647,20.0975293 C97.2027795,20.7529292 97.6057905,21.0611185 98.1665098,21.0221066 C98.7272292,20.9830947 99.2976747,20.6105367 99.8778635,19.9044213 C100.458052,19.198306 101.028498,17.9284877 101.589217,16.0949285 L99.2879429,16.0949285 C98.9842199,16.0949285 98.8907681,15.872564 99.0075846,15.4278283 L99.1944902,14.7490247 C99.2567923,14.5617676 99.3775009,14.4681404 99.5566196,14.4681404 Z M109.793034,6.91937581 L108.9578,6.91937581 C108.79815,6.91937581 108.669654,6.85110601 108.572307,6.71456437 C108.47496,6.57802272 108.453544,6.42002691 108.508058,6.24057217 L108.624874,5.7373212 C108.656025,5.61248312 108.731955,5.50130088 108.852665,5.40377113 C108.973376,5.30624138 109.080456,5.25747724 109.173909,5.25747724 L113.239104,5.25747724 C114.337179,5.25747724 115.217184,5.53445757 115.879144,6.08842653 C116.541105,6.64239549 116.87208,7.45383081 116.87208,8.52275683 C116.87208,9.59168285 116.673495,10.5981747 116.276319,11.5422627 C115.590995,13.1573553 114.485148,14.2106607 112.958746,14.7022107 L114.056816,21.7945384 C114.134693,22.3407049 113.959471,22.6137841 113.531144,22.6137841 L112.713432,22.6137841 C112.503163,22.6137841 112.351303,22.5494155 112.25785,22.4206762 C112.164397,22.2919369 112.102096,22.0754241 112.070945,21.7711313 L111.15978,14.9947984 L109.676218,15.0182055 L107.877252,22.0871261 C107.783799,22.4382332 107.546275,22.6137841 107.164675,22.6137841 L106.475461,22.6137841 C106.280766,22.6137841 106.138642,22.5416132 106.049082,22.3972692 C105.959523,22.2529252 105.942001,22.0793248 105.996515,21.8764629 L109.793034,6.91937581 Z M111.732178,6.94278283 L110.108437,13.3914174 L111.591999,13.3094928 C112.674499,13.2626786 113.498043,12.8042956 114.062656,11.9343303 C114.62727,11.064365 114.909572,9.89597612 114.909572,8.42912874 C114.909572,8.00780023 114.775235,7.66645124 114.506557,7.40507152 C114.237879,7.1436918 113.899116,7.00130051 113.490258,6.97789337 C113.0814,6.95448623 112.49538,6.94278283 111.732178,6.94278283 Z M118.592611,17.4174252 C118.592611,15.9583802 118.808719,14.5071594 119.24094,13.0637191 C119.673161,11.6202789 120.196881,10.3270538 120.812114,9.1840052 C121.427348,8.04095657 122.188591,7.06957487 123.095866,6.26983095 C124.003141,5.47008703 124.9435,5.07022107 125.916971,5.07022107 C126.586719,5.07022107 127.27982,5.29258555 127.996295,5.7373212 C128.494712,6.04161401 128.839316,6.52145316 129.030116,7.17685306 C129.220917,7.83225295 129.316315,8.79973352 129.316315,10.0793238 C129.316315,11.3589141 129.03596,13.0598073 128.475241,15.1820546 C127.969036,17.1482543 127.221421,18.8569498 126.232374,20.3081925 C125.702806,21.0650233 125.0759,21.6540941 124.351638,22.0754226 C123.627375,22.4967511 122.926486,22.7152145 122.248951,22.7308192 C121.571415,22.746424 120.921146,22.5864776 120.298124,22.2509753 C119.16111,21.6657968 118.592611,20.0546296 118.592611,17.4174252 Z M121.256015,13.3914174 C120.804324,14.8738696 120.574589,16.2217104 120.566801,17.4349805 C120.559013,18.6482505 120.699191,19.5630658 120.987338,20.1794538 C121.275486,20.7958418 121.649293,21.1040312 122.108771,21.1040312 C122.957638,21.1040312 123.701359,20.6866102 124.339956,19.8517555 C125.118733,18.7672247 125.866348,17.0585292 126.582822,14.7256177 C127.236995,12.4863347 127.480359,10.6450007 127.312922,9.20156047 C127.145485,7.75812022 126.649022,7.03641092 125.823519,7.03641092 C124.943501,7.03641092 124.160842,7.4811399 123.475518,8.37061118 C122.634439,9.49415386 121.894612,11.1677392 121.256015,13.3914174 Z M134.915136,22.7776333 C133.832636,22.7620285 133.011039,22.4772459 132.45032,21.923277 C131.336669,20.75292 131.145871,18.7555408 131.877922,15.9310793 L134.459554,5.78413524 C134.560795,5.43302815 134.802212,5.25747724 135.183813,5.25747724 L135.873027,5.25747724 C136.067721,5.25747724 136.207899,5.32964817 136.293564,5.4739922 C136.37923,5.61833622 136.398699,5.7958377 136.351972,6.00650195 L133.653524,16.6918075 C132.890323,19.7113285 133.431564,21.2210663 135.277266,21.2210663 C136.040467,21.2210663 136.721887,20.9011736 137.321545,20.2613784 C137.921203,19.6215833 138.411825,18.5214642 138.793426,16.9609883 L141.643735,5.78413524 C141.737188,5.43302815 141.974712,5.25747724 142.356312,5.25747724 L142.963755,5.25747724 C143.150662,5.25747724 143.284999,5.32964817 143.36677,5.4739922 C143.448542,5.61833622 143.46217,5.7958377 143.407656,6.00650195 L140.615755,17.1248375 C140.101762,19.1846657 139.373616,20.6319854 138.431296,21.4668401 C138.049696,21.8335519 137.564914,22.1436918 136.976938,22.3972692 C136.388961,22.6508465 135.701701,22.7776333 134.915136,22.7776333 Z M147.324327,5.25747724 L151.0858,5.25747724 C152.370782,5.25747724 153.340345,5.53055644 153.994518,6.07672302 C154.64869,6.6228896 154.983559,7.42652265 154.999135,8.48764629 C155.01471,9.54876993 154.820019,10.6391361 154.415055,11.7587776 C154.010091,12.8784191 153.441592,13.7015578 152.709542,14.2282185 C151.977492,14.7548791 151.17147,15.0864753 150.291452,15.2230169 C149.411434,15.3595586 148.558686,15.4356306 147.733183,15.4512354 L146.02767,22.0871261 C145.934217,22.4382332 145.696693,22.6137841 145.315093,22.6137841 L144.625878,22.6137841 C144.431184,22.6137841 144.28906,22.5416132 144.1995,22.3972692 C144.109941,22.2529252 144.092419,22.0793248 144.146933,21.8764629 L147.943451,6.89596879 L147.096536,6.89596879 C146.929099,6.89596879 146.796709,6.82769899 146.699362,6.69115735 C146.602014,6.5546157 146.580598,6.39661988 146.635113,6.21716515 L146.775292,5.7373212 C146.806443,5.61248312 146.878479,5.50130088 146.991401,5.40377113 C147.104324,5.30624138 147.215298,5.25747724 147.324327,5.25747724 Z M149.882596,6.91937581 L148.142039,13.7893368 L149.47374,13.7191157 C150.750934,13.6254872 151.590054,13.2197695 151.991124,12.5019506 C152.392194,11.7841317 152.670603,11.0487684 152.826358,10.2958388 C152.982113,9.54290911 153.05999,8.92067866 153.05999,8.42912874 C153.05999,7.48504079 152.518748,6.98959711 151.436248,6.94278283 C151.249342,6.92717808 150.731463,6.91937581 149.882596,6.91937581 Z" id="iFISHGROUP" fill="#FFFFFF"></path>
                <g id="Jumping_fish_clipart">
                    <path d="M7,24.0305 L7.2405,24 C7.1535,24.005 7.072,24.01 7,24.03 L7,24.0305 Z" id="Shape"></path>
                    <path d="M17.5913732,3.73257729 C19.2044014,3.91350547 21.4568662,3.407213 23,4 C22.2753521,3.12293709 21.459331,1.74362091 20.2110915,1.05835023 C20.1890845,0.954306078 20.0257042,1.0119691 19.9577465,1.05835023 C20.7033451,1.91716711 21.9447183,2.73977049 22.3237676,3.66572162 C20.4540493,3.2112423 18.6596831,3.3839528 17,3.46515459 C17.0950704,3.700403 17.3767606,3.70834211 17.5915493,3.73257729 L17.5913732,3.73257729 Z" id="Shape" fill="#FFFFFF" fill-rule="nonzero"></path>
                    <path d="M16,1 C16.3354798,1.33011364 16.6819444,1.64375 17,2 C16.834596,1.44526515 16.3787879,1.08399621 16,1 L16,1 Z" id="Shape" fill="#FFFFFF" fill-rule="nonzero"></path>
                    <path d="M23,1 C23.1742647,1.29116379 23.5870098,1.73448276 24,2 C23.8026961,1.58678161 23.4791667,1.24791667 23,1 Z" id="Shape" fill="#FFFFFF" fill-rule="nonzero"></path>
                    <path d="M14.0421036,1.26315789 C14.4812873,1.33092105 14.6408628,1.81359649 15,2 C14.87775,1.56370614 14.4451444,1.14155702 14.006626,1 C13.9770613,1.14879386 14.056886,1.13640351 14.0421036,1.26315789 Z" id="Shape" fill="#FFFFFF" fill-rule="nonzero"></path>
                    <path d="M13,1.09591873 C13.3957562,1.16869928 13.6366512,1.39500009 14,1.5 C13.8294753,1.24346962 13.2530864,0.805408785 13.0001543,1.09591873 L13,1.09591873 Z" id="Shape" fill="#FFFFFF" fill-rule="nonzero"></path>
                    <path d="M8.52222222,3.36241412 C9.15449074,3.31863144 9.87976852,3.4886447 10,3.02125039 C8.71439815,2.90696055 7.41615741,3.28067698 6.5,3.49887961 C5.191875,3.81047581 3.64037037,4.17665821 3,5 C4.11384259,4.69622213 5.27548611,4.22271531 6.11111111,3.90827608 C6.84400463,3.63250207 7.69178241,3.4199855 8.52222222,3.36241412 L8.52222222,3.36241412 Z" id="Shape" fill="#FFFFFF" fill-rule="nonzero"></path>
                    <path d="M16,3.24043495 C15.1690909,2.61930126 13.6014773,3.3206575 13,3.99695405 C13.2445455,4.03351914 13.2436364,3.72949303 13.4363636,3.69434641 C14.1386364,3.93517165 15.1670455,3.07069098 16,3.24043495 L16,3.24043495 Z" id="Shape" fill="#FFFFFF" fill-rule="nonzero"></path>
                    <path d="M17.319175,3 C16.8432537,3.3473379 16.8963711,5.39837488 17.5,4.93114506 C17.2300183,4.34938761 17.3392667,3.63379108 17.319175,3 L17.319175,3 Z" id="Shape" fill="#FFFFFF" fill-rule="nonzero"></path>
                    <path d="M19.372867,3 C19.0791671,3.08496994 18.969329,3.59130105 19.0072118,4.43526929 C19.2922029,4.73652633 19.3932235,5.19127746 19.7909919,4.91369239 C19.8028575,4.18334963 19.8953871,3.63789746 20,3.11960577 C19.704885,3.24145416 19.6618859,3.94015122 19.372867,4.07645197 C19.3282351,3.59952394 19.451245,3.19261513 19.372867,3 L19.372867,3 Z" id="Shape" fill="#FFFFFF" fill-rule="nonzero"></path>
                    <path d="M17.1112337,5 C16.922844,5.11625695 16.9262457,5.5456326 17.5,5.49602964 C17.3574524,5.33800631 17.3866098,5.08826916 17.1112337,5 Z" id="Shape" fill="#FFFFFF" fill-rule="nonzero"></path>
                    <path d="M20.1743406,5.99672778 C20.4614101,5.98400912 20.8478646,6.03877724 21,5.9344323 C20.8279876,5.53755814 20.6729854,5.41465433 20.9084512,5 C20.2528929,5.04360684 19.708187,5.57402695 20.1745317,5.99672778 L20.1743406,5.99672778 Z" id="Shape" fill="#FFFFFF" fill-rule="nonzero"></path>
                    <path d="M17,5.28388502 C16.7454167,5.30111967 16.886875,4.99714779 16.65,5.00002023 C16.4933333,5.00804617 16.6082292,5.23648974 16.5,5.28388502 C16.32375,5.25118988 16.371875,5.03634817 16.15,5.04057235 C16.1207292,5.12497143 16.0448958,5.17160636 16,5.24333291 C16.04375,5.51030099 16.9354167,5.63635047 17,5.28388502 L17,5.28388502 Z" id="Shape" fill="#FFFFFF" fill-rule="nonzero"></path>
                    <path d="M14.1857076,5 C14.0153376,5.12556818 13.8329231,5.4499053 14.2789546,5.5 C14.4967252,5.41837121 14.5417946,5.08172348 14.4654486,5 L14.1857076,5 Z" id="Shape" fill="#FFFFFF" fill-rule="nonzero"></path>
                    <path d="M14.0646847,5.00378224 C14.103386,5.21793519 13.7691798,5.46159084 14.3251051,5.5 C14.3842422,5.34787427 14.5142716,5.22692119 14.4987187,5.04195284 C14.3974441,5.00998496 14.2672339,4.99161536 14.0646847,5.00378224 L14.0646847,5.00378224 Z" id="Shape" fill="#FFFFFF" fill-rule="nonzero"></path>
                    <path d="M3.64293905,6.44230769 C4.77078272,6.22512019 5.90459964,5.91550481 6.88735624,5.69230769 C7.63904244,5.52163462 8.56631071,5.52223558 9,5 L8.62274219,5 C6.03695426,5.81129808 2.81108557,6.13317308 0.473973417,7.13461538 C0.352150581,7.38870192 -0.225997018,7.59783654 0.0967156037,8 C0.879368376,7.24711538 2.0947673,6.74050481 3.64293905,6.44230769 L3.64293905,6.44230769 Z" id="Shape" fill="#FFFFFF" fill-rule="nonzero"></path>
                    <path d="M13.8028809,5 L13.6639655,5 C13.4902248,5.14319142 13.7433595,5.57507085 13.5250501,5.7159571 C13.3542999,5.60883473 13.2328454,5.43242182 13.2009141,5.13017402 C12.6073401,5.70144812 13.467844,6.28546843 13.9881015,5.84613112 C14.0672061,5.59920728 13.7230046,5.45764303 13.8028809,5 Z" id="Shape" fill="#FFFFFF" fill-rule="nonzero"></path>
                    <path d="M20.4024698,5.5 C20.6592686,5.32928635 20.3664349,4.80442019 20.0166687,5.07713133 C19.9389726,5.36932183 20.1439295,5.45389557 20.4024698,5.5 Z" id="Shape" fill="#FFFFFF" fill-rule="nonzero"></path>
                    <path d="M10.5,5.49999994 C10.3865302,5.33293265 10.3846747,5.10320512 10.1574496,5 C9.88055463,5.16338139 9.95334659,5.5001602 10.5,5.49999994 Z" id="Shape" fill="#FFFFFF" fill-rule="nonzero"></path>
                    <path d="M10.1733372,5 C9.82898025,5.15154651 10.0286529,5.60866635 10.5,5.47621817 C10.4797197,5.26357353 10.4221454,5.073665 10.1733372,5 Z" id="Shape" fill="#FFFFFF" fill-rule="nonzero"></path>
                    <path d="M9.00367997,6 C8.96071366,6.86239769 9.29406574,7.11833934 10,6.95234101 C9.78745173,6.5079152 9.54210792,6.09832039 9.00367997,6 Z" id="Shape" fill="#FFFFFF" fill-rule="nonzero"></path>
                    <path d="M20,6.65413408 C20.1689224,6.75350176 20.2386778,7.10359189 20.5,6.97000487 L20.5,6.02239249 C20.2162936,5.9342119 20.031494,6.09872793 20.0002603,6.65413408 L20,6.65413408 Z" id="Shape" fill="#FFFFFF" fill-rule="nonzero"></path>
                    <path d="M22.9962666,6.96667853 C22.5454159,7.02697845 22.5211705,7.53739598 22.026447,7.55140506 C21.8780877,7.3848189 22.2787156,6.98114442 21.9571742,6.8204969 C21.5983987,6.95343082 21.766674,7.6426163 21.3338631,7.69758669 C21.1908436,8.1426793 21.6787841,8.799583 21.1260446,8.79394892 C20.8534272,7.84026605 21.6976898,7.19935096 21.4724088,6.30886119 C20.8616534,6.34662478 20.8527056,7.0195171 20.2947708,7.11286016 C20.2217457,6.743447 20.4526551,6.69471979 20.4333164,6.38195201 C19.8967407,6.32759071 20.1329899,7.08849656 19.6713153,7.11286016 C19.6677074,6.69487206 19.9397475,6.56772449 19.8791338,6.08958874 L19.3249512,6.08958874 C19.1436873,6.26394079 19.1360385,6.62132443 18.8400415,6.67431527 C18.6379957,6.48717233 18.9302405,6.15872047 18.7707686,6.01649793 C18.2825395,6.01299566 18.2593043,6.50011549 18.0089119,6.74740608 C17.7526024,6.70111523 17.7974855,6.33687934 17.8010934,6.01649793 C17.1847096,5.95878664 17.5297749,6.65893574 17.2469108,6.8204969 C17.0692549,6.7157334 16.8791876,6.62376079 16.8312739,6.38195201 C16.9340286,6.31982481 16.9802105,6.19800679 16.9698195,6.01649793 C16.6313929,5.90000944 16.3506937,6.41971559 16.4156369,6.96667853 C16.2740606,6.81059918 16.1415763,6.98723532 16,7.03976935 C16.1044865,7.36806893 16.1536991,7.75453661 16.5541826,7.7706775 C16.8249239,7.69088669 16.7432397,7.23924636 17.1083652,7.25904179 C17.0663685,7.41984159 16.9343172,7.80372064 17.177638,7.84376832 C17.3695815,7.52993463 17.8876845,6.87912182 18.2167304,7.18595098 C18.069237,7.44435746 17.6912671,7.45988926 17.5934193,7.7706775 C17.5753795,8.00898402 17.6755364,8.12242705 17.8705106,8.13613158 C18.0803495,7.91746822 18.4229613,7.45425518 18.8403301,7.69758669 C18.6945685,7.98233632 18.2090815,7.90863642 18.2861475,8.42849484 C18.6912492,8.49107885 18.9651655,7.79930474 19.255967,8.2092224 C19.2526477,8.54665833 18.8371551,8.44935618 18.9097472,8.86703974 C19.1516248,8.92246694 19.4327571,8.64578775 19.6024755,8.86703974 C19.6539971,9.09209854 19.4124082,9.00743501 19.4639298,9.23249381 C19.6376892,9.31715734 19.6958495,9.52379117 19.9486953,9.52485708 C20.2579696,9.29081419 20.4966722,8.98231004 20.9186591,8.86703974 C20.9860558,9.16640753 20.7472089,9.33527777 20.9186591,9.52485708 C21.3770143,9.59277063 21.5076225,8.93038511 21.8190615,9.08631218 C21.7731683,9.28259148 21.5149827,9.47475941 21.6805159,9.67103871 C22.0723403,9.83716804 22.0782573,9.21848474 22.2348428,9.37867545 C22.1058222,10.0223314 21.6191806,10.2886561 21.4034246,10.8404918 C21.6872988,11.1208255 21.7124102,10.9900234 21.9576072,10.7674009 C22.4172612,10.3501742 22.1531586,10.3255061 22.4425169,9.67103871 C22.6175751,9.27497785 22.847763,9.28045966 22.8581539,9.01322137 C22.869555,8.72238083 22.650624,8.50143339 22.6504797,8.28231321 C22.6504797,7.81072518 23.0386962,7.30731219 22.9968438,6.96667853 L22.9962666,6.96667853 Z M19.8097167,8.28216094 C19.7983155,7.97776815 19.7857598,7.67215717 19.9482623,7.55125278 C20.1488649,7.6703299 20.1863877,8.35631766 19.8097167,8.28216094 Z M20.6409906,8.2092224 C20.3263765,8.17633153 20.6261258,7.70535259 20.6409906,7.55140506 L20.9180819,7.55140506 C20.856025,7.80280701 20.7492294,8.00700447 20.6409906,8.2092224 Z M22.0957199,8.50158566 C21.7144307,8.37763582 22.0260141,7.90163188 22.1648484,7.69758669 C22.2766951,7.67702989 22.2840554,7.76671842 22.3726668,7.7706775 C22.3798828,8.11892478 22.1417574,8.20907012 22.0955755,8.50158566 L22.0957199,8.50158566 Z" id="Shape" fill="#FFFFFF" fill-rule="nonzero"></path>
                    <path d="M9,6 C9.06800595,6.53094969 9.16577381,7.00178064 9.5,6.99999494 C9.47514881,6.38333139 9.30848214,6.04999975 9,6 Z" id="Shape" fill="#FFFFFF" fill-rule="nonzero"></path>
                    <path d="M24.4954387,6.01944159 C24.1741108,5.92935638 23.9673967,6.13621871 24.0042369,6.9803505 C24.3265881,7.07110301 24.5338138,6.86357337 24.4954387,6.01944159 Z" id="Shape" fill="#FFFFFF" fill-rule="nonzero"></path>
                    <path d="M9.09567751,6.01635941 C9.12864129,6.35430948 8.9481814,6.32127457 9.01494988,6.71798585 C9.16866874,6.77820878 9.21777805,7.0202699 9.41858803,6.99863642 C9.60392521,6.60601796 9.46298822,5.88217336 9.09567751,6.01635941 Z" id="Shape" fill="#FFFFFF" fill-rule="nonzero"></path>
                    <path d="M26.4824657,6.99915754 C26.5920256,5.99375527 26.1586441,6.33846462 26,6 C26.0502568,6.60782083 26.1792494,7.02122227 26.4824657,6.99915754 Z" id="Shape" fill="#FFFFFF" fill-rule="nonzero"></path>
                    <path d="M9.07885929,6 C8.82924569,6.54397341 9.22801329,7.34150862 9.5,6.84228141 C9.49663672,6.28748702 9.35625649,6.00672655 9.07885929,6 Z" id="Shape" fill="#FFFFFF" fill-rule="nonzero"></path>
                    <path d="M26.4822059,6.99586197 C26.5616737,6.43319996 26.3468904,6.47967352 26.3863241,6 L26.0019962,6 C25.9799774,6.70955166 26.140114,7.04150565 26.482406,6.99586197 L26.4822059,6.99586197 Z" id="Shape" fill="#FFFFFF" fill-rule="nonzero"></path>
                    <path d="M9.06551074,8 C8.94962308,8.35807422 8.94374605,9.06339289 9.41813248,8.99541869 C9.62327752,8.629971 9.41960173,8.01290358 9.06551074,8 Z" id="Shape" fill="#FFFFFF" fill-rule="nonzero"></path>
                    <path d="M23.0544042,9 C23.3132788,8.72433747 23.5967747,8.47770068 24,8.37028904 C23.8775973,7.46852327 22.7408001,8.42571673 23.0545449,9 L23.0544042,9 Z" id="Shape" fill="#FFFFFF" fill-rule="nonzero"></path>
                    <path d="M20.2463299,8 C19.9694561,8.16416102 19.9908487,8.57911212 20.0102741,8.9924092 C20.6520508,9.09309739 20.588119,8.16168 20.2463299,8 Z" id="Shape" fill="#FFFFFF" fill-rule="nonzero"></path>
                    <path d="M20.1702726,9 C20.2994158,8.69259259 20.4261548,8.38217593 20.5,8 L20.1702726,8 C20.1530993,8.23402778 19.7958947,8.94976852 20.1702726,9 Z" id="Shape" fill="#FFFFFF" fill-rule="nonzero"></path>
                    <path d="M29.2689815,11.0987338 C29.3842313,11.1663288 29.5631837,11.1675023 29.5931217,11.3240504 C29.5935719,11.6615558 29.7623949,11.823502 29.9173745,12 C30.1917682,11.4330707 29.718726,10.9325629 29.4311641,10.4791133 C28.8044931,9.49100636 27.9353921,8.64548255 27.216206,8.00063128 C27.1220028,7.9964066 27.0481708,8.01318799 27,8.05696042 L27,8.22594783 C27.9307776,9.00176434 28.7332497,9.91183196 29.2689815,11.0987338 L29.2689815,11.0987338 Z" id="Shape" fill="#FFFFFF" fill-rule="nonzero"></path>
                    <path d="M23.2738556,8.00378841 C23.1228297,8.25661484 22.7843938,8.84641738 23.1987347,9 C23.248763,8.63774124 23.5072164,8.52585611 23.4998454,8.0943531 C23.40418,8.08944752 23.3963386,7.9783171 23.2740124,8.00378841 L23.2738556,8.00378841 Z" id="Shape" fill="#FFFFFF" fill-rule="nonzero"></path>
                    <path d="M13.2616072,8 C12.8895089,8.22946429 12.8778278,8.8953869 13.4654967,9 C13.1101768,8.59806548 13.8541609,8.13482143 13.2618196,8 L13.2616072,8 Z" id="Shape" fill="#FFFFFF" fill-rule="nonzero"></path>
                    <path d="M14.5,8.91885236 C14.1128407,8.91674666 14.3664309,8.20846463 14.1665115,8 C13.8052323,8.22626739 14.0848763,9.30017609 14.5,8.91885236 Z" id="Shape" fill="#FFFFFF" fill-rule="nonzero"></path>
                    <path d="M9.05592121,8.01830811 C8.92252846,8.26475368 9.03436464,8.95679533 9.32123275,9 C9.66263711,8.855814 9.48244636,7.8531589 9.05592121,8.01830811 L9.05592121,8.01830811 Z" id="Shape" fill="#FFFFFF" fill-rule="nonzero"></path>
                    <path d="M24.9581586,10.5149182 C25.1184855,9.70484443 26.1628703,9.30583538 27,8.9274169 C26.6466427,8.74508896 26.1043762,9.08403328 25.9152011,9.02983633 C25.9839316,8.89711781 26.1459868,8.83940019 26.1704479,8.6713683 C25.9141376,8.68918502 25.4481792,8.80632725 25.3410288,8.77378774 C25.6444002,8.56681513 25.1206125,8.60415555 25.2772171,8.41531971 C25.4025805,8.3999568 25.4037769,8.48445283 25.4686522,8.51773915 C25.4355498,8.09856627 26.0311257,8.18402248 26.4896393,8.15927112 C25.8109753,7.70318456 24.9173457,8.34373279 24.3838533,8.62015858 C24.005769,9.15135273 23.9948678,9.85911371 24.0009831,10.5149182 C24.4532485,11.0394977 24.5114767,11.8805107 25.4686522,12 C25.3649581,11.4129019 24.855794,11.0313895 24.9581586,10.5149182 Z" id="Shape" fill="#FFFFFF" fill-rule="nonzero"></path>
                    <path d="M13.5,10 C13.428474,9.16458333 13.0092715,8.9421875 13.2777833,8 L13.0555666,8 C13.0957276,8.38203125 12.9987393,8.45572917 13.0000124,8.75 C13.1658648,9.16901042 13.2429462,9.78697917 13.5,10 Z" id="Shape" fill="#FFFFFF" fill-rule="nonzero"></path>
                    <path d="M16.8571429,8 C16.7095238,8.44086246 16.3295635,8.71497752 16,9.02526153 C16.2418651,9.76188347 17.3095238,9.95839193 17.3333333,10.66568 C17.7113095,10.8238835 17.9674603,11.1304652 18.5714286,10.9390831 C18.4172619,10.6168377 17.8855159,10.5654322 17.9047619,10.1188738 C19.3740079,10.3173759 20.6579365,10.6491619 22,10.9390831 C20.8599206,10.322075 19.2037698,10.0751578 17.4285714,9.91382153 C17.269246,9.80018838 17.0430556,9.73482795 17.047619,9.50371692 C18.4505952,9.54486978 19.4162698,9.90000898 20.5714286,10.1188738 C19.7539683,9.38410307 17.660119,9.56537501 16.7619048,8.88856 C17.8888889,8.79158734 19.0555556,9.2434144 20,9.50371692 C19.6636905,8.7105632 17.4083333,8.96160988 17.2380952,8.27340308 C18.0013889,8.29518988 18.4867063,8.5164755 19.047619,8.68350769 C18.6051587,8.24891072 17.8392857,8.04670636 16.8571429,8 L16.8571429,8 Z" id="Shape" fill="#FFFFFF" fill-rule="nonzero"></path>
                    <path d="M7.06801058,8 C6.93598764,8.39148936 7.01338653,8.6952311 7.15341626,8.99689597 C7.31497534,9.02467406 7.34184254,8.85644787 7.49503898,8.87228397 C7.5288454,8.32451041 7.3902391,8.02829731 7.06801058,8 Z" id="Shape" fill="#FFFFFF" fill-rule="nonzero"></path>
                    <path d="M14.5,8.1222675 C14.4048369,8.11591059 14.3969325,7.9719022 14.2768162,8.00490922 C14.071611,8.51395076 13.7729476,9.6792207 14.2768162,10 C14.2893702,9.8633265 14.3944526,9.87261737 14.5,9.88264172 C14.4891508,9.4948704 14.0753307,8.6892547 14.5,8.1222675 L14.5,8.1222675 Z" id="Shape" fill="#FFFFFF" fill-rule="nonzero"></path>
                    <path d="M10.0409096,8 C9.90318245,8.45657895 10.1372707,9.5995614 10.3852274,10 C10.2533585,9.41776316 10.4238436,9.10657895 10.5,8.63157895 C10.2876707,8.53004386 10.177202,8.24100877 10.0409096,8 L10.0409096,8 Z" id="Shape" fill="#FFFFFF" fill-rule="nonzero"></path>
                    <path d="M14.4983646,9.92232108 C14.5152734,9.4785853 14.39973,8.47283759 14.2135848,8 C13.9998517,8.29876073 14.051468,9.07489787 14,9.6660116 C14.1839203,9.85423887 14.2654978,10.1385822 14.4983646,9.92232108 L14.4983646,9.92232108 Z" id="Shape" fill="#FFFFFF" fill-rule="nonzero"></path>
                    <path d="M7,9 C7.01412037,9.35489406 7.14050926,9.49932014 7.11111111,9.93541327 C7.20405093,10.1190314 7.29722222,9.84317113 7.5,9.93541327 C7.32789352,9.6337858 7.27326389,9.11237951 7,9 L7,9 Z" id="Shape" fill="#FFFFFF" fill-rule="nonzero"></path>
                    <path d="M14.5,10.9954388 C14.3378906,10.3799233 14.252474,9.76889193 14.4375,9.06959264 C14.0453125,8.69693196 14.0420573,9.91262237 14,10.5422986 C14.2213542,10.5949289 14.2200521,11.0501933 14.5,10.9954388 Z" id="Shape" fill="#FFFFFF" fill-rule="nonzero"></path>
                    <path d="M20.0819558,9 C19.8885571,9.34739583 20.0633938,9.953125 20.336344,10 C20.6701071,9.87994792 20.4005156,9.27213542 20.336344,9 L20.081779,9 L20.0819558,9 Z" id="Shape" fill="#FFFFFF" fill-rule="nonzero"></path>
                    <path d="M27.1363478,9 C26.6844598,9.88605687 27.4552694,11.4763395 28,10.8626597 C27.9982007,9.65470271 27.7238112,9.00535884 27.1363478,9 Z M27.6977217,10.5080522 C27.3619769,10.4882799 27.4149656,9.66967051 27.222803,9.35497711 C27.4845976,9.1738852 27.8426534,9.86369756 27.6978117,10.5080522 L27.6977217,10.5080522 Z" id="Shape" fill="#FFFFFF" fill-rule="nonzero"></path>
                    <path d="M13.1734195,10.8823529 C13.3248712,10.8448529 13.4242061,10.9012255 13.5,11 C13.1927422,10.4504902 13.4027062,9.52328431 13.1734195,9 C12.8401713,9.46642157 13.0716352,10.2507353 13.1734195,10.8823529 Z" id="Shape" fill="#FFFFFF" fill-rule="nonzero"></path>
                    <path d="M13.2430544,9 C12.9843244,9.24443609 12.7684187,10.0678153 13.5,9.99552152 C13.2014791,9.68501362 13.603492,9.185327 13.2432328,9 L13.2430544,9 Z" id="Shape" fill="#FFFFFF" fill-rule="nonzero"></path>
                    <path d="M10.4827493,10 C10.5839118,9.76979167 10.2010869,9.49866071 10.3411808,9 C9.70530217,9.03541667 10.0798689,9.97276786 10.4827493,10 Z" id="Shape" fill="#FFFFFF" fill-rule="nonzero"></path>
                    <path d="M27.9468085,11.6411657 C29.0517287,11.5667397 30.9425975,11.311214 31,10.7185824 C30.2889849,10.371439 29.0365248,10.2992554 28.1702128,10.5135638 C27.3259309,10.2735213 26.3953901,10.3467727 25.5638298,10.3085453 C25.8196587,9.66465904 27.80625,10.2118022 27.8723404,9.43721662 C27.0058732,8.65900049 24.8162012,9.0183168 24.2978723,9.7447444 C24.378391,10.0735215 24.0766401,10.1391915 24,10.3598 C24.1866356,10.8469325 24.1796543,11.9860666 25.0427083,11.9999481 C25.297141,12.0040058 25.4367686,11.7689819 25.712766,11.6924203 C26.2371454,11.5474124 27.0485372,11.701817 27.9468085,11.6412725 L27.9468085,11.6411657 Z" id="Shape" fill="#FFFFFF" fill-rule="nonzero"></path>
                    <path d="M27.000177,9.02479061 C27.3783549,9.29109779 27.2739445,9.98327766 27.9343845,10 C28.219301,9.45519552 27.5149733,8.87178901 27,9.02479061 L27.000177,9.02479061 Z" id="Shape" fill-rule="nonzero"></path>
                    <path d="M20.493498,9.12748072 C20.2375021,8.78110508 19.9191683,9.17755291 20.0186829,9.87082041 C20.0712674,9.89843755 20.1524058,9.87417577 20.1543848,9.99471036 C20.4554732,10.0491703 20.5233241,9.67775858 20.4936393,9.12748072 L20.493498,9.12748072 Z" id="Shape" fill="#FFFFFF" fill-rule="nonzero"></path>
                    <path d="M10.5,9.95370804 C10.4131638,9.5726222 10.1909336,9.39042423 10.1104546,9 C9.79651887,9.33638077 10.223531,10.2096197 10.5,9.95370804 Z" id="Shape" fill="#FFFFFF" fill-rule="nonzero"></path>
                    <path d="M3.51351351,9.00326878 C2.65709459,9.65680416 1.475,10.0992816 1,11 C2.15304054,10.4512273 2.96266892,9.67968337 4,9.05581434 C3.90405405,8.99527747 3.71334459,8.9962627 3.51351351,9.00326878 L3.51351351,9.00326878 Z" id="Shape" fill="#FFFFFF" fill-rule="nonzero"></path>
                    <path d="M9,9.41666667 C9.0546875,9.72309028 9.30729167,9.83177083 9.5,10 C9.24114583,9.66336806 9.43454861,9.425 9.5,9 C9.24809028,9.05364583 9.01909722,9.13038194 9,9.41666667 Z" id="Shape" fill="#FFFFFF" fill-rule="nonzero"></path>
                    <path d="M30.4962981,11.491792 C30.5042532,11.2954096 30.5055363,11.1079914 30.4347096,11.0137013 C30.2210748,10.9497899 30.1979791,11.132394 30.0035907,11.0933831 C29.9676641,11.4854839 30.2063192,11.5220047 30.4962981,11.491792 L30.4962981,11.491792 Z" id="Shape" fill="#FFFFFF" fill-rule="nonzero"></path>
                    <path d="M9.01685024,11 C8.91868,11.381875 9.27189304,11.3870833 9.49646059,11.5 C9.52743542,11.1739583 9.35407627,11.01875 9.01685024,11 Z" id="Shape" fill="#FFFFFF" fill-rule="nonzero"></path>
                    <path d="M9.03911183,11 C8.82600577,11.3013889 9.53156702,11.4517361 10,11.5 C9.78289023,11.2677083 9.34230117,11.1775463 9.03911183,11 Z" id="Shape" fill="#FFFFFF" fill-rule="nonzero"></path>
                    <path d="M10.4197507,12 C10.2923549,11.6249072 10.3600653,11.3183085 10.5,11.0018321 C9.87890385,10.9504941 9.81854969,11.9950611 10.4197507,12 L10.4197507,12 Z" id="Shape" fill="#FFFFFF" fill-rule="nonzero"></path>
                    <path d="M13.3514927,11 C13.1617977,11.1211551 12.9711969,11.2419099 13.003628,11.4612383 C13.168139,11.4526701 13.1954971,11.5045594 13.3514927,11.4996748 C13.0713892,11.3295131 13.7968319,11.0970522 13.3514927,11 L13.3514927,11 Z" id="Shape" fill="#FFFFFF" fill-rule="nonzero"></path>
                    <path d="M13.1172544,11.5 C13.2367295,11.3276515 13.4214574,11.2016098 13.5,11 C13.2833766,11.0547348 12.7701255,11.3414773 13.1172544,11.5 Z" id="Shape" fill="#FFFFFF" fill-rule="nonzero"></path>
                    <path d="M10,11.4779174 C9.78668557,11.2474218 9.37271449,11.1372768 9.00397934,11 C8.94235056,11.3721284 9.61113693,11.5690204 10,11.4779174 Z" id="Shape" fill="#FFFFFF" fill-rule="nonzero"></path>
                    <path d="M10.5,11.5 C10.3673995,11.3417535 10.5878006,11.0131944 10.154555,11 C9.8123486,11.1418403 10.087805,11.4712674 10.5,11.5 Z" id="Shape" fill="#FFFFFF" fill-rule="nonzero"></path>
                    <path d="M14.009136,11.4957144 C14.4317949,11.5328313 14.5353714,11.3254885 14.4902655,11.004235 C14.0692772,10.9673741 13.9657007,11.174461 14.009136,11.4957144 Z" id="Shape" fill="#FFFFFF" fill-rule="nonzero"></path>
                    <path d="M8,11.4977529 C7.87090232,11.2076275 7.34012536,11.1620001 7.00053411,11 C6.98387634,11.3788452 7.35772959,11.5199904 8,11.4977529 L8,11.4977529 Z" id="Shape" fill="#FFFFFF" fill-rule="nonzero"></path>
                    <path d="M7,12 L7,12.5 C7.30583333,12.6941667 7.58979167,12.9102083 8,13 C7.97125,12.3625 7.3025,12.3645833 7,12 L7,12 Z" id="Shape" fill="#FFFFFF" fill-rule="nonzero"></path>
                    <path d="M16.0001157,14.701272 C17.0179769,15.7224624 17.4584332,13.859406 18.1653841,13.0951103 C18.5492797,12.6800331 19.0344988,12.5635255 18.998064,12 C17.4226924,12.1429727 16.6396333,13.3278212 16,14.701272 L16.0001157,14.701272 Z" id="Shape" fill="#FFFFFF" fill-rule="nonzero"></path>
                    <path d="M7,12.9805762 C6.83177902,12.4012774 6.27612291,12.4222898 6.00648011,12 C5.93892828,12.9455556 6.40840406,13.0564541 7,12.9805762 Z" id="Shape" fill="#FFFFFF" fill-rule="nonzero"></path>
                    <path d="M26.0719547,14.0140719 C25.8765043,14.5256888 26.1000634,15.1612569 26.4914011,14.9627654 C26.5336371,14.2964212 26.4244062,13.9208967 26.0719547,14.0140719 Z" id="Shape" fill="#FFFFFF" fill-rule="nonzero"></path>
                    <path d="M26.5,15.9516547 C26.3227865,15.7371806 26.2002604,14.8205737 26,15.0312136 C26.1119792,15.3667037 26.2734375,16.2102217 26.5,15.951415 L26.5,15.9516547 Z" id="Shape" fill="#FFFFFF" fill-rule="nonzero"></path>
                    <path d="M9.78044821,15 C9.08687799,15.5892638 8.62398962,17.4537034 9.41452855,18 C9.38845677,16.9133217 9.48130889,15.8687177 10,15 L9.78044821,15 Z" id="Shape" fill="#FFFFFF" fill-rule="nonzero"></path>
                    <path d="M10,18.9999199 C10.433309,18.9059295 10.6534579,18.2384615 10.3787508,18 C10.1781031,18.2804487 10.05422,18.6153846 10,19 L10,18.9999199 Z" id="Shape" fill="#FFFFFF" fill-rule="nonzero"></path>
                    <path d="M1,21.9865801 C1.5775,22.1564643 1.70072917,20.6696825 2,20 C1.58,20.1281029 1.30291667,21.3243867 1,21.9865801 Z" id="Shape" fill="#FFFFFF" fill-rule="nonzero"></path>
                    <path d="M10.3040527,20.0026527 C10.2725032,20.0831213 10.2344262,20.1570615 10.1735029,20.2070173 C10.2557765,20.674927 10.0258185,21.1168655 10.1735029,21.4332048 C10.0028363,21.7486927 9.83842514,22.8145108 10.3040527,23 C10.2053245,22.3555419 10.5069489,20.8239429 10.4998774,20.0707742 C10.4165159,20.0679358 10.4095805,19.9842031 10.3040527,20.0026527 Z" id="Shape" fill="#FFFFFF" fill-rule="nonzero"></path>
                    <path d="M1.98578429,21.0005955 C1.66963183,21.3348387 0.682475094,23.5674938 1.10236339,24 C1.09172106,23.1841191 2.13273444,21.5330025 1.98578429,21 L1.98578429,21.0005955 Z" id="Shape" fill="#FFFFFF" fill-rule="nonzero"></path>
                    <path d="M3.05409855,22 C3.65238122,21.7698276 3.57651204,21.2938937 4,21 C3.03596877,21.0739943 2.89940425,21.6329023 3.05409855,22 Z" id="Shape" fill="#FFFFFF" fill-rule="nonzero"></path>
                    <path d="M1.84420967,21.0027983 C1.54804576,21.4154666 1.29099171,21.8636237 1.14315318,22.4106218 C0.706615686,25.8924918 1.39485193,22.5585899 1.53262901,22.6217953 C1.53668605,21.9684772 1.8307403,21.577073 2,21.0730428 C1.98279815,21.018783 1.93460052,20.9909198 1.84420967,21.0026517 L1.84420967,21.0027983 Z" id="Shape" fill="#FFFFFF" fill-rule="nonzero"></path>
                    <path d="M3.20346039,23 C3.06700353,23.1560268 2.76892055,23.4069196 3.32190396,23.5 C3.56249247,23.4665179 3.59259687,23.0602679 3.20346039,23 Z" id="Shape" fill="#FFFFFF" fill-rule="nonzero"></path>
                    <path d="M14.3248717,5.5 C14.3840878,5.34787683 14.5142906,5.2269258 14.498717,5.04196057 C14.3978505,5.00991371 14.2656557,4.99162394 14.0641038,5.00379061 C14.1039434,5.21786043 13.7689291,5.46159149 14.3248717,5.5 L14.3248717,5.5 Z" id="Shape"></path>
                    <path d="M14.279181,5.5 C14.4967286,5.41837121 14.5417518,5.08172348 14.465484,5 L14.1860295,5 C14.0152517,5.12566288 13.83283,5.4499053 14.279181,5.5 Z" id="Shape"></path>
                    <path d="M17,5.28388502 C16.7454167,5.30111967 16.886875,4.99714779 16.65,5.00002023 C16.4933333,5.00804617 16.6082292,5.23648974 16.5,5.28388502 C16.32375,5.25118988 16.371875,5.03634817 16.15,5.04057235 C16.1207292,5.12497143 16.0448958,5.17160636 16,5.24333291 C16.04375,5.51030099 16.9354167,5.63635047 17,5.28388502 L17,5.28388502 Z" id="Shape"></path>
                    <path d="M20.3361877,10 C20.6702696,9.87994792 20.4004206,9.27213542 20.3361877,9 L20.0815564,9 C19.8886807,9.34739583 20.0638614,9.953125 20.3363646,10 L20.3361877,10 Z" id="Shape"></path>
                    <path d="M16,3.24043495 C15.1690909,2.61930126 13.6014773,3.3206575 13,3.99695405 C13.2445455,4.03351914 13.2436364,3.72949303 13.4363636,3.69434641 C14.1386364,3.93517165 15.1670455,3.07069098 16,3.24043495 L16,3.24043495 Z" id="Shape"></path>
                    <path d="M23,1 C23.1742647,1.29116379 23.5870098,1.73448276 24,2 C23.8026961,1.58678161 23.4791667,1.24791667 23,1 Z" id="Shape"></path>
                    <path d="M20,6.65413408 C20.1689224,6.75350176 20.2386778,7.10359189 20.5,6.97000487 L20.5,6.02239249 C20.2162936,5.9342119 20.031494,6.09872793 20.0002603,6.65413408 L20,6.65413408 Z" id="Shape"></path>
                    <path d="M20.4024698,5.5 C20.6592686,5.32928635 20.3664349,4.80442019 20.0166687,5.07713133 C19.9389726,5.36932183 20.1439295,5.45389557 20.4024698,5.5 Z" id="Shape"></path>
                    <path d="M20.0186473,9.87082041 C20.0712344,9.89843755 20.1523768,9.87417577 20.1543559,9.99471036 C20.455742,10.0491703 20.5235963,9.67775858 20.493486,9.12748072 C20.2376188,8.78110508 19.9195518,9.17755291 20.018506,9.87082041 L20.0186473,9.87082041 Z" id="Shape"></path>
                    <path d="M17.319175,3 C16.8432537,3.3473379 16.8963711,5.39837488 17.5,4.93114506 C17.2300183,4.34938761 17.3392667,3.63379108 17.319175,3 L17.319175,3 Z" id="Shape"></path>
                    <path d="M20.1743406,5.99672778 C20.4614101,5.98400912 20.8478646,6.03877724 21,5.9344323 C20.8279876,5.53755814 20.6729854,5.41465433 20.9084512,5 C20.2528929,5.04360684 19.708187,5.57402695 20.1745317,5.99672778 L20.1743406,5.99672778 Z" id="Shape"></path>
                    <path d="M19.372867,3 C19.0791671,3.08496994 18.969329,3.59130105 19.0072118,4.43526929 C19.2922029,4.73652633 19.3932235,5.19127746 19.7909919,4.91369239 C19.8028575,4.18334963 19.8953871,3.63789746 20,3.11960577 C19.704885,3.24145416 19.6618859,3.94015122 19.372867,4.07645197 C19.3282351,3.59952394 19.451245,3.19261513 19.372867,3 L19.372867,3 Z" id="Shape"></path>
                    <path d="M30.4962981,11.491792 C30.5042532,11.2954096 30.5055363,11.1079914 30.4347096,11.0137013 C30.2210748,10.9497899 30.1979791,11.132394 30.0035907,11.0933831 C29.9676641,11.4854839 30.2063192,11.5220047 30.4962981,11.491792 L30.4962981,11.491792 Z" id="Shape"></path>
                    <path d="M29.2689815,11.0987338 C29.3842313,11.1663288 29.5631837,11.1675023 29.5931217,11.3240504 C29.5935719,11.6615558 29.7623949,11.823502 29.9173745,12 C30.1917682,11.4330707 29.718726,10.9325629 29.4311641,10.4791133 C28.8044931,9.49100636 27.9353921,8.64548255 27.216206,8.00063128 C27.1220028,7.9964066 27.0481708,8.01318799 27,8.05696042 L27,8.22594783 C27.9307776,9.00176434 28.7332497,9.91183196 29.2689815,11.0987338 L29.2689815,11.0987338 Z" id="Shape"></path>
                    <path d="M3.51351351,9.00326878 C2.65709459,9.65680416 1.475,10.0992816 1,11 C2.15304054,10.4512273 2.96266892,9.67968337 4,9.05581434 C3.90405405,8.99527747 3.71334459,8.9962627 3.51351351,9.00326878 L3.51351351,9.00326878 Z" id="Shape"></path>
                    <path d="M27.1363478,9 C26.6844598,9.88605687 27.4552694,11.4763395 28,10.8626597 C27.9982007,9.65470271 27.7238112,9.00535884 27.1363478,9 Z" id="Shape"></path>
                    <path d="M24.0007948,10.5149182 C24.4530886,11.0394977 24.5113205,11.8805107 25.468556,12 C25.3653873,11.4129019 24.8557923,11.0312828 24.9580304,10.5149182 C25.1183673,9.70484443 26.1628177,9.30583538 27,8.9274169 C26.6466205,8.74508896 26.10432,9.08403328 25.915133,9.02983633 C25.9838678,8.89711781 26.1459331,8.83940019 26.1703958,8.6713683 C25.9140694,8.68918502 25.4480818,8.80632725 25.3409246,8.77378774 C25.6443151,8.56681513 25.1204945,8.60415555 25.2771089,8.41531971 C25.4024802,8.3999568 25.4036767,8.48445283 25.468556,8.51773915 C25.4354516,8.09856627 26.0310649,8.18402248 26.4896073,8.15927112 C25.8109007,7.70318456 24.9172149,8.34373279 24.383689,8.62015858 C24.0061128,9.15145941 23.9954768,9.8592204 24.0007948,10.5149182 Z" id="Shape"></path>
                    <path d="M22.9962666,6.96667853 C22.5454159,7.02697845 22.5211705,7.53739598 22.026447,7.55140506 C21.8780877,7.3848189 22.2787156,6.98114442 21.9571742,6.8204969 C21.5983987,6.95343082 21.766674,7.6426163 21.3338631,7.69758669 C21.1908436,8.1426793 21.6787841,8.799583 21.1260446,8.79394892 C20.8534272,7.84026605 21.6976898,7.19935096 21.4724088,6.30886119 C20.8616534,6.34662478 20.8527056,7.0195171 20.2947708,7.11286016 C20.2217457,6.743447 20.4526551,6.69471979 20.4333164,6.38195201 C19.8967407,6.32759071 20.1329899,7.08849656 19.6713153,7.11286016 C19.6677074,6.69487206 19.9397475,6.56772449 19.8791338,6.08958874 L19.3249512,6.08958874 C19.1436873,6.26394079 19.1360385,6.62132443 18.8400415,6.67431527 C18.6379957,6.48717233 18.9302405,6.15872047 18.7707686,6.01649793 C18.2825395,6.01299566 18.2593043,6.50011549 18.0089119,6.74740608 C17.7526024,6.70111523 17.7974855,6.33687934 17.8010934,6.01649793 C17.1847096,5.95878664 17.5297749,6.65893574 17.2469108,6.8204969 C17.0692549,6.7157334 16.8791876,6.62376079 16.8312739,6.38195201 C16.9340286,6.31982481 16.9802105,6.19800679 16.9698195,6.01649793 C16.6313929,5.90000944 16.3506937,6.41971559 16.4156369,6.96667853 C16.2740606,6.81059918 16.1415763,6.98723532 16,7.03976935 C16.1044865,7.36806893 16.1536991,7.75453661 16.5541826,7.7706775 C16.8249239,7.69088669 16.7432397,7.23924636 17.1083652,7.25904179 C17.0663685,7.41984159 16.9343172,7.80372064 17.177638,7.84376832 C17.3695815,7.52993463 17.8876845,6.87912182 18.2167304,7.18595098 C18.069237,7.44435746 17.6912671,7.45988926 17.5934193,7.7706775 C17.5753795,8.00898402 17.6755364,8.12242705 17.8705106,8.13613158 C18.0803495,7.91746822 18.4229613,7.45425518 18.8403301,7.69758669 C18.6945685,7.98233632 18.2090815,7.90863642 18.2861475,8.42849484 C18.6912492,8.49107885 18.9651655,7.79930474 19.255967,8.2092224 C19.2526477,8.54665833 18.8371551,8.44935618 18.9097472,8.86703974 C19.1516248,8.92246694 19.4327571,8.64578775 19.6024755,8.86703974 C19.6539971,9.09209854 19.4124082,9.00743501 19.4639298,9.23249381 C19.6376892,9.31715734 19.6958495,9.52379117 19.9486953,9.52485708 C20.2579696,9.29081419 20.4966722,8.98231004 20.9186591,8.86703974 C20.9860558,9.16640753 20.7472089,9.33527777 20.9186591,9.52485708 C21.3770143,9.59277063 21.5076225,8.93038511 21.8190615,9.08631218 C21.7731683,9.28259148 21.5149827,9.47475941 21.6805159,9.67103871 C22.0723403,9.83716804 22.0782573,9.21848474 22.2348428,9.37867545 C22.1058222,10.0223314 21.6191806,10.2886561 21.4034246,10.8404918 C21.6872988,11.1208255 21.7124102,10.9900234 21.9576072,10.7674009 C22.4172612,10.3501742 22.1531586,10.3255061 22.4425169,9.67103871 C22.6175751,9.27497785 22.847763,9.28045966 22.8581539,9.01322137 C22.869555,8.72238083 22.650624,8.50143339 22.6504797,8.28231321 C22.6504797,7.81072518 23.0386962,7.30731219 22.9968438,6.96667853 L22.9962666,6.96667853 Z" id="Shape"></path>
                    <path d="M23.0544042,9 C23.3132788,8.72433747 23.5967747,8.47770068 24,8.37028904 C23.8775973,7.46852327 22.7408001,8.42571673 23.0545449,9 L23.0544042,9 Z" id="Shape"></path>
                    <path d="M26.4822059,6.99586197 C26.5616737,6.43319996 26.3468904,6.47967352 26.3863241,6 L26.0019962,6 C25.9799774,6.70955166 26.140114,7.04150565 26.482406,6.99586197 L26.4822059,6.99586197 Z" id="Shape"></path>
                    <path d="M26.4824657,6.99915754 C26.5920256,5.99375527 26.1586441,6.33846462 26,6 C26.0502568,6.60782083 26.1792494,7.02122227 26.4824657,6.99915754 Z" id="Shape"></path>
                    <path d="M24.2978723,9.74461943 C24.378391,10.0734147 24.0766401,10.1390884 24,10.3597091 C24.1866356,10.8468686 24.1796543,11.9860659 25.0427083,11.9999481 C25.297141,12.004006 25.4367686,11.7689691 25.712766,11.6924033 C26.2362145,11.5472806 27.0488475,11.7016937 27.9468085,11.6411458 C29.0517287,11.5667157 30.9425975,11.3111759 31,10.7185114 C30.2889849,10.3713488 29.0365248,10.2991612 28.1702128,10.5134815 C27.3259309,10.2734257 26.3953901,10.3466811 25.5638298,10.3084516 C25.8196587,9.66452963 27.80625,10.2117031 27.8723404,9.43707461 C27.0066489,8.65902893 24.8160461,9.01836515 24.2978723,9.744833 L24.2978723,9.74461943 Z" id="Shape"></path>
                    <path d="M24.4954387,6.01944159 C24.1741108,5.92935638 23.9673967,6.13621871 24.0042369,6.9803505 C24.3265881,7.07110301 24.5338138,6.86357337 24.4954387,6.01944159 Z" id="Shape"></path>
                    <path d="M7.4950855,8.8722395 C7.52871715,8.32449386 7.39009782,8.02855546 7.06801697,8 C6.93598162,8.39146939 7.01338779,8.69519565 7.15343068,8.99684514 C7.31482699,9.02488141 7.34169672,8.8564042 7.4950855,8.8722395 Z" id="Shape"></path>
                    <path d="M17.5913732,3.73257729 C19.2044014,3.91350547 21.4568662,3.407213 23,4 C22.2753521,3.12293709 21.459331,1.74362091 20.2110915,1.05835023 C20.1890845,0.954306078 20.0257042,1.0119691 19.9577465,1.05835023 C20.7033451,1.91716711 21.9447183,2.73977049 22.3237676,3.66572162 C20.4540493,3.2112423 18.6596831,3.3839528 17,3.46515459 C17.0950704,3.700403 17.3767606,3.70834211 17.5915493,3.73257729 L17.5913732,3.73257729 Z" id="Shape"></path>
                    <path d="M7.11111111,9.93541327 C7.20405093,10.1190314 7.29722222,9.84317113 7.5,9.93541327 C7.32800926,9.6337858 7.27337963,9.11237951 7,9 C7.01412037,9.35489406 7.14050926,9.49953667 7.11111111,9.93541327 L7.11111111,9.93541327 Z" id="Shape"></path>
                    <path d="M9.41814434,8.99541734 C9.62333525,8.62997014 9.41943022,8.01290356 9.06544375,8 C8.94971388,8.35830416 8.94365183,9.06339144 9.41814434,8.99541734 Z" id="Shape"></path>
                    <path d="M9.32115077,9 C9.66265221,8.85556611 9.48250744,7.85296483 9.05590693,8.01836081 C8.92254823,8.26479314 9.03435587,8.95679765 9.32115077,9 Z" id="Shape"></path>
                    <path d="M9.5,6.84225309 C9.49649061,6.2877698 9.3561151,6.00701878 9.07887346,6 C8.82926825,6.54424757 9.22787622,7.34146351 9.5,6.84225309 Z" id="Shape"></path>
                    <path d="M26.0719547,14.0140719 C25.8765043,14.5256888 26.1000634,15.1612569 26.4914011,14.9627654 C26.5336371,14.2964212 26.4244062,13.9208967 26.0719547,14.0140719 Z" id="Shape"></path>
                    <path d="M24.0883885,13.2796923 C23.7904638,12.7801534 23.1897135,12.6254366 22.850131,12.2068571 C22.5020363,11.7775988 22.4332944,11.1371262 22.1072539,10.6572063 C21.7714115,10.8735117 22.1089305,11.7644367 22.2929731,12.1472551 C22.7288975,13.0537015 23.7771797,13.6885865 24.2738498,14.2929255 C22.9620784,14.0259584 22.3372104,12.581356 21.6118735,11.5512356 C21.3700515,11.6073608 21.559253,11.8518529 21.550096,12.0280512 C20.2679881,11.366097 18.8254394,11.041018 17.2785526,10.8956141 C18.4202103,10.405388 19.8752693,11.2856344 20.8691253,11.4320317 C20.4804046,10.5147824 19.4230944,10.2413585 18.9500261,9.40556522 C19.8431553,9.87679317 20.3700048,10.700666 21.2405639,11.1936239 C20.8176656,10.4360582 20.1532033,9.82551066 19.2595583,9.1671574 C18.2814367,8.4465946 17.3859861,7.92905096 16.1024595,7.61750658 C15.5601334,7.17645212 15.7935722,6.47153483 16.2262724,6.06785576 C15.7110303,5.77195689 15.7637798,6.53548277 15.4214888,6.60427335 C15.3185694,6.4848211 15.4266477,6.16210135 15.297676,6.06785576 C14.8956711,6.28900385 15.0549512,6.71317109 14.9262374,7.14069095 C14.9825981,7.3670542 15.1750239,7.18427487 15.3595824,7.2002929 C15.1582575,7.62731607 15.4805579,7.95376094 15.1738631,8.15392417 C14.9494523,8.11170612 15.0884838,7.71945076 15.0500503,7.49830267 C15.0341868,7.37450445 14.7780489,7.48203631 14.7405181,7.37909876 C14.805133,6.83473425 14.7289107,6.59359467 14.5547989,6.18705967 C14.0705101,6.30825031 14.4000328,6.84528876 14.1214539,7.14069095 C14.102753,7.29776693 14.2072201,7.33625986 14.3690796,7.31949681 C14.2455247,7.63116536 14.3933263,7.84213145 14.430986,8.15392417 C13.9599813,8.0379487 14.4379505,7.36842008 13.8738282,7.37909876 C14.0039606,6.91606608 13.7146771,6.60029989 13.8119218,6.24666163 C13.5074195,6.13130701 13.3750945,6.64673975 13.3166703,6.96188508 C12.8661721,7.03787757 13.0509886,6.50232918 12.8214189,6.36586554 C12.4111599,6.41255373 12.8273516,6.96424433 12.5737932,7.08108899 C12.2254406,7.07860558 12.3124965,6.65717009 12.0166354,6.60427335 C11.7478583,6.76904792 12.0619045,6.96834196 12.0785418,7.2002929 C11.835946,7.30956315 11.6101165,6.95406232 11.3975711,6.84268117 C11.1778033,7.1170985 11.6362978,7.44404006 11.4594776,7.67710854 C11.1262146,7.66034549 10.9665477,7.47620028 10.9023197,7.2002929 C10.4198365,7.24474602 10.8684002,7.8194082 10.654694,8.09432222 C10.3367787,8.06265868 10.1428053,7.91154289 10.0356298,7.67710854 C9.72390513,7.91241209 10.089411,8.22283893 10.0975362,8.5115359 C9.65400245,8.58094734 9.73525464,8.14498388 9.41656552,8.09432222 C9.0308111,8.39705048 9.56385122,8.71095411 9.47847194,9.10755544 C8.99805228,9.15287776 8.97058131,8.76211245 8.6736884,8.63073981 C8.45778974,8.87883294 8.77712372,9.37874434 8.61178198,9.58437108 C8.24279389,9.64161379 8.10750255,9.47373495 7.93081129,9.34596326 C7.70124163,9.51222788 7.87251608,9.88610598 7.99271772,10.0611867 C7.71749207,10.2834523 7.54763631,9.89591546 7.37365346,9.8227789 C7.01833637,10.0183478 7.36797871,10.3774496 7.18793418,10.7168082 C6.89310483,10.7425116 6.842161,10.5331597 6.63077635,10.4784004 C6.34239558,10.6815437 6.63696699,11.0236341 6.69268278,11.2532258 C6.40920293,11.2281433 6.29519193,11.0399005 6.01171209,11.014818 C5.99391399,11.6133209 6.61065676,12.1031745 6.94030848,12.5644688 C6.51586255,12.5160422 6.26346489,12.3022202 6.25933779,11.8492454 C6.02383543,11.817706 5.8520451,11.7248263 5.64027354,11.6704395 C5.27657328,11.9531763 5.87371235,12.19444 5.76408639,12.3856629 C5.51787937,12.4040402 5.45313557,12.2479576 5.20692855,12.266459 C4.9809701,12.4565644 5.19673979,12.6487807 5.20692855,12.9220805 C5.03217187,12.9159962 4.94395522,12.6974557 4.77358357,12.8624786 C4.68265851,13.1884268 4.93157393,13.1873092 5.02120928,13.3392942 C4.66731088,13.8251743 5.22833786,14.0202465 5.45455426,14.2929255 C4.86437966,14.5855959 4.90565062,13.4876782 4.27833217,13.8161099 C4.37480301,14.3192497 4.75939668,14.5448679 5.0831157,14.8293431 C4.53524383,14.8998721 4.53060085,14.4473939 4.09261289,14.4121294 C3.86033482,14.983439 4.70071455,15.0113774 4.95930285,15.3061587 C4.42239358,15.2554971 4.15348754,15.2769786 3.84498718,15.0677509 C3.73794066,15.203097 3.69563793,15.4007768 3.72117433,15.6637704 C3.76940976,15.9477489 4.00104297,15.6847553 4.15451931,15.8424521 C4.19591924,16.1008514 3.86717032,16.0030049 3.65926791,16.021258 C3.55183446,16.3631 3.92120947,16.246007 3.90689361,16.4980736 C3.81080968,16.5842481 3.61799696,16.5776671 3.53545506,16.6768795 C3.52178405,16.9284494 3.85711053,16.8440133 3.96880004,16.9747651 C3.87052359,17.2491824 3.51959153,16.9098238 3.4116422,17.153571 C3.44762531,17.3373437 3.63540814,17.3750916 3.78308076,17.4514566 C3.7714733,17.6190871 3.58111104,17.6146169 3.53545506,17.7494663 C3.66326603,18.5511126 3.52952236,19.3420802 3.4116422,20.0739426 C2.61691846,20.4609828 1.89545066,21.0920185 1.43063658,22.0409312 C1.33661619,22.2328992 1.32423491,22.4899326 1.2449173,22.6964286 C1.2449173,22.6964286 1,23.5160796 1,23.9124326 C1,24.3087856 1.04488216,24.7200391 1.41077493,25.4047165 C1.7766677,26.0892698 1.77679667,25.7289263 1.93943001,25.5127451 C2.10193438,25.2965638 2.22419957,24.7560486 2.22419957,24.7560486 C2.22419957,24.7560486 2.22419957,24.7560486 2.34620682,24.3596956 C2.46821407,23.9633426 3.28138077,23.7831709 3.28138077,23.7831709 C3.28138077,23.7831709 3.2907957,23.7882619 3.30433773,23.796333 C3.53687374,23.7580884 3.8148078,23.7635519 4.03083543,23.7096618 C4.16496602,23.4811876 3.97176639,22.9375681 4.34036756,22.9348364 C4.30335268,23.2486158 4.3862815,23.4469165 4.40227399,23.7096618 C4.48804018,23.8414069 4.8669591,23.8882193 4.95943182,23.8288657 C4.91454966,23.2363229 4.57935216,22.9234127 4.46418042,22.3984188 C5.17507254,22.6477536 4.95801313,23.7904969 5.57849608,24.1268755 C5.58881382,23.4410805 5.04919614,22.7690684 4.83561897,22.100409 C5.69353886,22.5598408 5.75544528,24.5733935 6.50709247,25.1401087 C6.50399715,25.1425921 6.50128874,25.1438338 6.49819342,25.1460689 L6.63077635,25.2596851 L6.69268278,25.1997107 C6.71925095,24.2575031 5.86494227,23.65453 5.70217996,22.6964286 C6.43860849,23.2786652 6.67320805,24.3442984 7.18793418,25.1402329 C7.18793418,25.1402329 7.34979369,25.474873 7.38861418,25.48431 C7.42743467,25.493747 7.49746631,25.1998348 7.49746631,25.1998348 C7.76895178,24.3435534 6.5981465,23.5772958 6.44505707,22.9349606 C7.19115848,23.4393421 7.57355963,24.2935126 8.02251019,25.0837352 L8.02999055,25.082121 C8.02999055,25.082121 8.51582702,26.176686 8.59359697,26.186123 C8.67136691,26.19556 8.67136691,26.1954358 8.67136691,26.1954358 C8.67136691,26.1954358 8.62274458,25.3253714 8.59359697,25.1382461 C8.59269416,25.1324101 8.59295211,25.1268224 8.59269416,25.1211106 C8.37073383,24.1976528 7.69775939,23.2692282 7.12615673,22.5177469 L7.31187601,22.5177469 C7.7054977,23.0144298 8.46294861,23.7189746 8.7357238,24.4846114 C8.76874056,24.5772427 8.87501326,24.7864704 8.87333663,24.9550943 C8.92737578,25.3488397 9.09091192,26.5521783 9.09890817,26.7940629 C9.10858105,27.0841258 9.2834667,27.0467504 9.30294143,26.8128127 C9.32241616,26.578875 9.49136911,25.4766114 9.41656552,25.1998348 C9.15010994,24.1967836 8.48177848,22.8428259 7.68318559,21.9813293 C7.27486112,21.5408957 6.72299113,21.2674717 6.38315065,20.6700863 C6.06897554,20.117899 5.58004374,19.503378 5.45455426,18.8820276 C4.96085051,16.4367333 6.28397139,14.6900235 7.80699844,13.6966576 C7.74148081,14.3488023 7.04542043,14.3937521 6.94030848,15.0079006 C6.98106354,15.1864581 7.07263347,14.9509062 7.18793418,15.0079006 C6.98531961,15.4487067 6.59053717,15.7042501 6.44505707,16.2000639 C6.53314476,16.3192678 6.84770678,16.1544932 6.87840205,16.021258 C7.02039992,16.1320183 6.9680374,16.3007663 7.24984061,16.3788697 C7.15569125,16.6259695 7.09313997,16.9036153 7.12602776,17.272899 C8.26291347,16.8276228 7.749735,15.0189518 8.48796913,14.1139955 C8.44037856,13.8893706 8.56354656,13.8291478 8.54987555,13.6371798 C8.87153102,13.0726996 9.60151096,12.901344 10.1594426,12.5643446 C10.0958596,12.321715 9.74028453,11.8047922 10.2213491,11.7299173 C10.1524782,12.1935708 10.5168233,12.2401348 10.7166005,12.4451407 C11.6662192,12.2059879 12.8748132,12.4121113 13.997641,12.087529 C14.307689,11.9978777 14.4616813,11.6994954 14.8024246,11.8491212 C14.5971016,12.4858687 13.491685,12.2561529 13.4404832,13.0411603 C13.8455834,13.2349908 13.9638504,12.6836727 14.4928924,12.8027525 C14.1267417,13.0659944 13.6000212,13.1748922 13.4404832,13.6371798 C13.8039255,13.5898708 13.9074898,13.2921093 14.3071732,13.2795681 C14.1058483,13.5625532 13.6349726,13.5860215 13.5642961,13.9947915 C13.8813085,14.2376695 13.984228,13.7654482 14.2452667,13.7563837 C14.2625489,14.110767 13.8858225,14.0858087 13.8119218,14.3524033 C14.5509297,14.9028522 15.0350896,13.936183 15.6072081,13.4584981 C15.9809682,13.1462087 16.533354,12.997328 16.8453366,12.8028766 C16.9743083,12.722414 17.381601,12.4311094 17.7120266,12.3856629 C18.4527112,12.2835946 19.301732,12.4564403 19.8788805,12.5644688 C20.4624775,12.6737391 21.3481263,12.8170321 21.8597571,13.1604884 C22.4412906,13.550757 22.7932544,14.3366336 23.4693242,14.7101392 C23.9565794,14.9793413 24.4636962,15.0691168 24.893172,15.3656365 C25.649978,15.8886437 26.1350407,16.7174833 26.936084,16.9748893 C27.2977207,15.7668322 26.0211587,15.1182884 25.6978266,14.1735974 C24.7692302,14.2307159 24.45067,13.8855213 24.0882595,13.2770847 L24.0883885,13.2796923 Z" id="Shape"></path>
                    <path d="M1.5,21.4995652 C1.33804259,21.3230435 1.16973792,21.16 1,21 L1.5,21.5 L1.5,21.4995652 Z" id="Shape"></path>
                    <path d="M2,20 C1.58010417,20.1283034 1.30302083,21.3240279 1,21.9866331 C1.57760417,22.1561276 1.70072917,20.6700945 2,20 Z" id="Shape"></path>
                    <path d="M16.0001157,14.701272 C17.0179769,15.7224624 17.4584332,13.859406 18.1653841,13.0951103 C18.5492797,12.6800331 19.0344988,12.5635255 18.998064,12 C17.4226924,12.1429727 16.6396333,13.3278212 16,14.701272 L16.0001157,14.701272 Z" id="Shape"></path>
                    <path d="M16,1 C16.3354798,1.33011364 16.6819444,1.64375 17,2 C16.834596,1.44526515 16.3787879,1.08399621 16,1 L16,1 Z" id="Shape"></path>
                    <path d="M13,1.09591873 C13.3957562,1.16869928 13.6366512,1.39500009 14,1.5 C13.8294753,1.24346962 13.2530864,0.805408785 13.0001543,1.09591873 L13,1.09591873 Z" id="Shape"></path>
                    <path d="M9.01494988,6.71796705 C9.16866874,6.778194 9.21777805,7.02027126 9.41858803,6.99863633 C9.60392521,6.60628406 9.46298822,5.88239119 9.09567751,6.01629383 C9.12864129,6.35426643 8.9481814,6.32122932 9.01494988,6.71796705 Z" id="Shape"></path>
                    <path d="M13.9880824,5.8461792 C14.0672871,5.59910572 13.7227801,5.45766904 13.8028531,5 L13.6639312,5 C13.4901824,5.14319956 13.743329,5.57510352 13.5250093,5.71599778 C13.3542511,5.60886933 13.2327909,5.43244639 13.2008582,5.13018141 C12.6073529,5.70148798 13.4679935,6.28540586 13.9880824,5.8461792 Z" id="Shape"></path>
                    <path d="M17.1112337,5 C16.922844,5.11625695 16.9262457,5.5456326 17.5,5.49602964 C17.3574524,5.33800631 17.3866098,5.08826916 17.1112337,5 Z" id="Shape"></path>
                    <path d="M14.0421036,1.26315789 C14.4812873,1.33092105 14.6408628,1.81359649 15,2 C14.87775,1.56370614 14.4451444,1.14155702 14.006626,1 C13.9770613,1.14879386 14.056886,1.13640351 14.0421036,1.26315789 Z" id="Shape"></path>
                    <path d="M10.5,5.49999994 C10.3865302,5.33293265 10.3846747,5.10320512 10.1574496,5 C9.88055463,5.16338139 9.95334659,5.5001602 10.5,5.49999994 Z" id="Shape"></path>
                    <path d="M10,6.95232277 C9.78745173,6.50790548 9.54210792,6.09831851 9.00367997,6 C8.96071366,6.86260162 9.29406574,7.11831792 10,6.95232277 Z" id="Shape"></path>
                    <path d="M9.5,6.99999648 C9.475,6.38303437 9.30833333,6.04970221 9,6 C9.06785714,6.5306529 9.16577381,7.00148457 9.5,6.99999648 Z" id="Shape"></path>
                    <path d="M10.5,5.47621499 C10.4798558,5.26357177 10.4222815,5.07366451 10.1733372,5 C9.82898025,5.15162818 10.0286529,5.60866228 10.5,5.47621499 Z" id="Shape"></path>
                    <path d="M32.9998662,11.7722429 C32.7157729,11.6497324 32.5529943,11.1515073 32.2294435,11.2523558 C32.592853,11.6420304 32.9707079,11.9803181 32.550453,12.5231909 C31.2274927,12.7470312 29.7537917,13.156683 28.5057336,13.6207304 C28.3386749,13.83037 27.9305917,14.0861015 27.5427052,13.9094362 C27.6428869,13.7108682 27.6934459,13.4674118 27.671109,13.1586085 C28.0988541,12.9653356 28.5814384,12.5148872 29.1477526,12.6387214 C29.1934964,12.9879604 28.8104251,12.9512554 28.6984731,13.1586085 C29.7566005,12.6666412 31.3348971,12.6424521 32.2937792,12.061069 C32.035099,11.6071306 31.4905867,11.8697217 30.6887318,11.7722429 C29.2721437,12.134479 28.0017488,12.6281311 26.8366181,13.2163737 C26.4769538,13.0561955 25.6610547,13.4157841 25.4240427,13.0431984 C25.4768755,11.714959 26.6814635,11.9406045 28.1847242,11.8300081 C29.5540971,11.7294003 30.5539078,11.1951922 32.0369716,11.3678862 C31.9682221,11.152109 32.1962725,11.2032553 32.1653754,11.0212948 C30.3868491,7.67295705 27.1402396,5.645638 23.883331,3.62734477 C23.8643379,3.22996809 23.5032023,2.93163472 23.6265234,2.58757054 C22.7490975,1.93277754 22.5824401,0.63859559 21.3152552,0.334726387 C21.2858293,0.59202237 21.4673334,0.956665414 21.1226495,1.08567444 C20.4680577,1.33057496 19.7967466,0.314869587 19.2607946,0.276961152 C18.876787,0.249763354 18.5093649,0.591300304 18.1051605,0.565787326 C17.2613068,0.512595172 16.5288702,-0.350032333 15.922296,0.161430683 C17.4972488,0.535219889 18.8297056,1.43491342 19.4534002,2.47204007 C18.5069573,1.74467949 17.5899403,0.990722834 16.4357774,0.450256856 C15.9126658,0.826332603 15.2512525,0.804429952 14.7023263,0.73908303 C14.4396335,1.21684966 13.7421067,1.25379534 13.1614808,1.0279092 C12.9439969,1.1511417 13.3007187,1.34248904 13.1614808,1.37450061 C12.9510859,1.37125132 12.9161761,1.21023073 12.6478657,1.25897014 C12.4327893,1.39628292 12.871101,1.59112024 12.6478657,1.72109202 C12.3675174,1.76152768 12.286195,1.62289112 12.0058467,1.66332679 C11.7990631,2.03254291 11.4388637,2.09921362 11.2996259,2.41427484 C11.0648877,2.4484526 10.7926984,2.21943751 10.7860107,2.52980531 C11.3174152,2.87964601 12.3196335,2.80587499 12.7120676,3.28075336 C11.9107477,3.13537752 11.2088069,2.90034522 10.4650012,2.70310101 C10.3733798,3.01659775 10.7626038,2.89745696 10.6576069,3.22298812 L10.2081937,3.22298812 C9.95459619,3.72662876 9.06754001,3.66019874 8.92415578,4.26276235 C9.09174947,4.28526672 9.27632992,4.29248738 9.37356904,4.37829282 C9.42345926,5.0376589 8.64099867,5.28123564 8.21793494,5.47583228 C5.94532162,6.52114234 2.72653289,7.58221749 1.28413032,9.23057254 C0.981043878,9.57680291 0.741490559,10.1027072 0.706313271,10.6169382 C1.4561379,10.155418 2.06886473,9.26294514 2.88917769,9.05727683 C2.41782878,9.72085497 1.29576692,10.3407481 0.770515165,11.07906 C0.281109473,11.7669477 0.720223681,12.501529 0.642111376,13.3896694 C1.30914231,12.2374937 2.39843446,11.1574041 3.46699474,10.5591729 C2.81868936,11.7685122 0.773190244,12.3302791 1.09152464,14.0249667 C1.52047355,13.2941161 2.07274359,12.3663824 2.7607739,12.061069 C2.27350827,12.9898859 1.4018338,13.5725927 1.09152464,14.6605046 C1.53063885,14.554361 1.67736693,13.8792298 1.99035116,13.8517913 C1.8763928,14.4082631 1.46603569,14.6790376 1.5409379,15.1803917 C1.62988428,15.7748923 1.93551204,16.037002 2.05455306,16.5667573 C2.51640544,18.6219963 1.07694546,18.9127479 0.195774455,20.8950582 C0.0636255554,20.9685886 -0.00445520369,21.337925 0.000226184453,21.5345675 C0.000226184453,21.5345675 0.209417358,23.6783798 0.757674787,24.6213973 C1.30579846,25.5642944 1.68552592,25.9136537 2.06498587,25.2151757 C2.39375307,24.6100849 2.56455686,23.6393883 2.93331649,23.367651 C4.0552446,23.2678856 5.40656072,23.1819598 5.7783967,24.1917683 C6.0327967,24.1538599 6.14314371,24.4182562 6.33360933,24.438474 C6.76777464,24.7884351 8.1538668,27.1298526 9.01510846,26.994345 C9.77456337,26.8748431 9.83087378,24.9764128 9.83181006,24.4513509 C9.85147189,24.4598953 9.87019744,24.4695228 9.8871842,24.4805945 C9.63693056,23.4013474 9.24757282,22.6022616 8.53894441,21.7655081 C7.16408759,20.142305 4.99058595,19.1351441 5.90666673,16.5088718 C6.37092668,16.5414851 6.28305034,16.0773173 6.61288757,15.9889847 C6.81926991,16.2621661 6.39995129,16.3921379 6.42028189,16.6821675 C6.63014183,16.6944426 6.67976455,16.2654154 6.86969515,16.4511065 C6.83130777,16.8323571 6.95904279,17.0638994 7.12650273,17.2599402 C8.46885734,16.5420868 8.28360813,14.4499022 9.05255957,13.2162534 C10.0819299,12.380583 11.9927388,12.4032077 13.4182884,12.0609487 C13.4336701,12.1433845 13.523954,12.1584275 13.5466922,12.2342444 C12.8953105,13.1741329 13.2089635,14.4548363 14.6381244,14.4293233 C15.8279995,15.8740559 16.7878178,14.4576042 17.5915453,13.6783753 C17.987457,13.2944771 18.6198456,12.8506476 19.0681889,12.638601 C20.0491403,12.174674 21.5083959,12.8282636 22.4066874,13.0429577 C23.3111316,14.3342514 25.3120906,15.1234689 26.7080806,16.1043948 C27.1191065,16.393221 27.271586,16.9418703 27.9922522,16.7975776 C28.4294939,15.9162967 27.7448074,15.2173374 27.4786371,14.602619 C28.7436819,13.5841457 30.5825312,13.0820696 32.5505867,12.6963663 C32.7110915,12.3979126 32.9023596,12.127138 33,11.7722429 L32.9998662,11.7722429 Z M1.02732274,11.6567124 C1.40343884,10.66652 2.33944896,10.1800886 3.01758148,9.46163347 C3.1758124,9.45405179 3.3268206,9.45284834 3.40279284,9.51939871 C2.5812761,10.2052405 1.94032719,11.0534267 1.02732274,11.6567124 L1.02732274,11.6567124 Z M28.1847242,7.20878932 C28.2419708,7.16390092 28.3297134,7.14669169 28.4416655,7.15102409 C29.2963532,7.81243602 30.3290674,8.67939592 31.0739432,9.69269441 C31.4158183,10.1577046 31.9778523,10.6709727 31.6517602,11.2523558 C31.467581,11.071358 31.2669501,10.9054033 31.2664151,10.5591729 C31.2308365,10.3986337 31.0183015,10.3974303 30.8812037,10.328112 C30.2438662,9.11083002 29.2907355,8.17768079 28.1847242,7.38208502 L28.1847242,7.20878932 Z M29.6613677,9.86599012 C29.8641387,9.89427101 29.8880807,9.76189235 30.110781,9.80822488 C30.1847469,9.87646007 30.1834094,10.0124491 30.1749829,10.1548163 C29.872699,10.1767189 29.6239166,10.1502432 29.6613677,9.86599012 L29.6613677,9.86599012 Z M28.4415317,8.59515495 C29.3150788,8.59864494 29.7223595,9.02153459 29.7255696,9.80822488 C28.9163582,10.2078881 27.7700869,9.17220558 28.4415317,8.59515495 Z M27.8637147,6.68902255 C27.8374989,6.82814049 27.9810169,6.81454159 27.9277828,6.97784873 C27.6991973,6.99108659 27.5920604,6.8948112 27.6069071,6.68902255 L27.8637147,6.68902255 Z M27.4143014,6.57349208 C27.1718055,6.57999067 27.0690825,6.46048884 27.02909,6.28466591 C27.1561563,6.38238543 27.502579,6.28286074 27.4143014,6.57349208 Z M27.671109,9.28845811 C27.6141298,10.1613149 25.9015443,9.544671 25.6808503,10.2704671 C26.3976377,10.3135503 27.1998938,10.2311145 27.9279166,10.501528 C28.6747986,10.2599972 29.7545942,10.3412295 30.3675886,10.732589 C30.3180996,11.4003792 28.6879065,11.6883629 27.7353109,11.7723632 C26.961143,11.8405984 26.2605399,11.6665806 25.8092541,11.8301284 C25.5713058,11.9164153 25.4507935,12.1812929 25.2315708,12.1767199 C24.4876313,12.1610751 24.4935165,10.8772428 24.3326105,10.3282323 C24.3986849,10.0796011 24.6587026,10.0055894 24.5894181,9.63504952 C25.0361562,8.81658835 26.924762,8.41162999 27.671109,9.2886988 L27.671109,9.28845811 Z M24.7820237,5.99571939 C24.8014181,6.14795485 24.6930774,6.18538191 24.5252162,6.16901509 C24.5064906,6.01689998 24.6148313,5.97947292 24.7820237,5.99571939 Z M25.4240427,7.55538073 C24.9628591,7.58330059 24.3635076,7.48690486 24.3968124,7.95973737 C24.3315404,7.92218997 24.3303367,7.82687733 24.2042067,7.8442069 C24.0466445,8.05721621 24.5737688,8.01509572 24.2684086,8.24856355 C24.376348,8.28526854 24.8451556,8.15325091 25.1028995,8.13303308 C25.0782887,8.32257525 24.9152427,8.38768149 24.8460919,8.53738972 C25.0364237,8.59852459 25.5820061,8.21619094 25.9375241,8.42185925 C25.0952755,8.84872027 24.0445045,9.29880772 23.8831972,10.2125815 C23.7802067,10.7950476 24.2928856,11.225519 24.3968124,11.8877733 C23.433784,11.7529878 23.3751997,10.8044345 22.9201688,10.2125815 C22.9140161,9.47294583 22.9249839,8.67446181 23.3053802,8.07526784 C23.8417335,7.76357626 24.7418976,7.04090911 25.4240427,7.55538073 L25.4240427,7.55538073 Z M23.7547934,7.32431979 C23.3715884,7.40326561 23.1019404,7.58426335 22.8558331,7.78644167 C22.5575618,7.36511649 23.6382937,6.66266716 23.7546597,7.32431979 L23.7547934,7.32431979 Z M22.7275631,8.24868389 C22.7179328,8.45988803 22.5045953,8.45555564 22.3423517,8.768571 C22.0741751,9.28581054 22.3188111,9.30530631 21.8929385,9.63504952 C21.6656905,9.8109928 21.6424173,9.9143685 21.3793233,9.69281476 C21.5792855,9.25656689 22.0303038,9.04608482 22.1498798,8.53751006 C22.0047568,8.41090792 21.9992729,8.89986657 21.6361309,8.768571 C21.4827151,8.61344728 21.7220009,8.46157285 21.7645347,8.30644912 C21.4758937,8.18321662 21.3548464,8.70671406 20.9300438,8.65304053 C20.7711441,8.50321195 20.9925069,8.36975019 20.9300438,8.13315342 C20.5389473,8.22413366 20.3177182,8.46807144 20.0310835,8.65304053 C19.7967466,8.65219812 19.7428438,8.48889099 19.581804,8.42197959 C19.5340539,8.24411081 19.757958,8.31102221 19.7102078,8.13315342 C19.5529132,7.95829324 19.2923605,8.17695872 19.0681889,8.13315342 C19.0009106,7.80304917 19.3859883,7.87994914 19.3890646,7.61326631 C19.1195504,7.28929962 18.8656854,7.83602349 18.4902381,7.78656201 C18.4188135,7.37570678 18.8687617,7.43395339 19.0038532,7.20890966 C18.6170368,7.01659957 18.2995049,7.38268675 18.1050267,7.55550107 C17.9243251,7.54467009 17.8314999,7.45501363 17.8482191,7.2666749 C17.9390381,7.02105231 18.2892059,7.00877719 18.4259024,6.80455302 C18.1210772,6.56193904 17.6407668,7.07641066 17.462874,7.32444013 C17.2373648,7.2927896 17.3597497,6.98940177 17.3986721,6.86231826 C17.0602746,6.8466735 17.1359794,7.20361452 16.885057,7.2666749 C16.5138897,7.25403875 16.4681459,6.94848473 16.3714418,6.68902255 C16.5026544,6.64750379 16.6254405,6.50790447 16.7566532,6.63125732 C16.6964639,6.19898081 16.9566153,5.78824592 17.2702683,5.88030927 C17.2798986,6.0237596 17.2370973,6.12003499 17.1418645,6.16913544 C17.1862708,6.36036243 17.362291,6.43293001 17.5270759,6.51572685 C17.7892336,6.38792127 17.4694279,5.83457845 18.0406911,5.88030927 C18.037481,6.13351354 17.9957497,6.42137696 18.2332967,6.45796161 C18.4653598,6.26240222 18.4868942,5.877421 18.9393838,5.88030927 C19.0871819,5.99283113 18.8163302,6.25229331 19.0035857,6.40019638 C19.2780488,6.35819624 19.285004,6.07586865 19.452999,5.9380745 L19.9666141,5.9380745 C20.0227908,6.31595541 19.7705309,6.41644285 19.7740085,6.74678779 C20.2018873,6.72741236 19.9829321,6.1260522 20.4802293,6.16913544 C20.4981523,6.41632251 20.284146,6.45483266 20.3518255,6.74678779 C20.8689183,6.67289642 20.877211,6.14121558 21.4432577,6.1113702 C21.6520476,6.81526366 20.869587,7.32167222 21.1222482,8.07538819 C21.6345259,8.07984092 21.1823038,7.56067587 21.3148539,7.20890966 C21.715982,7.16546539 21.5600249,6.62078737 21.8925372,6.51572685 C22.1906748,6.64269002 21.8192401,6.9617226 21.9567391,7.09337919 C22.4152476,7.08230752 22.4377183,6.67891364 22.8555656,6.63125732 C22.8940868,6.90046738 22.5338874,7.29832543 22.5346899,7.67103154 C22.5346899,7.84408656 22.7379959,8.01870605 22.7272956,8.24868389 L22.7275631,8.24868389 Z M21.0583139,9.46175382 C21.0564413,9.40555306 20.9796665,9.41686542 20.9299101,9.40398858 C20.8357473,9.08074396 21.1370949,8.89589521 21.3791896,9.05739718 C21.4072779,9.31397109 21.343076,9.48714645 21.0581801,9.46175382 L21.0583139,9.46175382 Z M20.5446987,8.9995116 C20.3380488,8.97784963 20.2058999,8.69792893 20.3522268,8.53738972 L20.5446987,8.53738972 C20.5928501,8.66314945 20.7974937,8.9440329 20.5446987,8.9995116 Z M13.4824903,3.74299558 C13.2555098,3.76983235 13.2567136,4.00197638 12.9688751,3.97405652 C13.6768348,3.45765939 15.5221042,2.92212753 16.4999793,3.39640417 C15.5195629,3.26679343 14.3090897,3.92688158 13.4824903,3.74299558 L13.4824903,3.74299558 Z M15.2159414,4.60935376 C14.9088424,4.54569165 15.0344373,4.13351264 15.1517396,3.97393617 L15.3443452,3.97393617 C15.3965093,4.07779325 15.3657459,4.50561702 15.2159414,4.60935376 Z M14.0603073,4.08946664 C14.2091755,4.07105398 14.3068159,4.09873315 14.3813168,4.14723188 C14.3928197,4.42715258 14.2966506,4.61019617 14.252913,4.8404147 C13.8422884,4.78240877 14.0897332,4.41355368 14.0603073,4.08946664 L14.0603073,4.08946664 Z M15.7937585,3.97393617 C16.0786544,3.96791896 16.0167263,4.27395436 16.2431718,4.32052758 C16.3821421,4.25301447 16.2346115,3.92760364 16.4357774,3.91617094 C16.7399339,3.91207924 16.5582961,4.34507781 16.8851907,4.32052758 C16.8015945,4.82260375 15.6574632,4.6429298 15.6011528,4.26276235 C15.658667,4.16071043 15.7563074,4.09416007 15.7937585,3.97393617 L15.7937585,3.97393617 Z M18.3618343,4.55158852 C17.7187453,4.76122819 17.6623011,3.84095579 18.1692286,3.68511 C18.1906292,3.96960378 18.0742633,4.29068221 18.3618343,4.55158852 Z M18.9396513,4.20499711 C19.2946343,4.13916882 19.3476009,3.80172357 19.7102078,3.74287524 C19.5816703,3.99319125 19.4679794,4.25662479 19.4534002,4.60935376 C18.9646633,4.74341724 18.8405397,4.52390935 18.4903718,4.37829282 C18.4438255,3.97068688 18.5787832,3.72626773 18.9396513,3.68511 C19.0359542,3.77825644 18.8848122,3.97477858 18.9396513,4.20499711 L18.9396513,4.20499711 Z M20.4804968,4.72488423 C20.3740287,4.82164099 20.1035782,4.77085573 19.9026798,4.78264946 C19.5764539,4.39068827 19.9567163,3.89884137 20.4164287,3.85840571 C20.2519113,4.24290555 20.360252,4.35687154 20.4806306,4.72488423 L20.4804968,4.72488423 Z M20.8015063,5.41806704 L20.8015063,5.59136275 C20.6672173,5.61579263 20.631505,5.55176949 20.5445649,5.53359751 C20.5606154,5.43202697 20.6555807,5.40194092 20.8013725,5.41806704 L20.8015063,5.41806704 Z M20.8015063,4.49382329 C21.1507378,4.15854424 21.443124,4.80395039 21.1867176,5.0137104 C20.9285725,4.95714861 20.723929,4.85317119 20.8015063,4.49382329 Z M23.0485726,3.04969242 C22.5978218,2.60490011 22.1473385,1.86225581 21.9571404,1.37450061 C22.4801183,1.78980858 22.8332287,2.35747236 23.0485726,3.04969242 Z M21.6361309,3.33851859 C21.3481587,2.53859044 20.4050596,1.82771702 19.8386116,1.08567444 C19.8903744,1.04559981 20.0143643,0.995777292 20.0310835,1.08567444 C20.979399,1.67776809 21.5993486,2.86953709 22.1498798,3.62734477 C20.9775265,3.11515969 19.2662785,3.55261099 18.0408248,3.39628383 C17.8775112,3.37546427 17.6639062,3.36848431 17.5915453,3.16522289 C18.852845,3.0950622 20.2157977,2.94583534 21.6362647,3.33851859 L21.6361309,3.33851859 Z M17.2704021,3.85852605 C17.4969813,3.98187889 17.4729055,4.33099753 17.5914115,4.55170887 C17.1179226,4.62102715 17.1152475,4.02087043 17.2704021,3.85852605 Z M17.5272097,2.41439518 C16.8533573,1.96166015 16.1193156,1.56308003 15.4085471,1.14356002 C16.2110708,1.25018501 17.1767743,1.70929829 17.5272097,2.41439518 Z M14.1245092,1.49003108 C14.9180714,1.64551584 15.7009333,2.10884116 15.9221623,2.58757054 C15.2722519,2.38286499 14.9834771,1.85322999 14.1887111,1.77885726 C14.2154619,1.63973931 14.0710077,1.65333821 14.1245092,1.49003108 L14.1245092,1.49003108 Z M14.4455187,2.87639672 C13.8158051,2.71128442 13.3980916,2.3554265 12.7120676,2.24097913 C13.1507805,1.78427275 14.1499225,2.47312317 14.4455187,2.87639672 Z M12.5839313,4.43605805 C12.6282038,4.70430536 12.7966001,4.86087322 13.0333445,4.95594517 C13.3360297,4.83078716 12.9850594,4.44749076 13.2259502,4.32052758 L13.4185559,4.32052758 C13.3075401,4.72668939 13.7851755,4.85220843 13.6753635,5.07147563 C12.954296,5.46139097 11.761077,4.94318868 12.5841988,4.43605805 L12.5839313,4.43605805 Z M11.7491729,4.66711899 C11.9622429,4.82212237 11.963848,5.1671493 12.0701824,5.41806704 C11.5580385,5.41830773 11.489824,4.9125009 11.7491729,4.66711899 Z M11.0430858,5.01383074 C11.2877218,5.12105746 11.3442997,5.39748818 11.3640953,5.70701356 C10.9007716,5.89968469 10.7045546,5.23442173 11.0430858,5.01383074 Z M10.2084612,5.41806704 C10.5554189,5.47174057 10.7135161,5.69534017 10.8504801,5.93795416 C10.3955829,6.02857337 10.1807741,5.88897405 10.2084612,5.41806704 Z M10.2084612,6.28466591 C9.90804981,6.28526763 9.82003971,6.09488304 9.75904791,5.88030927 C10.0361861,5.90040675 10.1859905,6.0351923 10.2084612,6.28466591 Z M9.24543276,6.28466591 C9.53755138,6.22954825 9.64963719,6.52752058 9.50224034,6.68902255 C9.34253812,6.69792803 9.30348197,6.598283 9.18123086,6.57349208 C9.12813055,6.41018495 9.27164853,6.42378385 9.24543276,6.28466591 Z M8.60328006,6.63125732 C8.85687754,6.63414558 8.98528133,6.74967605 8.98849143,6.97784873 C8.73970908,7.183156 8.37509582,6.8550976 8.60328006,6.63125732 Z M8.21806869,6.91996315 C8.47581255,6.92670242 8.62427943,7.2489843 8.47487627,7.43985026 C8.12938982,7.47535181 8.1338037,7.10709844 8.21806869,6.91996315 Z M7.76878918,7.38208502 C8.07856332,7.30434265 8.20937468,7.77621241 7.96139487,7.8442069 C7.75300622,7.82398907 7.67181757,7.49821721 7.76878918,7.38208502 Z M6.99823269,8.01762295 C7.24046109,8.03074047 7.34465542,8.16805325 7.31924217,8.42197959 C7.20408002,8.41463859 7.18374942,8.49262166 7.06243459,8.47974483 C6.95730399,8.33978448 6.89898727,8.19910206 6.99823269,8.01762295 Z M6.8698289,8.82621589 C6.63562574,8.77494925 6.52782006,8.92826781 6.42041564,8.82621589 C6.45438915,8.58384259 6.30832984,8.50357299 6.29201185,8.30632878 C6.60793868,8.36878744 6.67107054,8.65857637 6.8698289,8.82621589 Z M2.11888871,19.4548987 C1.73461362,19.8638285 1.57651645,20.7717054 0.834850814,20.6679687 C1.22394105,20.263612 1.57972655,19.5331225 2.11888871,19.4548987 Z M17.7199491,13.1584882 C16.902445,13.7630976 16.3931099,15.2371942 15.2160752,14.4293233 C15.9557345,13.3427352 16.8603125,12.4042908 18.6828438,12.2920096 C18.725645,12.7384868 18.1638784,12.8299484 17.7198153,13.1584882 L17.7199491,13.1584882 Z M27.7354446,16.4511065 C26.9046989,16.2016329 26.4016503,15.3983351 25.6167821,14.8914452 C25.1713815,14.6039428 24.645461,14.5170543 24.1401385,14.256148 C23.4390004,13.8940321 23.0738521,13.1323735 22.4708893,12.7542519 C21.9401536,12.4213797 21.021799,12.2825024 20.4165624,12.1765995 C19.8180135,12.0719 18.9375113,11.9043808 18.1693624,12.0033038 C17.8266847,12.0473498 17.4044235,12.3296774 17.2705358,12.4076604 C16.946985,12.5961195 16.3741169,12.7404123 15.9864979,13.043078 C15.3931654,13.5061627 14.8910531,14.4429222 14.124643,13.9094362 C14.201284,13.6511775 14.5919793,13.6753667 14.5740563,13.3317839 C14.303472,13.340569 14.1966026,13.7982381 13.8678354,13.5628448 C13.9411326,13.1666716 14.4294682,13.1440468 14.6382581,12.869662 C14.2237547,12.8818167 14.116484,13.1704022 13.7394316,13.2162534 C13.9048853,12.7682118 14.4510026,12.6626699 14.8308638,12.4075401 C14.2822051,12.29213 14.1595528,12.8263381 13.7394316,12.638601 C13.7925319,11.8777848 14.938937,12.1004216 15.1518733,11.4832963 C14.7984954,11.3382815 14.6387932,11.6274687 14.3172487,11.7143573 C13.1527868,12.0289371 11.8993786,11.8291657 10.9145483,12.0609487 C10.7073634,11.8622604 10.3295085,11.8171313 10.4009331,11.3677659 C9.90203088,11.4404538 10.2707905,11.9414469 10.3367312,12.1764792 C9.75797788,12.5029731 9.00093054,12.6690481 8.66748195,13.2162534 C8.68165987,13.4023056 8.55392485,13.4606725 8.60328006,13.6783753 C7.83780622,14.5554441 8.37001317,16.3083783 7.19083838,16.7399327 C7.15673112,16.3819086 7.22146803,16.1129392 7.31924217,15.8734542 C7.02698979,15.7977577 7.08116014,15.6342098 6.9340308,15.5268628 C6.90219736,15.6559921 6.57597148,15.815689 6.48461754,15.7001585 C6.63549199,15.2197443 7.04491282,14.9719555 7.25504027,14.5447334 C7.13546424,14.4894954 7.04049894,14.7177885 6.99823269,14.5447334 C7.10724216,13.9496312 7.82911221,13.9059462 7.89705922,13.2738983 C6.3174251,14.2366522 4.94537711,15.9294143 5.45738722,18.2994737 C5.58752981,18.9016763 6.09472478,19.4972599 6.42041564,20.0324307 C6.77285729,20.6114069 7.34532419,20.8764049 7.76865543,21.3032659 C8.59685987,22.1382142 9.28997282,23.4504478 9.56630848,24.4225886 C9.64388577,24.6908359 9.4686681,25.7591317 9.44847125,25.9858602 C9.4282744,26.2125888 9.24690405,26.2488124 9.23687251,25.9676883 C9.22857976,25.733378 9.05897976,24.5670017 9.00293685,24.1853901 C9.00467565,24.0219626 8.89432865,23.8191826 8.86022139,23.7294058 C8.57733179,22.9873632 7.79179486,22.30453 7.38357782,21.823153 L7.19097213,21.823153 C7.78376962,22.5514764 8.48169772,23.4512902 8.71188826,24.3462903 C8.71215577,24.3518262 8.71188826,24.3572417 8.71282454,24.3628978 C8.74305293,24.5442566 8.79347817,25.3875087 8.79347817,25.3875087 C8.79347817,25.3875087 8.79347817,25.3875087 8.71282454,25.3784829 C8.63217091,25.3694571 8.12831979,24.3085022 8.12831979,24.3085022 L8.12056206,24.3100667 C7.65496457,23.5443163 7.25838412,22.716348 6.48461754,22.2275097 C6.64351723,22.8500504 7.8576018,23.5928151 7.57604975,24.4225886 C7.57604975,24.4225886 7.50355511,24.7073231 7.46316141,24.6982972 C7.42276772,24.6892714 7.25504027,24.3648233 7.25504027,24.3648233 C6.72122827,23.5935371 6.47792984,22.5607429 5.7141948,21.9963284 C5.88285853,22.9249045 6.76897843,23.5092962 6.74142512,24.4224682 L6.67722322,24.4805945 L6.53972416,24.3704795 C6.54293426,24.3683133 6.54574309,24.3671099 6.54895319,24.364703 C5.76943518,23.8154519 5.70523329,21.8639497 4.81550203,21.418676 C5.03713232,22.0668501 5.59662508,22.7180328 5.58592477,23.382694 C4.94230077,23.0566815 5.16754242,21.9491534 4.43029066,21.7075022 C4.54973294,22.2163176 4.89735945,22.5194648 4.94390582,23.0938678 C4.84800424,23.1513924 4.45503514,23.1060226 4.36608877,22.9783374 C4.34950328,22.723689 4.26349949,22.5314992 4.30188688,22.2273893 C3.91961809,22.2300369 4.11998151,22.756904 3.9808774,22.9783374 C3.75670579,23.0306871 3.46846603,23.025392 3.22744142,23.0623376 C3.21339725,23.0545153 3.20363322,23.0495812 3.20363322,23.0495812 C3.20363322,23.0495812 2.36018083,23.2240803 2.23378335,23.6083395 C2.10738587,23.9925986 2.10725211,23.9924783 2.10725211,23.9924783 C2.10725211,23.9924783 1.98058712,24.5163367 1.8119234,24.7258561 C1.64325967,24.9353754 1.64325967,25.2846144 1.26366597,24.6211566 C0.88420602,23.9575784 0.837659647,23.5591187 0.837659647,23.1748595 C0.837659647,22.7906004 1.09165839,21.9963284 1.09165839,21.9963284 C1.09165839,21.9963284 0.98585902,21.9474686 1.09165839,21.9963284 C1.17391707,21.7961959 1.18662369,21.5470833 1.28426408,21.3610311 C1.7663133,20.4413605 2.51453288,19.829771 3.3387247,19.4546581 C3.46097581,18.7453491 3.59967865,17.9787563 3.46712849,17.2018139 C3.51447739,17.0711201 3.71189822,17.0753321 3.72393607,16.9129877 C3.5707878,16.838976 3.37604205,16.8023914 3.3387247,16.6242819 C3.45067676,16.3879258 3.81462125,16.716947 3.91654175,16.4509862 C3.80071084,16.3241434 3.45281682,16.4060978 3.46712849,16.1622804 C3.55273102,16.066005 3.75269317,16.0725036 3.85233986,15.9889847 C3.86718655,15.7446858 3.484249,15.8581705 3.59553228,15.5268628 C3.81114364,15.5091722 4.15208245,15.6040034 4.10914744,15.3535671 C3.94998024,15.2006095 3.70975815,15.455619 3.65973418,15.1803917 C3.63325089,14.9255026 3.67712219,14.7339146 3.78813796,14.6027394 C4.10821116,14.8055194 4.38708814,14.7846999 4.94377207,14.8338003 C4.67572916,14.5481031 3.80405468,14.5209053 4.04494554,13.9673218 C4.49917395,14.0014995 4.50398909,14.4401543 5.07217586,14.3716784 C4.7365872,14.0959698 4.33759918,13.8773043 4.23755123,13.3896694 C4.88799667,13.0712386 4.84532916,14.1354427 5.45738722,13.8517913 C5.22291655,13.5876357 4.64095313,13.3984546 5.00797396,12.9275476 C4.91501497,12.7801259 4.65686985,12.781209 4.75116638,12.4654257 C4.92785535,12.3054882 5.01934305,12.517294 5.20057965,12.5231909 C5.19001308,12.2581929 4.96624273,12.0719 5.20057965,11.8877733 C5.45591593,11.8699624 5.52306041,12.0212351 5.7783967,12.0033038 C5.89208755,11.8179737 5.27280678,11.5841448 5.64999291,11.310121 C5.86961689,11.3628318 6.04777715,11.4528493 6.29201185,11.4834167 C6.29629198,11.9224325 6.55804845,12.1297856 6.99823269,12.1765995 C6.65635761,11.7295207 6.01687998,11.2547626 6.03520428,10.6747034 C6.32919545,10.6990129 6.44743394,10.8814548 6.74142512,10.9057643 C6.68364341,10.6831275 6.3781494,10.3516995 6.67722322,10.1548163 C6.89657969,10.2078881 6.94927875,10.4106681 7.25504027,10.3858772 C7.44176078,10.0570968 7.07915383,9.70894089 7.44764596,9.51939871 C7.62808003,9.59028147 7.80423398,9.96575549 8.0896649,9.75045965 C7.96500622,9.58077427 7.78738098,9.21841777 8.02546301,9.05727683 C8.20883967,9.18111105 8.34901381,9.34381646 8.73168385,9.28833777 C8.90315641,9.08904771 8.57198163,8.60442146 8.79588574,8.36409401 C9.10378733,8.49141822 9.13227692,8.87014154 9.63051037,8.82621589 C9.71905548,8.44183639 9.16625042,8.1377265 9.56630848,7.8442069 C9.89694823,7.89330735 9.81254949,8.31571563 10.2725293,8.24856355 C10.2641028,7.96864285 9.88504413,7.66778225 10.2083274,7.43985026 C10.319477,7.66718053 10.5205091,7.81351912 10.8503464,7.8442069 C11.0719767,7.57776476 10.6067804,7.02081162 11.1071539,6.97772838 C11.1737634,7.24513328 11.339217,7.42360379 11.684971,7.43985026 C11.8683477,7.21396412 11.3928524,6.89709774 11.6207691,6.63113697 C11.8411956,6.73908575 12.0753988,7.08363131 12.3269899,6.97772838 C12.3097357,6.75292534 11.9840448,6.55977284 12.262788,6.40007603 C12.5696196,6.45134268 12.4793357,6.85979103 12.8406051,6.86219791 C13.1035654,6.74895398 12.6719414,6.21426453 13.0974127,6.16901509 C13.3356285,6.30139376 13.1439591,6.82043846 13.6110278,6.74666744 C13.6716184,6.44123376 13.8088499,5.94168483 14.124643,6.05348463 C14.0237925,6.39622502 14.3238026,6.70226042 14.1888449,7.15102409 C14.7738847,7.14067448 14.2780588,7.78957062 14.7666619,7.90197214 C14.7276058,7.59978775 14.5743238,7.39532289 14.70246,7.09325885 C14.5345988,7.10950532 14.4263919,7.07219861 14.4456525,6.91996315 C14.734561,6.6336642 14.3928197,6.11317537 14.8950657,5.99571939 C15.0756336,6.38972643 15.1546821,6.62343494 15.0876714,7.15102409 C15.1265938,7.25078946 15.3922291,7.14657135 15.4086809,7.26655455 C15.4485396,7.48100799 15.3043528,7.8610551 15.5370847,7.90197214 C15.8551516,7.70797722 15.5209004,7.39159222 15.7296904,6.97772838 C15.5382885,6.96220397 15.3387276,7.13935069 15.2802771,6.91996315 C15.4137635,6.50561793 15.2485774,6.09452201 15.6654885,5.88018892 C15.7992424,5.97165054 15.6871566,6.28430488 15.7938923,6.40007603 C16.1488752,6.33340533 16.0943036,5.59328826 16.6285169,5.88018892 C16.1797724,6.27142804 15.9376777,6.95462229 16.5001131,7.38208502 C17.8312324,7.68402872 18.7600198,8.18562351 19.774276,8.88398113 C20.7011908,9.52204628 21.3901574,10.1137789 21.8287366,10.8479991 C20.9258974,10.3701121 20.3795126,9.57174845 19.4532665,9.11504207 C19.943876,9.92507914 21.0403908,10.1901975 21.4435252,11.07906 C20.4128173,10.9371742 18.9038053,10.0840539 17.7198153,10.5591729 C19.3240602,10.700096 20.8200981,11.0151573 22.1497461,11.6567124 C22.1592426,11.4860643 21.9630256,11.2489861 22.2138142,11.1945905 C22.9660464,12.1929663 23.6140843,13.5930512 24.9744957,13.8517913 C24.4592755,13.2660759 23.3722571,12.6507558 22.9201688,11.7722429 C22.7291682,11.4012216 22.3791341,10.5377517 22.7275631,10.328112 C23.0655593,10.7932425 23.1369839,11.4139781 23.4979858,11.8300081 C23.85016,12.2356885 24.4731859,12.3856374 24.7821575,12.8697823 C25.1582736,13.4592284 25.4882446,13.7943871 26.451273,13.7362608 C26.7869954,14.6544874 28.1111595,15.2826843 27.7353109,16.4536338 L27.7354446,16.4511065 Z M27.4786371,14.2560276 C27.1192402,14.3406296 26.9139279,14.0696144 27.0934257,13.851671 C27.4171103,13.8119574 27.5174257,13.9720152 27.4786371,14.2560276 Z" id="Shape" fill="#FFFFFF" fill-rule="nonzero"></path>
                </g>
            </g>
        </g>
    </g>
</svg>
