<svg xmlns="http://www.w3.org/2000/svg" width="368" height="271" viewBox="0 0 368 271">
  <g fill="none" fill-rule="evenodd">
    <g transform="translate(5 4)">
      <polygon stroke="#FFFFFF" stroke-width="5" points="179 0 358 131.5 179 263 0 131.5"/>
      <g transform="translate(117 75)">
        <path d="M25,102.061 L25.481,102 C25.307,102.01 25.144,102.02 25,102.06 L25,102.061 Z"/>
        <path fill="#FFFFFF" fill-rule="nonzero" d="M67.6755575 14.0194501C72.245804 14.6828534 78.6277876 12.8264477 83 15 80.946831 11.7841027 78.6347711 6.72661001 75.0980927 4.21395083 75.0357394 3.83245562 74.5728286 4.0438867 74.3802817 4.21395083 76.492811 7.36294605 80.0100352 10.3791585 81.0840082 13.7743126 75.786473 12.1078884 70.7024354 12.7411603 66 13.0389002 66.2693662 13.9014777 67.0674883 13.9305877 67.6760563 14.0194501L67.6755575 14.0194501zM58 5C60.6838384 6.65056818 63.4555556 8.21875 66 10 64.6767677 7.22632576 61.030303 5.41998106 58 5L58 5zM82 6C82.6970588 8.03814655 84.3480392 11.1413793 86 13 85.2107843 10.1074713 83.9166667 7.73541667 82 6zM53.2947254 7.31578947C56.369011 7.65460526 57.4860394 10.0679825 60 11 59.1442497 8.8185307 56.1160111 6.70778509 53.0463819 6 52.839429 6.7439693 53.3982018 6.68201754 53.2947254 7.31578947zM48 9.57551237C50.7702932 10.0121957 52.4565586 11.3700006 55 12 53.8063272 10.4608177 49.7716049 7.83245271 48.0010802 9.57551237L48 9.57551237zM27.3555556 13.2684494C29.3426852 13.11521 31.6221296 13.7102564 32 12.0743764 27.959537 11.6743619 23.8793519 12.9823694 21 13.7460786 16.88875 14.8366653 12.0125926 16.1183037 10 19 13.5006481 17.9367775 17.1515278 16.2795036 19.7777778 15.1789663 22.0811574 14.2137572 24.7456019 13.4699492 27.3555556 13.2684494L27.3555556 13.2684494zM62 13.7213049C58.3993939 11.8579038 51.6064015 13.9619725 49 15.9908621 50.059697 16.1005574 50.0557576 15.1884791 50.8909091 15.0830392 53.9340909 15.805515 58.3905303 13.2120729 62 13.7213049L62 13.7213049zM68.2767001 15C66.3730149 15.6946758 66.5854843 19.7967498 69 18.8622901 67.9200731 17.6987752 68.3570668 16.2675822 68.2767001 15L68.2767001 15zM70.8643349 15C69.3958357 15.1699399 68.8466452 16.1826021 69.0360588 17.8705386 70.4610147 18.4730527 70.9661175 19.3825549 72.9549597 18.8273848 73.0142876 17.3666993 73.4769356 16.2757949 74 15.2392115 72.5244249 15.4829083 72.3094297 16.8803024 70.8643349 17.1529039 70.6411753 16.1990479 71.256225 15.3852303 70.8643349 15L70.8643349 15zM64.4449348 16C63.6913762 16.6975417 63.704983 19.2737956 66 18.9761778 65.4298094 18.0280379 65.5464393 16.529615 64.4449348 16zM74.5230218 19.9869111C75.3842304 19.9360365 76.5435938 20.155109 77 19.7377292 76.4839629 18.1502325 76.0189561 17.6586173 76.7253536 16 74.7586787 16.1744274 73.1245611 18.2961078 74.5235951 19.9869111L74.5230218 19.9869111z"/>
        <path fill="#FFFFFF" fill-rule="nonzero" d="M64 17.7033101C62.7270833 17.806718 63.434375 15.9828867 62.25 16.0001214 61.4666667 16.048277 62.0411458 17.4189385 61.5 17.7033101 60.61875 17.5071393 60.859375 16.218089 59.75 16.2434341 59.6036458 16.7498286 59.2244792 17.0296382 59 17.4599975 59.21875 19.0618059 63.6770833 19.8181028 64 17.7033101L64 17.7033101zM56.7428305 17C56.0613504 17.7534091 55.3316926 19.6994318 57.1158185 20 57.9869009 19.5102273 58.1671784 17.4903409 57.8617945 17L56.7428305 17zM53.2587387 17.0226934C53.4135442 18.3076112 52.0767193 19.769545 54.3004204 20 54.5369689 19.0872456 55.0570864 18.3615271 54.9948748 17.251717 54.5897764 17.0599098 54.0689356 16.9496922 53.2587387 17.0226934L53.2587387 17.0226934zM12.7383592 23.25C16.3725221 22.3088542 20.0259322 20.9671875 23.1925923 20 25.6146923 19.2604167 28.6025567 19.2630208 30 17L28.7843915 17C20.4524082 20.515625 10.0579424 21.9104167 2.52724768 26.25 2.13470743 27.3510417.271787388 28.2572917 1.31163917 30 3.83352032 26.7375 7.74980574 24.5421875 12.7383592 23.25L12.7383592 23.25zM50.0144047 18L49.3198276 18C48.4511239 18.5727657 49.7167977 20.3002834 48.6252506 20.8638284 47.7714996 20.4353389 47.164227 19.7296873 47.0045707 18.5206961 44.0367007 20.8057925 48.3392199 23.1418737 50.9405075 21.3845245 51.3360305 20.3968291 49.6150229 19.8305721 50.0144047 18zM79.6098791 21C80.6370745 19.9757181 79.4657395 16.8265211 78.0666747 18.462788 77.7558905 20.215931 78.5757179 20.7233734 79.6098791 21zM46 21.9999997C45.5461207 20.9975959 45.5386987 19.6192307 44.6297983 19 43.5222185 19.9802883 43.8133864 22.0009612 46 21.9999997zM41.693349 21C40.315921 21.9092791 41.1146114 24.6519981 43 23.857309 42.9188787 22.5814412 42.6885815 21.44199 41.693349 21zM38.0110399 23C37.882141 24.7247954 38.8821972 25.2366787 41 24.904682 40.3623552 24.0158304 39.6263238 23.1966408 38.0110399 23zM77 23.6541341C77.3378449 23.7535018 77.4773555 24.1035919 78 23.9700049L78 23.0223925C77.4325872 22.9342119 77.062988 23.0987279 77.0005206 23.6541341L77 23.6541341zM85.9866663 27.0933713C84.3764855 27.286331 84.2898945 28.9196671 82.5230251 28.9644962 81.9931705 28.4314205 83.4239842 27.1396621 82.2756222 26.6255901 80.9942811 27.0509786 81.5952641 29.2563722 80.0495111 29.4322774 79.5387272 30.8565738 81.2813716 32.9586656 79.3073023 32.9406365 78.3336687 29.8888514 81.348892 27.8379231 80.544317 24.9883558 78.3630478 25.1091993 78.3310915 27.2624547 76.338467 27.5611525 76.0776631 26.3790304 76.9023395 26.2231033 76.8332729 25.2222464 74.9169309 25.0482903 75.7606781 27.483189 74.1118405 27.5611525 74.098955 26.2235906 75.0705269 25.8167184 74.8540494 24.286684L72.8748258 24.286684C72.2274548 24.8446105 72.2001374 25.9882382 71.1430052 26.1578089 70.4214133 25.5589514 71.4651445 24.5079055 70.8956023 24.0527934 69.151927 24.0415861 69.0689439 25.6003696 68.1746853 26.3916995 67.2592944 26.2435687 67.4195909 25.0780139 67.4324765 24.0527934 65.2311057 23.8681172 66.4634816 26.1085944 65.453253 26.6255901 64.8187675 26.2903469 64.1399557 25.9960345 63.9688353 25.2222464 64.3358163 25.0234394 64.5007516 24.6336217 64.4636412 24.0527934 63.2549747 23.6800302 62.2524774 25.3430899 62.4844177 27.0933713 61.9787879 26.5939174 61.5056298 27.159153 61 27.3272619 61.3731661 28.3778206 61.5489253 29.6145172 62.9792235 29.666168 63.9461567 29.4108374 63.6544274 27.9655884 64.9584471 28.0289337 64.808459 28.5434931 64.3368472 29.7719061 65.20585 29.9000586 65.8913623 28.8957908 67.7417302 26.8131898 68.9168942 27.7950431 68.3901321 28.6219439 67.0402398 28.6716456 66.6907831 29.666168 66.6263552 30.4287488 66.9840587 30.7917666 67.6803949 30.8356211 68.4298196 30.1358983 69.6534333 28.6536166 71.1440361 29.4322774 70.623459 30.3434762 68.8895767 30.1076365 69.1648125 31.7711835 70.6116043 31.9714523 71.5898768 29.7577752 72.6284537 31.0695117 72.616599 32.1493066 71.1326968 31.8379398 71.3919544 33.1745272 72.255803 33.3518942 73.2598466 32.4665208 73.8659839 33.1745272 74.0499898 33.8947153 73.187172 33.623792 73.371178 34.3439802 73.991747 34.6149035 74.1994624 35.2761317 75.1024831 35.2795426 76.2070342 34.5306054 77.0595435 33.5433921 78.5666398 33.1745272 78.8073422 34.1325041 77.9543175 34.6728889 78.5666398 35.2795426 80.2036226 35.496866 80.6700802 33.3772324 81.7823626 33.876199 81.6184581 34.5042927 80.6963668 35.1192301 81.2875567 35.7473239 82.6869296 36.2789377 82.7080619 34.2991512 83.2672957 34.8117614 82.8065077 36.8714606 81.068502 37.7236995 80.2979449 39.4895736 81.3117816 40.3866416 81.4014651 39.9680748 82.2771685 39.255683 83.9187901 37.9205574 82.9755664 37.8416194 84.0089891 35.7473239 84.6341969 34.4799291 85.4562963 34.4974709 85.4934067 33.6423084 85.5341251 32.7116187 84.7522287 32.0045868 84.7517133 31.3034023 84.7517133 29.7943206 86.1382006 28.183399 85.988728 27.0933713L85.9866663 27.0933713zM74.606131 31.302915C74.5654126 30.3288581 74.5205708 29.350903 75.1009369 28.9640089 75.8173746 29.3450557 75.9513845 31.5402165 74.606131 31.302915zM77.5749663 31.0695117C76.4513446 30.9642609 77.5218777 29.4571283 77.5749663 28.9644962L78.5645781 28.9644962C78.3429463 29.7689824 77.9615334 30.4224143 77.5749663 31.0695117zM82.7704281 32.0050741C81.4086811 31.6084346 82.5214789 30.085222 83.0173156 29.4322774 83.4167683 29.3664957 83.4430548 29.6534989 83.7595244 29.666168 83.7852956 30.7805593 82.934848 31.0690244 82.7699127 32.0050741L82.7704281 32.0050741zM37 25C37.2720238 26.0618994 37.6630952 27.0035613 39 26.9999899 38.9005952 25.7666628 38.2339286 25.0999995 37 25zM92.9908774 25.0194416C92.3482217 24.9293564 91.9347935 25.1362187 92.0084737 25.9803505 92.6531761 26.071103 93.0676276 25.8635734 92.9908774 25.0194416zM35.38271 26.0327188C35.5145652 26.708619 34.7927256 26.6425491 35.0597995 27.4359717 35.674675 27.5564176 35.8711122 28.0405398 36.6743521 27.9972728 37.4157009 27.2120359 36.8519529 25.7643467 35.38271 26.0327188zM102.929863 26.9991575C103.368102 25.9937553 101.634576 26.3384646 101 26 101.201027 26.6078208 101.716998 27.0212223 102.929863 26.9991575zM32.3154372 28C31.3169828 29.0879468 32.9120532 30.6830172 34 29.6845628 33.9865469 28.574974 33.425026 28.0134531 32.3154372 28zM103.964412 28.995862C104.123347 28.4332 103.693781 28.4796735 103.772648 28L103.003992 28C102.959955 28.7095517 103.280228 29.0415056 103.964812 28.995862L103.964412 28.995862z"/>
        <path fill="#FFFFFF" fill-rule="nonzero" d="M31.262043 29C30.7984923 29.7161484 30.7749842 31.1267858 32.6725299 30.9908374 33.4931101 30.259942 32.6784069 29.0258072 31.262043 29zM85.2176169 32C86.2531153 31.1730124 87.3870986 30.433102 89 30.1108671 88.5103893 27.4055698 83.9632006 30.2771502 85.2181797 32L85.2176169 32zM75.4926598 30C74.9389122 30.328322 74.9816973 31.1582242 75.0205482 31.9848184 76.3041016 32.1861948 76.1762381 30.32336 75.4926598 30zM77.6810905 32C78.1976634 31.3851852 78.7046192 30.7643519 79 30L77.6810905 30C77.6123973 30.4680556 76.1835787 31.899537 77.6810905 32zM116.58858 43.1696187C117.126413 43.4568973 117.961524 43.4618848 118.101235 44.127214 118.103335 45.561612 118.891176 46.2498837 119.614414 47 120.894918 44.5905505 118.687388 42.4633921 117.345433 40.5362315 114.420968 36.336777 110.365163 32.7433008 107.008961 30.002683 106.569346 29.984728 106.224797 30.0560489 106 30.2420818L106 30.9602783C110.343629 34.2574984 114.088499 38.1252858 116.58858 43.1696187L116.58858 43.1696187zM83.0954222 30.0113652C82.4913188 30.7698445 81.1375752 32.5392521 82.7949388 33 82.995052 31.9132237 84.0288654 31.5775683 83.9993817 30.2830593 83.6167201 30.2683426 83.5853544 29.9349513 83.0960495 30.0113652L83.0954222 30.0113652zM49.5232144 30C48.7790179 30.6883929 48.7556556 32.6861607 49.9309933 33 49.2203536 31.7941964 50.7083218 30.4044643 49.5236392 30L49.5232144 30zM54 32.7565571C52.4513628 32.75024 53.4657236 30.6253939 52.666046 30 51.2209291 30.6788022 52.3395051 33.9005283 54 32.7565571zM29.2236848 31.0366162C28.6901138 31.5295074 29.1374586 32.9135907 30.284931 33 31.6505485 32.711628 30.9297854 30.7063178 29.2236848 31.0366162L29.2236848 31.0366162zM89.8326343 42.9458613C90.4739418 39.0980111 94.6514811 37.202718 98 35.4052303 96.5865709 34.5391726 94.4175048 36.1491581 93.6608044 35.8917226 93.9357265 35.2613096 94.583947 34.9871509 94.6817916 34.1889994 93.6565503 34.2736288 91.7927169 34.8300544 91.364115 34.6754918 92.5776009 33.6923719 90.4824501 33.8697389 91.1088682 32.9727686 91.6103218 32.8997948 91.6151077 33.3011509 91.8746086 33.459261 91.7421994 31.4681898 94.1245028 31.8741068 95.9585574 31.7565378 93.2439013 29.5901267 89.6693827 32.6327308 87.5354131 33.9457533 86.0230758 36.4689254 85.9794711 39.8307901 86.0039323 42.9458613 87.812994 45.4376142 88.0459067 49.4324256 91.8746086 50 91.4598326 47.2112841 89.4231758 45.3991002 89.8326343 42.9458613zM48 36C47.713896 34.3291667 46.0370859 33.884375 47.1111332 32L46.2222664 32C46.3829106 32.7640625 45.9949573 32.9114583 46.0000497 33.5 46.6634592 34.3380208 46.9717848 35.5739583 48 36zM61.1428571 32C60.7738095 33.6164957 59.8239087 34.6215842 59 35.7592923 59.6046627 38.4602394 62.2738095 39.1807704 62.3333333 41.77416 63.2782738 42.3542396 63.9186508 43.4783725 65.4285714 42.7766379 65.0431548 41.5950714 63.7137897 41.4065847 63.7619048 39.7692041 67.4350198 40.4970448 70.6448413 41.7135936 74 42.7766379 71.1498016 40.5142749 67.0094246 39.608912 62.5714286 39.0173456 62.1731151 38.6006907 61.6076389 38.3610358 61.6190476 37.5136287 65.1264881 37.6645225 67.5406746 38.9666996 70.4285714 39.7692041 68.3849206 37.0750446 63.1502976 37.7397084 60.9047619 35.2580533 63.7222222 34.9024869 66.6388889 36.5591862 69 37.5136287 68.1592262 34.6053984 62.5208333 35.5259029 62.0952381 33.0024779 64.0034722 33.0823629 65.2167659 33.8937435 66.6190476 34.5061949 65.5128968 32.9126726 63.5982143 32.1712566 61.1428571 32L61.1428571 32zM26.2720423 33C25.7439505 33.7829787 26.0535461 34.3904622 26.6136651 34.9937919 27.2599014 35.0493481 27.3673702 34.7128957 27.9801559 34.7445679 28.1153816 33.6490208 27.5609564 33.0565946 26.2720423 33zM58 33.244535C57.6193476 33.2318212 57.5877298 32.9438044 57.1072646 33.0098184 56.286444 34.0279015 55.0917905 36.3584414 57.1072646 37 57.157481 36.726653 57.5778106 36.7452347 58 36.7652834 57.9566031 35.9897408 56.301323 34.3785094 58 33.244535L58 33.244535zM44.1636383 34C43.6127298 35.1414474 44.549083 37.9989035 45.5409096 39 45.0134338 37.5444079 45.6953744 36.7664474 46 35.5789474 45.1506827 35.3251096 44.7088082 34.6025219 44.1636383 34L44.1636383 34zM55.9934585 37.8446422C56.0610937 36.9571706 55.5989198 34.9456752 54.8543393 34 53.9994067 34.5975215 54.2058721 36.1497957 54 37.3320232 54.7356811 37.7084777 55.0619913 38.2771644 55.9934585 37.8446422L55.9934585 37.8446422zM24 35C24.0564815 35.7097881 24.562037 35.9986403 24.4444444 36.8708265 24.8162037 37.2380629 25.1888889 36.6863423 26 36.8708265 25.3115741 36.2675716 25.0930556 35.224759 24 35L24 35zM54 38.9908777C53.3515625 37.7598466 53.0098958 36.5377839 53.75 35.1391853 52.18125 34.3938639 52.1682292 36.8252447 52 38.0845971 52.8854167 38.1898578 52.8802083 39.1003866 54 38.9908777zM76.3278232 36C75.5542283 36.6947917 76.2535751 37.90625 77.3453762 38 78.6804284 37.7598958 77.6020626 36.5442708 77.3453762 36L76.3271161 36 76.3278232 36z"/>
        <path fill="#FFFFFF" fill-rule="nonzero" d="M106.818087 36C104.106759 38.2151422 108.731616 42.1908489 112 40.6566492 111.989204 37.6367568 110.342867 36.0133971 106.818087 36zM110.18633 39.7701304C108.171862 39.7206997 108.489794 37.6741763 107.336818 36.8874428 108.907585 36.434713 111.05592 38.1592439 110.18687 39.7701304L110.18633 39.7701304zM46.6936779 39.7647059C47.2994848 39.6897059 47.6968244 39.802451 48 40 46.7709686 38.9009804 47.6108249 37.0465686 46.6936779 36 45.3606851 36.9328431 46.2865409 38.5014706 46.6936779 39.7647059zM49.9722175 36C48.9372976 36.7333083 48.0736748 39.203446 51 38.9865646 49.8059166 38.0550409 51.4139679 36.555981 49.9729312 36L49.9722175 36zM42.9309973 40C43.3356473 39.309375 41.8043478 38.4959821 42.3647232 37 39.8212087 37.10625 41.3194756 39.9183036 42.9309973 40z"/>
        <path fill="#FFFFFF" fill-rule="nonzero" d="M103.968085,49.3254399 C107.598537,48.9781186 113.811392,47.7856654 114,45.020051 C111.663808,43.4000488 107.548582,43.063192 104.702128,44.0632979 C101.928059,42.9430995 98.8705674,43.2849394 96.1382979,43.1065449 C96.9788785,40.1017422 103.50625,42.655077 103.723404,39.0403442 C100.876441,35.408669 93.6818041,37.0854784 91.9787234,40.4754739 C92.2432846,42.009767 91.2518174,42.3162269 91,43.3457331 C91.6132314,45.6190183 91.5902926,50.9349777 94.4260417,50.9997578 C95.2620346,51.0186936 95.7208112,49.9219157 96.6276596,49.5646282 C98.3506206,48.8879247 101.016622,49.6084794 103.968085,49.3259382 L103.968085,49.3254399 Z"/>
        <path d="M107.000531,37.0743718 C108.135065,37.8732934 107.821834,39.949833 109.803153,40 C110.657903,38.3655866 108.54492,36.615367 107,37.0743718 L107.000531,37.0743718 Z"/>
        <path fill="#FFFFFF" fill-rule="nonzero" d="M79.9739919 38.2549614C78.9500085 37.5622102 77.676673 38.3551058 78.0747317 39.7416408 78.2850695 39.7968751 78.6096231 39.7483515 78.617539 39.9894207 79.8218928 40.0983406 80.0932964 39.3555172 79.9745573 38.2549614L79.9739919 38.2549614zM41 41.8611241C40.6526553 40.7178666 39.7637344 40.1712727 39.4418184 39 38.1860755 40.0091423 39.8941239 42.6288591 41 41.8611241zM11.5405405 39.0147095C8.97128378 41.9556187 5.425 43.946767 4 48 7.45912162 45.530523 9.88800676 42.0585752 13 39.2511645 12.7121622 38.9787486 12.1400338 38.9831822 11.5405405 39.0147095L11.5405405 39.0147095zM36 40.25C36.21875 41.1692708 37.2291667 41.4953125 38 42 36.9645833 40.9901042 37.7381944 40.275 38 39 36.9923611 39.1609375 36.0763889 39.3911458 36 40.25zM112.985192 42.9671681C113.017013 42.1816385 113.022145 41.4319657 112.738839 41.0548052 111.884299 40.7991595 111.791917 41.5295759 111.014363 41.3735324 110.870656 42.9419355 111.825277 43.0880188 112.985192 42.9671681L112.985192 42.9671681zM35.0337005 42C34.83736 42.76375 35.5437861 42.7741667 35.9929212 43 36.0548708 42.3479167 35.7081525 42.0375 35.0337005 42zM29.1173355 43C28.4780173 44.2055556 30.5947011 44.8069444 32 45 31.3486707 44.0708333 30.0269035 43.7101852 29.1173355 43zM45.6790028 48C45.1694197 46.4996289 45.4402611 45.2732342 46 44.0073286 43.5156154 43.8019763 43.2741988 47.9802446 45.6790028 48L45.6790028 48zM48.4059707 44C47.6471909 44.7269307 46.8847875 45.4514592 47.0145121 46.7674296 47.6725561 46.7160208 47.7819885 47.0273566 48.4059707 46.9980487 47.2855566 45.9770786 50.1873277 44.5823133 48.4059707 44L48.4059707 44zM50.4690178 47C50.9469181 45.9659091 51.6858297 45.2096591 52 44 51.1335066 44.3284091 49.080502 46.0488636 50.4690178 47zM31 46.9116696C30.3600567 45.9896873 29.1181435 45.5491072 28.011938 45 27.8270517 46.4885136 29.8334108 47.2760816 31 46.9116696zM43 49C42.469598 48.0505208 43.3512024 46.0791667 41.6182201 46 40.2493944 46.8510417 41.3512199 48.8276042 43 49zM53.0182719 46.9914288C53.8635899 47.0656627 54.0707429 46.650977 53.9805311 46.0084701 53.1385543 45.9347482 52.9314013 46.3489219 53.0182719 46.9914288zM28 48.9910115C27.612707 47.8305099 26.0203761 47.6480005 25.0016023 47 24.951629 48.515381 26.0731888 49.0799618 28 48.9910115L28 48.9910115zM23 50L23 51C23.9175 51.3883333 24.769375 51.8204167 26 52 25.91375 50.725 23.9075 50.7291667 23 50L23 50zM57.0005012 60.0042401C61.4112333 63.4082078 63.3198773 57.19802 66.3833312 54.6503676 68.0468789 53.2667769 70.1494949 52.8784183 69.9916107 51 63.1650005 51.4765758 59.7717441 55.4260707 57 60.0042401L57.0005012 60.0042401zM23 54.9611523C22.4953371 53.8025549 20.8283687 53.8445796 20.0194403 53 19.8167848 54.8911112 21.2252122 55.1129082 23 54.9611523zM101.287819 58.0281438C100.506017 59.0513775 101.400254 60.3225138 102.965605 59.9255308 103.134548 58.5928423 102.697625 57.8417933 101.287819 58.0281438zM103 64.9033093C102.291146 64.4743613 101.801042 62.6411475 101 63.0624272 101.447917 63.7334074 102.09375 65.4204434 103 64.9028301L103 64.9033093zM40.1217928 64C37.347512 66.7498977 35.4959585 75.4506157 38.6581142 78 38.5538271 72.9288345 38.9252355 68.0540158 41 64L40.1217928 64zM44 81.9995192C45.733236 81.4355769 46.6138317 77.4307692 45.5150034 76 44.7124123 77.6826923 44.21688 79.6923077 44 82L44 81.9995192zM3 85.9664503C5.8875 86.3911606 6.50364583 82.6742062 8 81 5.9 81.3202572 4.51458333 84.3109669 3 85.9664503zM44.2162109 83.0097266C44.0900128 83.3047779 43.9377047 83.5758922 43.6940118 83.7590634 44.023106 85.4747325 43.103274 87.0951734 43.6940118 88.2550843 43.0113451 89.4118731 42.3537006 93.3198728 44.2162109 94 43.8212978 91.6369871 45.0277955 86.0211239 44.9995097 83.2595055 44.6660638 83.2490981 44.6383219 82.9420781 44.2162109 83.0097266zM9.92892144 87.0019851C8.34815917 88.116129 3.41237547 95.5583127 5.51181695 97 5.4586053 94.280397 10.6636722 88.7766749 9.92892144 87L9.92892144 87.0019851zM10.1622956 95C11.9571437 93.3887931 11.7295361 90.0572557 13 88 10.1079063 88.5179598 9.69821275 92.4303161 10.1622956 95z"/>
        <path fill="#FFFFFF" fill-rule="nonzero" d="M9.53262901 89.0093277C8.64413727 90.3848885 7.87297513 91.8787456 7.42945953 93.7020725 6.11984706 105.308306 8.18455579 94.1952996 8.59788702 94.4059843 8.61005814 92.2282574 9.49222089 90.9235765 10 89.2434761 9.94839445 89.0626099 9.80380155 88.9697327 9.53262901 89.0088389L9.53262901 89.0093277zM14.4069208 92C14.1340071 92.9361607 13.5378411 94.4415179 14.6438079 95 15.1249849 94.7991071 15.1851937 92.3616071 14.4069208 92z"/>
        <path d="M54.2994869 20C54.5363511 19.087261 55.0571625 18.3615548 54.994868 17.2517634 54.5914021 17.0594823 54.0626228 16.9497437 53.2564153 17.0227437 53.4157735 18.3071626 52.0757163 19.7695489 54.2994869 20L54.2994869 20zM57.1167239 20C57.9869143 19.5102273 58.1670072 17.4903409 57.861936 17L56.7441178 17C56.0610067 17.7539773 55.3313199 19.6994318 57.1167239 20zM64 17.7033101C62.7270833 17.806718 63.434375 15.9828867 62.25 16.0001214 61.4666667 16.048277 62.0411458 17.4189385 61.5 17.7033101 60.61875 17.5071393 60.859375 16.218089 59.75 16.2434341 59.6036458 16.7498286 59.2244792 17.0296382 59 17.4599975 59.21875 19.0618059 63.6770833 19.8181028 64 17.7033101L64 17.7033101zM77.3447507 38C78.6810784 37.7598958 77.6016824 36.5442708 77.3447507 36L76.3262255 36C75.5547228 36.6947917 76.2554455 37.90625 77.3454585 38L77.3447507 38zM62 13.7213049C58.3993939 11.8579038 51.6064015 13.9619725 49 15.9908621 50.059697 16.1005574 50.0557576 15.1884791 50.8909091 15.0830392 53.9340909 15.805515 58.3905303 13.2120729 62 13.7213049L62 13.7213049zM82 6C82.6970588 8.03814655 84.3480392 11.1413793 86 13 85.2107843 10.1074713 83.9166667 7.73541667 82 6zM77 23.6541341C77.3378449 23.7535018 77.4773555 24.1035919 78 23.9700049L78 23.0223925C77.4325872 22.9342119 77.062988 23.0987279 77.0005206 23.6541341L77 23.6541341zM79.6098791 21C80.6370745 19.9757181 79.4657395 16.8265211 78.0666747 18.462788 77.7558905 20.215931 78.5757179 20.7233734 79.6098791 21zM78.0745894 39.7416408C78.2849377 39.7968751 78.6095073 39.7483515 78.6174237 39.9894207 79.8229681 40.0983406 80.0943852 39.3555172 79.9739439 38.2549614 78.9504751 37.5622102 77.6782073 38.3551058 78.0740239 39.7416408L78.0745894 39.7416408zM68.2767001 15C66.3730149 15.6946758 66.5854843 19.7967498 69 18.8622901 67.9200731 17.6987752 68.3570668 16.2675822 68.2767001 15L68.2767001 15zM74.5230218 19.9869111C75.3842304 19.9360365 76.5435938 20.155109 77 19.7377292 76.4839629 18.1502325 76.0189561 17.6586173 76.7253536 16 74.7586787 16.1744274 73.1245611 18.2961078 74.5235951 19.9869111L74.5230218 19.9869111zM70.8643349 15C69.3958357 15.1699399 68.8466452 16.1826021 69.0360588 17.8705386 70.4610147 18.4730527 70.9661175 19.3825549 72.9549597 18.8273848 73.0142876 17.3666993 73.4769356 16.2757949 74 15.2392115 72.5244249 15.4829083 72.3094297 16.8803024 70.8643349 17.1529039 70.6411753 16.1990479 71.256225 15.3852303 70.8643349 15L70.8643349 15zM112.985192 42.9671681C113.017013 42.1816385 113.022145 41.4319657 112.738839 41.0548052 111.884299 40.7991595 111.791917 41.5295759 111.014363 41.3735324 110.870656 42.9419355 111.825277 43.0880188 112.985192 42.9671681L112.985192 42.9671681zM116.58858 43.1696187C117.126413 43.4568973 117.961524 43.4618848 118.101235 44.127214 118.103335 45.561612 118.891176 46.2498837 119.614414 47 120.894918 44.5905505 118.687388 42.4633921 117.345433 40.5362315 114.420968 36.336777 110.365163 32.7433008 107.008961 30.002683 106.569346 29.984728 106.224797 30.0560489 106 30.2420818L106 30.9602783C110.343629 34.2574984 114.088499 38.1252858 116.58858 43.1696187L116.58858 43.1696187zM11.5405405 39.0147095C8.97128378 41.9556187 5.425 43.946767 4 48 7.45912162 45.530523 9.88800676 42.0585752 13 39.2511645 12.7121622 38.9787486 12.1400338 38.9831822 11.5405405 39.0147095L11.5405405 39.0147095z"/>
        <path d="M106.818087 36C104.106759 38.2151422 108.731616 42.1908489 112 40.6566492 111.989204 37.6367568 110.342867 36.0133971 106.818087 36zM86.0031793 42.9458613C87.8123545 45.4376142 88.0452818 49.4324256 91.8742241 50 91.4615492 47.2112841 89.4231692 45.3985934 89.8321216 42.9458613 90.4734694 39.0980111 94.6512709 37.202718 98 35.4052303 96.5864821 34.5391726 94.41728 36.1491581 93.6605321 35.8917226 93.9354714 35.2613096 94.5837326 34.9871509 94.6815833 34.1889994 93.6562777 34.2736288 91.7923273 34.8300544 91.3636985 34.6754918 92.5772605 33.6923719 90.4819781 33.8697389 91.1084357 32.9727686 91.6099207 32.8997948 91.6147069 33.3011509 91.8742241 33.459261 91.7418065 31.4681898 94.1242595 31.8741068 95.9584292 31.7565378 93.2436028 29.5901267 89.6688597 32.6327308 87.5347562 33.9457533 86.0244512 36.4694322 85.9819073 39.8312969 86.0031793 42.9458613zM85.9866663 27.0933713C84.3764855 27.286331 84.2898945 28.9196671 82.5230251 28.9644962 81.9931705 28.4314205 83.4239842 27.1396621 82.2756222 26.6255901 80.9942811 27.0509786 81.5952641 29.2563722 80.0495111 29.4322774 79.5387272 30.8565738 81.2813716 32.9586656 79.3073023 32.9406365 78.3336687 29.8888514 81.348892 27.8379231 80.544317 24.9883558 78.3630478 25.1091993 78.3310915 27.2624547 76.338467 27.5611525 76.0776631 26.3790304 76.9023395 26.2231033 76.8332729 25.2222464 74.9169309 25.0482903 75.7606781 27.483189 74.1118405 27.5611525 74.098955 26.2235906 75.0705269 25.8167184 74.8540494 24.286684L72.8748258 24.286684C72.2274548 24.8446105 72.2001374 25.9882382 71.1430052 26.1578089 70.4214133 25.5589514 71.4651445 24.5079055 70.8956023 24.0527934 69.151927 24.0415861 69.0689439 25.6003696 68.1746853 26.3916995 67.2592944 26.2435687 67.4195909 25.0780139 67.4324765 24.0527934 65.2311057 23.8681172 66.4634816 26.1085944 65.453253 26.6255901 64.8187675 26.2903469 64.1399557 25.9960345 63.9688353 25.2222464 64.3358163 25.0234394 64.5007516 24.6336217 64.4636412 24.0527934 63.2549747 23.6800302 62.2524774 25.3430899 62.4844177 27.0933713 61.9787879 26.5939174 61.5056298 27.159153 61 27.3272619 61.3731661 28.3778206 61.5489253 29.6145172 62.9792235 29.666168 63.9461567 29.4108374 63.6544274 27.9655884 64.9584471 28.0289337 64.808459 28.5434931 64.3368472 29.7719061 65.20585 29.9000586 65.8913623 28.8957908 67.7417302 26.8131898 68.9168942 27.7950431 68.3901321 28.6219439 67.0402398 28.6716456 66.6907831 29.666168 66.6263552 30.4287488 66.9840587 30.7917666 67.6803949 30.8356211 68.4298196 30.1358983 69.6534333 28.6536166 71.1440361 29.4322774 70.623459 30.3434762 68.8895767 30.1076365 69.1648125 31.7711835 70.6116043 31.9714523 71.5898768 29.7577752 72.6284537 31.0695117 72.616599 32.1493066 71.1326968 31.8379398 71.3919544 33.1745272 72.255803 33.3518942 73.2598466 32.4665208 73.8659839 33.1745272 74.0499898 33.8947153 73.187172 33.623792 73.371178 34.3439802 73.991747 34.6149035 74.1994624 35.2761317 75.1024831 35.2795426 76.2070342 34.5306054 77.0595435 33.5433921 78.5666398 33.1745272 78.8073422 34.1325041 77.9543175 34.6728889 78.5666398 35.2795426 80.2036226 35.496866 80.6700802 33.3772324 81.7823626 33.876199 81.6184581 34.5042927 80.6963668 35.1192301 81.2875567 35.7473239 82.6869296 36.2789377 82.7080619 34.2991512 83.2672957 34.8117614 82.8065077 36.8714606 81.068502 37.7236995 80.2979449 39.4895736 81.3117816 40.3866416 81.4014651 39.9680748 82.2771685 39.255683 83.9187901 37.9205574 82.9755664 37.8416194 84.0089891 35.7473239 84.6341969 34.4799291 85.4562963 34.4974709 85.4934067 33.6423084 85.5341251 32.7116187 84.7522287 32.0045868 84.7517133 31.3034023 84.7517133 29.7943206 86.1382006 28.183399 85.988728 27.0933713L85.9866663 27.0933713z"/>
        <path d="M85.2176169 32C86.2531153 31.1730124 87.3870986 30.433102 89 30.1108671 88.5103893 27.4055698 83.9632006 30.2771502 85.2181797 32L85.2176169 32zM103.964412 28.995862C104.123347 28.4332 103.693781 28.4796735 103.772648 28L103.003992 28C102.959955 28.7095517 103.280228 29.0415056 103.964812 28.995862L103.964412 28.995862zM102.929863 26.9991575C103.368102 25.9937553 101.634576 26.3384646 101 26 101.201027 26.6078208 101.716998 27.0212223 102.929863 26.9991575zM91.9787234 40.4748907C92.2432846 42.0092688 91.2518174 42.3157457 91 43.345309 91.6132314 45.6187201 91.5902926 50.9349741 94.4260417 50.9997578 95.2620346 51.0186946 95.7208112 49.9218559 96.6276596 49.5645487 98.3475621 48.8873093 101.017642 49.6079039 103.968085 49.3253471 107.598537 48.9780066 113.811392 47.7854873 114 45.0197197 111.663808 43.3996277 107.548582 43.0627522 104.702128 44.0629136 101.928059 42.9426531 98.8705674 43.2845119 96.1382979 43.1061075 96.9788785 40.1011383 103.50625 42.6546146 103.723404 39.0396815 100.878989 35.4088017 93.6812943 37.085704 91.9787234 40.4758873L91.9787234 40.4748907zM92.9908774 25.0194416C92.3482217 24.9293564 91.9347935 25.1362187 92.0084737 25.9803505 92.6531761 26.071103 93.0676276 25.8635734 92.9908774 25.0194416zM27.980342 34.744479C28.1148686 33.6489877 27.5603913 33.0571109 26.2720679 33 25.7439265 33.7829388 26.0535512 34.3903913 26.6137227 34.9936903 27.259308 35.0497628 27.3667869 34.7128084 27.980342 34.744479zM67.6755575 14.0194501C72.245804 14.6828534 78.6277876 12.8264477 83 15 80.946831 11.7841027 78.6347711 6.72661001 75.0980927 4.21395083 75.0357394 3.83245562 74.5728286 4.0438867 74.3802817 4.21395083 76.492811 7.36294605 80.0100352 10.3791585 81.0840082 13.7743126 75.786473 12.1078884 70.7024354 12.7411603 66 13.0389002 66.2693662 13.9014777 67.0674883 13.9305877 67.6760563 14.0194501L67.6755575 14.0194501zM24.4444444 36.8708265C24.8162037 37.2380629 25.1888889 36.6863423 26 36.8708265 25.312037 36.2675716 25.0935185 35.224759 24 35 24.0564815 35.7097881 24.562037 35.9990733 24.4444444 36.8708265L24.4444444 36.8708265zM32.6725773 30.9908347C33.493341 30.2599403 32.6777209 29.0258071 31.261775 29 30.7988555 29.7166083 30.7746073 31.1267829 32.6725773 30.9908347zM30.2846031 33C31.6506088 32.7111322 30.9300297 30.7059297 29.2236277 31.0367216 28.6901929 31.5295863 29.1374235 32.9135953 30.2846031 33z"/>
        <path d="M34 29.6845062C33.9859624 28.5755396 33.4244604 28.0140376 32.3154938 28 31.317073 29.0884951 32.9115049 30.682927 34 29.6845062zM101.287819 58.0281438C100.506017 59.0513775 101.400254 60.3225138 102.965605 59.9255308 103.134548 58.5928423 102.697625 57.8417933 101.287819 58.0281438zM92.689509 53.4654211C91.5321862 51.443478 89.1985025 50.8172435 87.8793549 49.1229929 86.527141 47.3855191 86.260105 44.7931297 84.993563 42.8505968 83.6889446 43.7261187 85.0000761 47.3322439 85.715011 48.8817469 87.4084097 52.5506966 91.4805826 55.1204692 93.4099549 57.5666032 88.3142277 56.4860221 85.8868559 50.638822 83.0692008 46.4692869 82.1298154 46.6964602 82.8647905 47.6860714 82.8292192 48.3992549 77.8487232 45.7199165 72.2449763 44.4041205 66.235916 43.8155808 70.6708169 41.8313324 76.3231613 45.3942344 80.18391 45.9867949 78.6738793 42.2741193 74.5666359 41.1674033 72.7289477 37.7844306 76.198411 39.6917819 78.2450186 43.0265053 81.6268059 45.0218108 79.9840087 41.9554736 77.4028283 39.4842098 73.9313609 36.8194466 70.131735 33.9028829 66.6532536 31.8080634 61.6672466 30.5470504 59.5605183 28.76183 60.4673383 25.9085934 62.1482119 24.2746543 60.1466948 23.0769684 60.351606 26.1674302 59.0219374 26.4458683 58.622135 25.9623711 59.0419776 24.6561245 58.5409721 24.2746543 56.9793378 25.1697775 57.5980797 26.8866449 57.0980761 28.6170824 57.3170155 29.5333146 58.0645158 28.7934935 58.7814547 28.8583284 57.9993851 30.5867555 59.2513979 31.90808 58.0600067 32.7182645 57.1882571 32.5473819 57.7283411 30.9596816 57.5790414 30.0645584 57.5174178 29.5634704 56.5224208 29.9987184 56.3766282 29.5820664 56.6276319 27.3786862 56.3315377 26.4026451 55.6551802 24.7571463 53.7739044 25.2476798 55.0539736 27.4214069 53.9718016 28.6170824 53.8991558 29.2528661 54.3049703 29.4086709 54.9337322 29.3408204 54.4537689 30.602336 55.0279213 31.4562463 55.1742149 32.7182645 53.3445427 32.24884 55.2012692 29.5388432 53.009871 29.5820664 53.5153856 27.7078865 52.3916302 26.4297853 52.7693884 24.9983923 51.5865143 24.5314808 51.0724826 26.6177561 50.8455271 27.8933444 49.0955148 28.200933 49.8134557 26.0332371 48.9216659 25.4808843 47.3279673 25.6698604 48.9447121 27.9028937 47.9597353 28.3758364 46.6065193 28.3657845 46.9446981 26.6599742 45.7953914 26.4458683 44.7512958 27.112813 45.9712443 27.9194794 46.035874 28.8583284 45.0934826 29.3006127 44.2162219 27.8616808 43.3905648 27.4108524 42.5368514 28.5215892 44.3179261 29.8449241 43.6310475 30.7882965 42.3364492 30.720446 41.7162043 29.9750964 41.4667036 28.8583284 39.5924419 29.0382577 41.3349391 31.3642713 40.504773 32.4770185 39.2697943 32.3488566 38.516282 31.7371974 38.0999464 30.7882965 36.8890161 31.7407156 38.3088657 32.9972052 38.3404291 34.1657405 36.6174711 34.4466916 36.9331046 32.6820776 35.6951199 32.4770185 34.1966123 33.7023472 36.2672682 34.9729095 35.9356025 36.5782006 34.0693569 36.7616481 33.9626428 35.179979 32.809328 34.6482326 31.9706448 35.6524191 33.2111345 37.6758699 32.5688454 38.5081687 31.1354686 38.7398653 30.6099138 38.0603558 29.9235362 37.5431846 29.0317463 38.2161605 29.6970817 39.7294766 30.1640188 40.4381367 29.094873 41.3377833 28.4350488 39.7691816 27.7591923 39.4731527 26.3789221 40.2647411 27.737148 41.7182483 27.0377443 43.0918428 25.8924457 43.1958801 25.6945485 42.3485035 24.8734004 42.1268588 23.7531521 42.9491056 24.8974487 44.3337571 25.1138831 45.2630568 24.0126729 45.1615325 23.569784 44.3995972 22.4685739 44.2980728 22.3994351 46.7205848 24.7952436 48.7033254 26.0758137 50.570469 24.4270045 50.3744566 23.4465367 49.5089866 23.4305045 47.6755169 22.5156684 47.5478576 21.848329 47.1719159 21.025678 46.9517789 19.6128424 48.0961896 21.932498 49.0727334 21.5066433 49.846731 20.5502237 49.9211151 20.2987189 49.2893522 19.3422994 49.364239 18.4645377 50.1337132 19.3027199 50.9117316 19.3422994 52.017945 18.6634369 51.9933178 18.3207491 51.1087491 17.6589208 51.776699 17.3057119 53.0960131 18.2726526 53.0914898 18.6208514 53.7066671 17.2460922 55.6733246 19.4254663 56.4629027 20.30423 57.5666032 18.0116287 58.7512216 18.1719505 54.3072691 15.7350596 55.6366351 16.1098117 57.6731535 17.6038102 58.5863701 18.8613341 59.7378172 16.7330626 60.0232917 16.7150264 58.1918324 15.0136116 58.0490952 14.1113006 60.3615387 17.3758527 60.4746227 18.3803688 61.6677853 16.2946827 61.4627262 15.2500862 61.5496753 14.051681 60.7028013 13.6358464 61.2506307 13.4715166 62.0507633 13.5707157 63.1152613 13.7580917 64.264698 14.6578977 63.2002 15.2540943 63.8384967 15.414917 64.8843987 14.1378539 64.4883532 13.330233 64.5622348 12.9128954 65.9458811 14.3477753 65.4719332 14.2921636 66.4922028 13.9189145 66.8410043 13.1699113 66.8143667 12.8492677 67.2159408 12.7961611 68.2342 14.0987755 67.8924348 14.5326463 68.4216683 14.1508801 69.5324051 12.787644 68.1588106 12.3683024 69.1454063 12.5080829 69.8892481 13.237547 70.0420373 13.8111983 70.3511337 13.7661078 71.0296381 13.0266237 71.0115447 12.8492677 71.5573638 13.3457642 74.8021225 12.8262215 78.0036581 12.3683024 80.965958 9.28110633 82.5325493 6.4784814 85.0867414 4.67285746 88.9275788 4.30762443 89.704592 4.2595279 90.7449654 3.9514095 91.5807823 3.9514095 91.5807823 3 94.8984175 3 96.5027034 3 98.1069894 3.17434992 99.7715868 4.59570261 102.5429 6.0170553 105.313711 6.01755631 103.855178 6.64932428 102.980159 7.28059125 102.105139 7.75554449 99.9173396 7.75554449 99.9173396 7.75554449 99.9173396 7.75554449 99.9173396 8.22949572 98.3130537 8.70344695 96.7087677 11.8622868 95.9795011 11.8622868 95.9795011 11.8622868 95.9795011 11.8988602 96.0001076 11.9514658 96.0327763 12.8547788 95.8779768 13.9344457 95.900091 14.77363 95.6819644 15.2946757 94.757188 14.5441694 92.5568234 15.9760432 92.5457663 15.8322546 93.815826 16.1544012 94.6184716 16.2165259 95.6819644 16.5496946 96.2152186 18.0216488 96.4046972 18.3808698 96.1644564 18.2065198 93.766069 16.9044065 92.4995275 16.4570085 90.3745523 19.218551 91.3837647 18.3753587 96.0091543 20.7856963 97.3706864 20.8257768 94.5948496 18.7295696 91.8748009 17.8999045 89.1683222 21.2325933 91.0279269 21.4730759 99.1780211 24.3929361 101.471869 24.380912 101.48192 24.3703909 101.486946 24.3583668 101.495993L24.8734004 101.955868 25.1138831 101.713115C25.2170902 97.8994173 21.8984296 95.4588118 21.2661606 91.5807823 24.1269022 93.9374542 25.0382313 98.2507318 27.0377443 101.472371 27.0377443 101.472371 27.6665063 102.826867 27.8173089 102.865064 27.9681116 102.903262 28.2401576 101.713617 28.2401576 101.713617 29.2947742 98.2477162 24.746646 95.1461972 24.1519525 92.5462689 27.0502695 94.5878132 28.5357509 98.0451701 30.2797511 101.24369L30.3088094 101.237156C30.3088094 101.237156 32.1960973 105.667539 32.4982036 105.705736 32.8003099 105.743933 32.8003099 105.743431 32.8003099 105.743431 32.8003099 105.743431 32.6114308 102.221742 32.4982036 101.46433 32.4946966 101.440708 32.4956986 101.418091 32.4946966 101.394971 31.632466 97.6571661 29.0182192 93.8992569 26.7977627 90.8575469L27.5192106 90.8575469C29.0482795 92.8679303 31.990685 95.7196591 33.0503117 98.8186651 33.1785691 99.1936016 33.5913977 100.040476 33.5848846 100.723001 33.7948059 102.316732 34.4300809 107.187389 34.4611433 108.166445 34.4987187 109.340509 35.1780822 109.189228 35.253734 108.242337 35.3293858 107.295447 35.9857031 102.833903 35.6951199 101.713617 34.6600425 97.6536479 32.0638318 92.1733428 28.9616056 88.6863328 27.3754221 86.9036253 25.2316194 85.7969093 23.9114698 83.3789207 22.6910203 81.1438769 20.7917084 78.6565301 20.30423 76.1415405 18.3863808 66.2439205 23.5261966 59.1739047 29.4425709 55.1531379 29.1880601 57.7927713 26.4841332 57.974711 26.0758137 60.4605501 26.2341315 61.1832829 26.5898454 60.2298586 27.0377443 60.4605501 26.2506646 62.2447653 24.7170867 63.2791076 24.1519525 65.2859728 24.4941393 65.7684648 25.7160917 65.1015201 25.8353311 64.5622348 26.3869381 65.0105503 26.1835299 65.693578 27.278227 66.0097108 26.9124929 67.0098765 26.6695053 68.1336808 26.7972617 69.6284009 31.2136254 67.8260922 29.2201244 60.5052811 32.0878801 56.8423626 31.903009 55.9331667 32.3814693 55.6894077 32.3283627 54.9123945 33.5778705 52.6275938 36.4135618 51.9340115 38.5809117 50.5699664 38.333916 49.5878941 36.9526438 47.4955876 38.8213944 47.1925223 38.5538574 49.0692152 39.9691981 49.2576886 40.7452556 50.0874744 44.4341593 49.1194748 49.1290822 49.9537839 53.4908363 48.6399983 54.6952536 48.2771241 55.2934542 47.0693863 56.6171108 47.6750143 55.81951 50.2523258 51.5253916 49.3225235 51.3264924 52.4999344 52.9001508 53.2844866 53.3595729 51.052961 55.4146976 51.5349504 53.9923429 52.6004536 51.9462363 53.0412302 51.3264924 54.9123945 52.738326 54.7209055 53.1406334 53.5156806 54.6932496 53.4649185 53.91118 54.6103344 52.0820088 54.705325 51.8074577 56.3598705 53.0389293 57.342948 53.4387317 55.431576 54.4527669 55.3948865 54.5199017 56.8292951 53.0564645 56.7282733 52.7693884 57.8073466 55.64015 60.035354 57.5209248 56.1226453 59.7433853 54.1891591 61.1952994 52.9251305 63.341106 52.3225181 64.5530384 51.535453 65.0540439 51.2097709 66.6362194 50.030681 67.9197956 49.846731 70.7970703 49.4335972 74.0951897 50.1332106 76.3371895 50.570469 78.6042395 51.0127533 82.0446445 51.5927489 84.0321334 52.982929 86.2911674 54.5625878 87.6584115 57.7435169 90.2846824 59.2553252 92.1774813 60.344953 94.1474351 60.7083298 95.8157835 61.9085287 98.7556839 64.0254624 100.639966 67.3802897 103.751711 68.4221709 105.156531 63.5324159 100.197578 60.9073578 98.941557 57.0836086 95.3343172 57.3148027 94.0968335 55.9175862 92.689008 53.4548665L92.689509 53.4654211z"/>
        <path d="M4 91.9991304C3.67608518 91.646087 3.33947584 91.32 3 91L4 92 4 91.9991304zM8 81C5.90052083 81.3207585 4.51510417 84.3100698 3 85.9665828 5.88802083 86.390319 6.50364583 82.6752363 8 81zM57.0005012 60.0042401C61.4112333 63.4082078 63.3198773 57.19802 66.3833312 54.6503676 68.0468789 53.2667769 70.1494949 52.8784183 69.9916107 51 63.1650005 51.4765758 59.7717441 55.4260707 57 60.0042401L57.0005012 60.0042401zM58 5C60.6838384 6.65056818 63.4555556 8.21875 66 10 64.6767677 7.22632576 61.030303 5.41998106 58 5L58 5zM48 9.57551237C50.7702932 10.0121957 52.4565586 11.3700006 55 12 53.8063272 10.4608177 49.7716049 7.83245271 48.0010802 9.57551237L48 9.57551237zM35.0597995 27.4359341C35.674675 27.556388 35.8711122 28.0405425 36.6743521 27.9972727 37.4157009 27.2125681 36.8519529 25.7647824 35.38271 26.0325877 35.5145652 26.7085329 34.7927256 26.6424586 35.0597995 27.4359341zM50.9404118 21.3847168C51.3364357 20.3964229 49.6139005 19.8306761 50.0142657 18L49.3196562 18C48.4509119 18.5727982 49.7166448 20.3004141 48.6250466 20.8639911 47.7712557 20.4354773 47.1639547 19.7297855 47.004291 18.5207257 44.0367647 20.8059519 48.3399673 23.1416235 50.9404118 21.3847168zM64.4449348 16C63.6913762 16.6975417 63.704983 19.2737956 66 18.9761778 65.4298094 18.0280379 65.5464393 16.529615 64.4449348 16zM53.2947254 7.31578947C56.369011 7.65460526 57.4860394 10.0679825 60 11 59.1442497 8.8185307 56.1160111 6.70778509 53.0463819 6 52.839429 6.7439693 53.3982018 6.68201754 53.2947254 7.31578947zM46 21.9999997C45.5461207 20.9975959 45.5386987 19.6192307 44.6297983 19 43.5222185 19.9802883 43.8133864 22.0009612 46 21.9999997zM41 24.9046455C40.3623552 24.015811 39.6263238 23.196637 38.0110399 23 37.882141 24.7252032 38.8821972 25.2366358 41 24.9046455zM39 26.999993C38.9 25.7660687 38.2333333 25.0994044 37 25 37.2714286 26.0613058 37.6630952 27.0029691 39 26.999993zM43 23.8572899C42.9194232 22.5814306 42.6891259 21.441987 41.693349 21 40.315921 21.9097691 41.1146114 24.6519737 43 23.8572899z"/>
        <path fill="#FFFFFF" fill-rule="nonzero" d="M123.999497,49.2690164 C122.931995,48.7562876 122.320342,46.6711231 121.104576,47.0931926 C122.470114,48.7240531 123.889933,50.1398496 122.310793,52.4118731 C117.33967,53.3486861 111.802126,55.0631547 107.112454,57.005279 C106.484718,57.8826598 104.951314,58.9529435 103.493801,58.2135663 C103.870242,57.3825225 104.060221,56.3636124 103.976288,55.0712133 C105.583573,54.2623307 107.39692,52.3771203 109.524888,52.8953895 C109.696774,54.3570193 108.257355,54.2034021 107.836687,55.0712133 C111.812681,53.0122393 117.74325,52.911003 121.346322,50.4778075 C120.374311,48.5779909 118.328265,49.6769834 115.315235,49.2690164 C109.992298,50.7850418 105.218692,52.8510672 100.840626,55.3129715 C99.4891596,54.6425962 96.423357,56.147541 95.5327665,54.5882006 C95.7312897,49.0292729 100.257621,49.9736409 105.906236,49.5107746 C111.051759,49.0897124 114.808623,46.8539527 120.381348,47.576709 C120.123016,46.6736414 120.979933,46.8876981 120.863835,46.1261598 C114.180888,32.1127462 101.981506,23.6280405 89.7434255,15.1811096 C89.6720576,13.5180146 88.315063,12.2694342 88.7784515,10.8294619 C85.4814573,8.08903191 84.8552294,2.6726408 80.0936862,1.40089192 C79.9831162,2.47772325 80.6651317,4.00382192 79.3699557,4.54374858 C76.9102774,5.56870263 74.3877752,1.31778753 72.3738947,1.15913371 C70.9309571,1.04530589 69.5503408,2.47470127 68.031512,2.36792473 C64.860668,2.14530572 62.1084819,-1.46495014 59.8292336,0.675617302 C65.7472378,2.23999435 70.7540452,6.00537839 73.0976252,10.3459455 C69.5412941,7.30180676 66.0955331,4.14635853 61.7586789,1.88440832 C59.7930471,3.45835497 57.3077366,3.36668832 55.2451048,3.09319935 C54.2580169,5.09274117 51.637007,5.24736568 49.4552613,4.30199037 C48.638049,4.81774121 49.9784581,5.61856526 49.4552613,5.7525396 C48.6646863,5.7389407 48.5335101,5.0650397 47.5253134,5.26902319 C46.7171477,5.84370259 48.3641371,6.65913287 47.5253134,7.20308883 C46.4718835,7.37231957 46.1663084,6.79209988 45.1128786,6.96133062 C44.3358735,8.50656848 42.9823971,8.78559774 42.4592003,10.1041873 C41.5771538,10.2472276 40.5543819,9.288757 40.5292524,10.5877037 C42.5260448,12.0518518 46.2919561,11.7431064 47.7665569,13.7305604 C44.7555367,13.1221355 42.1179413,12.1384818 39.323035,11.3129783 C38.9787604,12.6250202 40.4412991,12.1263939 40.0467654,13.4888021 L38.3580611,13.4888021 C37.4051493,15.5966315 34.0719685,15.3186096 33.5331914,17.8404498 C34.1629374,17.9346348 34.8565124,17.9648546 35.2218958,18.3239662 C35.4093621,21.0835354 32.4692071,22.1029492 30.8795131,22.9173721 C22.3399964,27.2921883 10.2451539,31.7329843 4.82521697,38.6316554 C3.68634669,40.0806937 2.78620695,42.2817007 2.65402562,44.4338523 C5.47154847,42.502305 7.77391595,38.7671408 10.856304,37.9063808 C9.0851748,40.6835782 4.86894235,43.2779459 2.89526911,46.367918 C1.05629014,49.2468553 2.70629505,52.3212138 2.41278214,56.0382462 C4.91920141,51.2161773 9.01229916,46.6958025 13.0274954,44.1920941 C10.5914388,49.2534029 2.90532092,51.6045014 4.10148652,58.6970827 C5.71329454,55.6383378 7.78849108,51.7556003 10.3738171,50.4778075 C8.54287955,54.3650779 5.26749669,56.8038138 4.10148652,61.3569267 C5.75149142,60.912696 6.3028333,58.0871469 7.47889528,57.9723118 C7.0506881,60.3012492 5.50874017,61.4344908 5.7901909,63.5327505 C6.12441364,66.0208454 7.27283314,67.1178232 7.72013876,69.3349474 C9.45558406,77.9365029 4.04670415,79.1533525 0.735637346,87.4496882 C0.239077844,87.7574263 -0.0167407654,89.3031678 0.000849905216,90.126153 C0.000849905216,90.126153 0.786901586,99.0984044 2.84702041,103.045107 C4.90663664,106.991306 6.33349133,108.45344 7.75934083,105.53018 C8.99470849,102.997763 9.63651668,98.9352176 11.0221589,97.7979467 C15.2378888,97.3804101 20.3155615,97.0207948 21.7127633,101.24703 C22.6686906,101.088377 23.0833279,102.194924 23.7990169,102.279539 C25.4304259,103.744191 30.6387722,113.543457 33.874953,112.976333 C36.7286624,112.476195 36.940253,104.530913 36.9437711,102.333431 C37.017652,102.369191 37.0880146,102.409484 37.1518436,102.455821 C36.2114967,97.9389723 34.7484555,94.5946505 32.0857305,91.0926822 C26.9196018,84.2992766 18.7525048,80.0841216 22.1947477,69.0926855 C23.9392397,69.2291782 23.6090376,67.2865503 24.848426,66.9168617 C25.6239233,68.0601765 24.0483018,68.6041325 24.1246956,69.8179602 C24.9132602,69.8693338 25.0997213,68.0737754 25.8134,68.8509273 C25.6691565,70.4465315 26.1491305,71.415579 26.7783739,72.2360459 C31.822373,69.2316965 31.1262851,60.4755165 34.0156784,55.3124679 C37.8836155,51.8150325 45.0636247,51.9097212 50.4202352,50.4773038 C50.4780331,50.8223129 50.8172818,50.8852708 50.9027222,51.2025784 C48.455106,55.1361859 49.6336809,60.4961667 55.0038614,60.3893902 C59.4749072,66.4358636 63.0814973,60.507751 66.1015642,57.2465335 C67.5892323,55.6398488 69.9654806,53.7823399 71.6501643,52.8948858 C75.3361636,50.9532653 80.819427,53.6886586 84.1948254,54.5871933 C87.5933429,59.9914965 95.1120981,63.2945179 100.357636,67.3998744 C101.902097,68.6086655 102.47505,70.9048648 105.183008,70.3009729 C106.825977,66.6126493 104.253216,63.687375 103.25306,61.1146648 C108.006562,56.8521654 114.916178,54.7508837 122.311296,53.136644 C122.914404,51.88756 123.633109,50.7543184 124,49.2690164 L123.999497,49.2690164 Z M3.86024304,48.7855 C5.27352777,44.6413615 8.79065671,42.6055559 11.338791,39.5986882 C11.9333557,39.5669575 12.5007804,39.5619209 12.7862519,39.8404464 C9.6993405,42.7108215 7.2909264,46.2606378 3.86024304,48.7855 L3.86024304,48.7855 Z M105.906236,30.1701183 C106.121345,29.982252 106.451044,29.9102282 106.871713,29.9283601 C110.083267,32.6964915 113.963769,36.3248792 116.762696,40.5657211 C118.047317,42.5118746 120.159203,44.659997 118.933887,47.0931926 C118.24182,46.3356835 117.487934,45.6411324 117.485923,44.1920941 C117.352234,43.5202078 116.553618,43.5151712 116.038462,43.2250613 C113.643618,38.1305108 110.062158,34.2251085 105.906236,30.8953929 L105.906236,30.1701183 Z M111.454836,41.2909957 C112.216764,41.4093565 112.306727,40.8553272 113.143541,41.0492375 C113.421473,41.3348144 113.416447,41.9039535 113.384784,42.4997867 C112.248929,42.5914534 111.314111,42.4806475 111.454836,41.2909957 L111.454836,41.2909957 Z M106.87121,35.9723152 C110.153629,35.9869214 111.684018,37.7567929 111.69608,41.0492375 C108.655407,42.7219021 104.348205,38.3873789 106.87121,35.9723152 Z M104.700019,27.9947981 C104.601511,28.5770324 105.140791,28.5201185 104.94076,29.2035891 C104.081832,29.258992 103.679257,28.8560617 103.735045,27.9947981 L104.700019,27.9947981 Z M103.011314,27.5112817 C102.100118,27.5384795 101.714128,27.0383422 101.563854,26.3024907 C102.041315,26.7114649 103.343024,26.2949357 103.011314,27.5112817 Z M103.976288,38.8739173 C103.762185,42.5269845 97.3270149,39.9462157 96.4977404,42.9838068 C99.1911234,43.1641181 102.205662,42.819109 104.941262,43.9508396 C107.747728,42.9399881 111.805142,43.2799606 114.108515,44.9178724 C113.922556,47.712698 107.796982,48.9179634 104.217532,49.2695201 C101.308538,49.555097 98.675968,48.8268004 96.9802273,49.5112783 C96.0861187,49.8724046 95.6332846,50.9809667 94.8095386,50.9618275 C92.0141297,50.8963513 92.0362437,45.5232752 91.4316272,43.225565 C91.679907,42.1849974 92.6569431,41.8752447 92.3966012,40.3244665 C94.0752537,36.899055 101.171833,35.2042292 103.976288,38.8749246 L103.976288,38.8739173 Z M93.1203316,25.093196 C93.1932073,25.7303296 92.7861089,25.8869687 92.1553577,25.8184706 C92.084995,25.1818406 92.4920934,25.0252015 93.1203316,25.093196 Z M95.5327665,31.6206675 C93.7998341,31.7375173 91.5477257,31.3340833 91.6728707,33.3129749 C91.4276065,33.1558321 91.4230832,32.7569311 90.9491403,32.8294585 C90.3570886,33.7209419 92.3377981,33.5446599 91.1903838,34.5217659 C91.5959744,34.6753831 93.3575544,34.1228649 94.3260464,34.0382495 C94.2335698,34.8315186 93.6209119,35.1040003 93.3610725,35.730557 C94.0762589,35.9864177 96.1263259,34.3862806 97.4622117,35.2470406 C94.2973988,37.033533 90.3490471,38.9172323 89.7429229,42.7415449 C89.3559281,45.1792735 91.2823578,46.9808758 91.6728707,49.7525328 C88.0542185,49.1884304 87.8340838,45.2185592 86.1242706,42.7415449 C86.1011515,39.6460326 86.1423639,36.304229 87.5717315,33.7964913 C89.5871198,32.4920044 92.9695545,29.4675085 95.5327665,31.6206675 L95.5327665,31.6206675 Z M89.2604359,30.6536347 C87.8205139,30.9840376 86.8072912,31.7415466 85.8825246,32.5877003 C84.7617475,30.8243764 88.8226795,27.8844959 89.2599333,30.6536347 L89.2604359,30.6536347 Z M85.4005402,34.5222696 C85.3643537,35.406198 84.5627217,35.3880662 83.9530793,36.6980935 C82.9453852,38.8628367 83.8646233,38.9444301 82.2643749,40.3244665 C81.4104735,41.0608217 81.3230227,41.4934682 80.334427,40.5662247 C81.0858,38.7404466 82.7805354,37.8595402 83.2298514,35.7310606 C82.6845406,35.2012072 82.6639344,37.2475897 81.299401,36.6980935 C80.7229296,36.0488719 81.6220641,35.4132493 81.7818879,34.7640278 C80.6972975,34.248277 80.242453,36.4392107 78.6462253,36.214577 C78.0491476,35.5875167 78.8809351,35.0289545 78.6462253,34.0387532 C77.1766504,34.4195224 76.3453655,35.4404471 75.2683139,36.214577 C74.3877752,36.2110514 74.1852312,35.5275808 73.5801121,35.2475442 C73.4006873,34.5031304 74.2420239,34.783167 74.0625991,34.0387532 C73.4715526,33.306931 72.4925061,34.2220865 71.6501643,34.0387532 C71.3973612,32.6572058 72.8443195,32.9790464 72.8558791,31.8629294 C71.843159,30.5070688 70.8892421,32.7952094 69.4784703,32.588204 C69.210087,30.8686987 70.9008017,31.1124716 71.4084182,30.1706219 C69.9549262,29.3657686 68.7617761,30.8979112 68.0310094,31.6211712 C67.3520095,31.5758415 67.0032117,31.2006126 67.0660355,30.4123801 C67.4072945,29.3844041 68.7230767,29.3330305 69.2367243,28.4783145 C68.0913203,27.46293 66.2865175,29.616089 65.618072,30.6541383 C64.7707043,30.521675 65.2305747,29.2519408 65.3768285,28.7200727 C64.1052743,28.6545965 64.3897406,30.1484608 63.4468807,30.4123801 C62.0521918,30.3594955 61.8803058,29.0806954 61.5169328,27.9947981 C62.0099742,27.8210344 62.4713523,27.2367854 62.9643937,27.7530399 C62.7382279,25.9438827 63.7157666,24.2248811 64.8943416,24.6101832 C64.9305281,25.2105494 64.7696991,25.6134798 64.4118546,25.8189742 C64.5787147,26.6192946 65.2401239,26.9230034 65.8593155,27.2695235 C66.844393,26.7346334 65.642699,24.4187913 67.7892634,24.6101832 C67.7772012,25.66989 67.6203929,26.8746517 68.5129938,27.0277653 C69.3849885,26.209313 69.4659056,24.5980953 71.1661695,24.6101832 C71.7215321,25.0811081 70.7037862,26.1670053 71.407413,26.7860071 C72.4387289,26.6102287 72.4648636,25.4286355 73.0961174,24.8519414 L75.0260652,24.8519414 C75.2371533,26.433443 74.2892674,26.8540016 74.3023348,28.2365563 C75.9101221,28.1554666 75.0873813,25.6386629 76.9560131,25.8189742 C77.0233602,26.8534979 76.2192153,27.01467 76.4735261,28.2365563 C78.4165414,27.9273073 78.447702,25.7021244 80.5746653,25.577216 C81.3592093,28.5231405 78.4190543,30.6425541 79.3684479,33.796995 C81.2933699,33.8156305 79.5941111,31.6428287 80.0921784,30.1706219 C81.5994476,29.9887996 81.0134269,27.7092212 82.2628671,27.2695235 C83.3831416,27.8008879 81.9874475,29.1360983 82.5041106,29.6871055 C84.2269912,29.6407685 84.3114264,27.9524904 85.8815194,27.7530399 C86.0262655,28.8797338 84.672789,30.5448435 84.6758046,32.1046876 C84.6758046,32.8289549 85.4397422,33.5597698 85.399535,34.5222696 L85.4005402,34.5222696 Z M79.1282096,39.5991919 C79.1211734,39.3639813 78.8326864,39.4113256 78.6457227,39.3574337 C78.2918989,38.0045951 79.4242355,37.2309688 80.3339245,37.9068845 C80.4394685,38.9806938 80.198225,39.7054648 79.127707,39.5991919 L79.1282096,39.5991919 Z M77.1982618,37.6646226 C76.4217593,37.5739633 75.9251998,36.4024433 76.4750339,35.730557 L77.1982618,35.730557 C77.3791944,36.2568847 78.148158,37.432434 77.1982618,37.6646226 Z M50.6614787,15.6651297 C49.8085824,15.7774465 49.8131058,16.7490123 48.7315308,16.6321625 C51.3917428,14.4709449 58.3254826,12.2296448 61.9999224,14.2145804 C58.3159333,13.6721355 53.7674885,16.4347266 50.6614787,15.6651297 L50.6614787,15.6651297 Z M57.1750527,19.2909991 C56.0211047,19.0245614 56.4930373,17.2995158 56.9338092,16.6316588 L57.6575397,16.6316588 C57.85355,17.0663199 57.7379542,18.8568416 57.1750527,19.2909991 Z M52.83267,17.1151752 C53.3920533,17.0381148 53.7589445,17.1539573 54.0388874,17.3569334 C54.0821102,18.5284534 53.7207476,19.2945247 53.5564005,20.2580319 C52.0134474,20.0152663 52.9432399,18.4715395 52.83267,17.1151752 L52.83267,17.1151752 Z M59.3462441,16.6316588 C60.416762,16.6064757 60.1840626,17.8872905 61.0349484,18.082208 C61.5571401,17.7996531 61.0027826,16.4377486 61.7586789,16.3899006 C62.9015699,16.3727761 62.2190519,18.1849553 63.4473833,18.082208 C63.1332641,20.1834898 58.8341042,19.431521 58.6225136,17.8404498 C58.8386276,17.4133437 59.2055187,17.1348181 59.3462441,16.6316588 L59.3462441,16.6316588 Z M68.9959834,19.0492409 C66.5795278,19.9266217 66.3674346,16.0751113 68.2722529,15.4228678 C68.3526674,16.6135269 67.9154136,17.9572996 68.9959834,19.0492409 Z M71.1671747,17.5986916 C72.5010501,17.323188 72.700076,15.9109172 74.0625991,15.664626 C73.5796095,16.7122449 73.1524075,17.814763 73.0976252,19.2909991 C71.2611591,19.8520796 70.7947551,18.9333984 69.4789729,18.3239662 C69.3040714,16.6180599 69.8111853,15.5951205 71.1671747,15.4228678 C71.5290399,15.8127029 70.9611126,16.6351844 71.1671747,17.5986916 L71.1671747,17.5986916 Z M76.9570183,19.7745155 C76.5569562,20.1794605 75.540718,19.9669147 74.7858269,20.0162737 C73.5600085,18.3758435 74.9888735,16.3173731 76.7162774,16.1481424 C76.098091,17.7573454 76.5051893,18.2343142 76.9575209,19.7745155 L76.9570183,19.7745155 Z M78.1632357,22.6756139 L78.1632357,23.4008885 C77.6586347,23.5031321 77.5244431,23.2351834 77.1977592,23.1591303 C77.2580701,22.7340388 77.6149094,22.6081231 78.1627331,22.6756139 L78.1632357,22.6756139 Z M78.1632357,18.8074826 C79.4754997,17.4042777 80.5741628,20.105422 79.6106966,20.9833065 C78.6406968,20.7465849 77.8717332,20.3114201 78.1632357,18.8074826 Z M86.6067576,12.7635275 C84.9130273,10.9019894 83.2203022,7.79388544 82.5056184,5.7525396 C84.4707476,7.49068036 85.7975867,9.86645838 86.6067576,12.7635275 Z M81.299401,13.9723186 C80.2173234,10.6244711 76.6735572,7.64933418 74.5450861,4.54374858 C74.7395886,4.37602882 75.2054901,4.16751237 75.2683139,4.54374858 C78.8316812,7.02177017 81.1611886,12.0095441 83.2298514,15.1811096 C78.8246449,13.0375202 72.3945009,14.8683349 67.7897659,14.2140768 C67.1761028,14.1269431 66.3734657,14.0977306 66.1015642,13.2470439 C70.8409934,12.9534085 75.9623915,12.3288664 81.2999036,13.9723186 L81.299401,13.9723186 Z M64.8948442,16.1486461 C65.7462326,16.6649006 65.6557663,18.1260267 66.1010616,19.0497445 C64.3218909,19.3398544 64.3118391,16.8280873 64.8948442,16.1486461 Z M65.8598181,10.1046909 C63.3277667,8.20991102 60.5695495,6.5417794 57.8987832,4.78601044 C60.9143267,5.2322558 64.5430307,7.15372986 65.8598181,10.1046909 Z M53.0739135,6.23605601 C56.0557835,6.88678851 58.9974462,8.82589077 59.828731,10.8294619 C57.3866433,9.97273126 56.3015503,7.75611072 53.315157,7.44484703 C53.4156751,6.86261269 52.8728773,6.9195266 53.0739135,6.23605601 L53.0739135,6.23605601 Z M54.2801309,12.0382529 C51.9139344,11.3472274 50.344344,9.85789611 47.7665569,9.37891267 C49.415054,7.46751186 53.1694057,10.3504785 54.2801309,12.0382529 Z M47.2850751,18.5657244 C47.4514326,19.6883891 48.0841941,20.3436546 48.9737795,20.7415483 C50.111142,20.2177388 48.7923443,18.6135724 49.6975099,18.082208 L50.4212404,18.082208 C50.0040902,19.7820704 51.7988412,20.3073908 51.3862143,21.2250647 C48.6767484,22.8569326 44.1931378,20.68816 47.2860803,18.5657244 L47.2850751,18.5657244 Z M44.1484072,19.5327573 C44.949034,20.1814751 44.9550651,21.6254767 45.3546246,22.6756139 C43.4302053,22.6766212 43.1738841,20.559726 44.1484072,19.5327573 Z M41.4952315,20.9838102 C42.4144697,21.4325738 42.6270655,22.5894876 42.7014489,23.8849086 C40.9604751,24.691273 40.2231747,21.9070243 41.4952315,20.9838102 Z M38.3590662,22.6756139 C39.6627862,22.9002476 40.2568483,23.8360533 40.7715011,24.8514378 C39.0621905,25.2306959 38.25503,24.646447 38.3590662,22.6756139 Z M38.3590662,26.3024907 C37.2302478,26.305009 36.8995432,25.5082142 36.6703619,24.6101832 C37.7117296,24.6942949 38.274631,25.2583974 38.3590662,26.3024907 Z M34.740414,26.3024907 C35.8380718,26.071813 36.2592428,27.3188824 35.7053879,27.9947981 C35.1052948,28.0320691 34.9585383,27.6150362 34.4991705,27.5112817 C34.2996421,26.8278111 34.8389218,26.884725 34.740414,26.3024907 Z M32.3274766,27.7530399 C33.2803883,27.7651278 33.7628753,28.2486442 33.7749375,29.2035891 C32.840119,30.0628381 31.470057,28.6898529 32.3274766,27.7530399 Z M30.8800157,28.9613272 C31.8485078,28.9895324 32.4063833,30.3383417 31.8449896,31.1371511 C30.5467981,31.2857316 30.5633836,29.7445231 30.8800157,28.9613272 Z M29.1918139,30.8953929 C30.3558137,30.5700266 30.8473473,32.544889 29.9155443,32.8294585 C29.1325082,32.7448431 28.8274357,31.3814276 29.1918139,30.8953929 Z M26.2963895,33.5552368 C27.2065811,33.6101361 27.5980991,34.1848155 27.5026069,35.2475442 C27.0698764,35.2168208 26.9934827,35.5431944 26.537633,35.4893024 C26.1425968,34.9035424 25.9234673,34.3147605 26.2963895,33.5552368 Z M25.8139026,36.939348 C24.9338664,36.7247876 24.5287784,37.3664542 24.1251982,36.939348 C24.2528562,35.9249709 23.7040273,35.5890277 23.6427112,34.7635242 C24.8298302,35.0249252 25.0670529,36.2377455 25.8139026,36.939348 Z M7.96188483,81.422354 C6.51794207,83.1338006 5.92388,86.9334337 3.13701518,86.4992763 C4.5990512,84.8069688 5.93594217,81.7497349 7.96188483,81.422354 Z M66.5840511,55.0707097 C63.5122174,57.6011122 61.5983525,63.7704794 57.1755553,60.3893902 C59.9548813,55.8418176 63.3539014,51.9142541 70.2022008,51.4443366 C70.3630298,53.3129261 68.2521493,53.6957099 66.5835485,55.0707097 L66.5840511,55.0707097 Z M104.218034,68.8509273 C101.096444,67.8068341 99.2062011,64.4448841 96.2569995,62.3234558 C94.5833728,61.1202051 92.6071866,60.7565605 90.7083994,59.6646192 C88.0738195,58.1490975 86.7017472,54.9614148 84.4360688,53.3789059 C82.4417894,51.9857743 78.9910024,51.4045472 76.71678,50.9613239 C74.4676871,50.5231371 71.1591333,49.8220383 68.2727555,50.2360492 C66.9851184,50.4203899 65.3984399,51.6019831 64.8953467,51.9283567 C63.6795801,52.7170928 61.5269846,53.3209847 60.0704771,54.5876969 C57.8409852,56.5257919 55.9542602,60.4463041 53.0744161,58.2135663 C53.3624005,57.1327057 54.8304676,57.2339419 54.7631205,55.7959843 C53.7463797,55.8327517 53.3448098,57.7481818 52.1094422,56.7630171 C52.3848618,55.1049588 54.21982,55.0102701 55.004364,53.8619187 C53.4468357,53.9127886 53.0437581,55.1205723 51.6269552,55.3124679 C52.2486598,53.4373308 54.3007371,52.9956184 55.7280944,51.927853 C53.6664678,51.4448403 53.2055922,53.6806 51.6269552,52.8948858 C51.8264837,49.7107288 56.1341876,50.6425052 56.9343118,48.0597217 C55.6064675,47.4528079 55.0063743,48.6631099 53.7981465,49.0267546 C49.4225929,50.3433295 44.7128165,49.507249 41.012242,50.4773038 C40.2337291,49.6457563 38.8139107,49.4568827 39.0822941,47.5762053 C37.2076312,47.8804177 38.5932735,49.9771665 38.8410506,50.9608202 C36.6663411,52.3272577 33.8216784,53.0223126 32.5687201,55.3124679 C32.6219947,56.0911308 32.1420207,56.3354073 32.3274766,57.2465335 C29.4511506,60.9172289 31.4509586,68.2535831 27.02012,70.0597184 C26.8919594,68.5613212 27.1352132,67.4356345 27.5026069,66.4333453 C26.4044465,66.1165413 26.6079957,65.4320634 26.055146,64.9827961 C25.9355295,65.5232264 24.709711,66.1915871 24.3664417,65.7080707 C24.9333638,63.6974483 26.4717936,62.6604063 27.2613634,60.8724029 C26.8120475,60.6412216 26.4552081,61.5966702 26.2963895,60.8724029 C26.7060008,58.3817898 29.4184823,58.1989601 29.6737983,55.5537224 C23.7382034,59.5830258 18.5826292,66.6675486 20.5065459,76.5866862 C20.9955666,79.1070155 22.9013901,81.5996433 24.1251982,83.8394324 C25.4495244,86.2625547 27.6006121,87.3716205 29.1913113,89.1581129 C32.3033522,92.6525262 34.9077767,98.1444668 35.9461288,102.213056 C36.2376314,103.335721 35.5792377,107.806736 35.5033465,108.755637 C35.4274553,109.704538 34.7459425,109.856141 34.7082482,108.679584 C34.6770876,107.698953 34.0398027,102.817451 33.8292173,101.220336 C33.8357509,100.536362 33.4211137,99.68769 33.2929531,99.3119575 C32.229974,96.2063719 29.2782595,93.3485884 27.744353,91.3339367 L27.0206226,91.3339367 C29.248104,94.3821047 31.8706217,98.1479924 32.7355801,101.893734 C32.7365853,101.916902 32.7355801,101.939567 32.7390983,101.963239 C32.8526837,102.722259 33.0421604,106.251425 33.0421604,106.251425 C33.0421604,106.251425 33.0421604,106.251425 32.7390983,106.213651 C32.4360362,106.175876 30.5427774,101.735583 30.5427774,101.735583 L30.5136271,101.742131 C28.7641093,98.5373239 27.2739282,95.0721229 24.3664417,93.0262441 C24.9635193,95.6316925 29.5255341,98.7403 28.4675809,102.213056 C28.4675809,102.213056 28.1951768,103.404722 28.0433944,103.366948 C27.891612,103.329173 27.2613634,101.971298 27.2613634,101.971298 C25.2555244,98.743322 24.3413121,94.4208868 21.4715199,92.0587077 C22.1052866,95.9449708 25.4349492,98.390758 25.3314156,102.212552 L25.0901721,102.455821 L24.573509,101.99497 C24.5855712,101.985904 24.5961256,101.980867 24.6081877,101.970794 C21.6790898,99.6720765 21.4378463,91.5046784 18.0946137,89.6411256 C18.9274063,92.3538541 21.0297427,95.0791742 20.9895355,97.8609046 C18.5710696,96.4964817 19.4174321,91.8612718 16.6471528,90.8499166 C17.0959662,92.9794035 18.4021991,94.2481304 18.5771007,96.6521135 C18.2167432,96.8928644 16.7401321,96.7029835 16.4059093,96.1685971 C16.3435881,95.1028464 16.0204223,94.2984967 16.1646658,93.0257405 C14.7282619,93.0368211 15.4811426,95.2418574 14.9584484,96.1685971 C14.1161066,96.3876905 13.0330239,96.3655293 12.1273556,96.5201539 C12.0745836,96.4874158 12.0378945,96.4667656 12.0378945,96.4667656 C12.0378945,96.4667656 8.86855826,97.1970768 8.39361015,98.8052726 C7.91866204,100.413468 7.91815945,100.412965 7.91815945,100.412965 C7.91815945,100.412965 7.44220616,102.605409 6.80843943,103.482286 C6.1746727,104.359164 6.1746727,105.820793 4.74832061,103.0441 C3.32247111,100.266902 3.14756958,98.5992744 3.14756958,96.9910787 C3.14756958,95.382883 4.10198911,92.0587077 4.10198911,92.0587077 C4.10198911,92.0587077 3.70443995,91.8542205 4.10198911,92.0587077 C4.41108232,91.2211162 4.45882843,90.178534 4.82571956,89.3998711 C6.63705604,85.550879 9.4485478,82.991264 12.545511,81.4213467 C13.0048788,78.4527574 13.5260652,75.2444245 13.027998,71.9927767 C13.205915,71.4457987 13.9477387,71.4634269 13.9929719,70.7839857 C13.4175057,70.474233 12.6857338,70.3211194 12.545511,69.5756983 C12.9661793,68.5865043 14.3337283,69.9635187 14.7167023,68.8504237 C14.2814589,68.319563 12.9742208,68.6625574 13.027998,67.6421363 C13.3496559,67.239206 14.1010289,67.2664038 14.4754589,66.9168617 C14.5312464,65.894426 13.0923296,66.3693801 13.5104849,64.9827961 C14.320661,64.9087576 15.6017644,65.305644 15.4404328,64.2575215 C14.84235,63.6173659 13.9396973,64.6846276 13.7517284,63.5327505 C13.6522155,62.4659924 13.8170652,61.664161 14.2342154,61.1151685 C15.4369147,61.9638405 16.484816,61.8767068 18.5765981,62.0822013 C17.5694065,60.8865055 14.2940237,60.7726777 15.1991893,58.4558282 C16.905987,58.5988685 16.9240802,60.4347198 19.059085,60.1481356 C17.7980852,58.9942439 16.2988575,58.0790883 15.9229198,56.0382462 C18.3670178,54.7055541 18.2066914,59.1594453 20.5065459,57.9723118 C19.6255046,56.8667717 17.438733,56.0750136 18.8178416,54.1041805 C18.4685411,53.4871934 17.4985413,53.4917264 17.8528676,52.1701149 C18.5167898,51.5007469 18.8605618,52.3871936 19.541572,52.4118731 C19.5018673,51.3028073 18.6610333,50.5231371 19.541572,49.7525328 C20.5010174,49.6779907 20.7533179,50.311095 21.7127633,50.2360492 C22.1399653,49.4604083 19.8129709,48.4817913 21.2302764,47.3349508 C22.0555301,47.5555552 22.7249808,47.932295 23.6427112,48.0602254 C23.6587941,49.8975878 24.6423639,50.765399 26.2963895,50.9613239 C25.011768,49.0902161 22.6088824,47.1032658 22.6777373,44.6756105 C23.7824314,44.7773505 24.2267215,45.5409034 25.3314156,45.6426434 C25.1142965,44.7108669 23.9663795,43.3237792 25.0901721,42.4997867 C25.9144207,42.7219021 26.1124414,43.5705741 27.2613634,43.4668195 C27.9629799,42.0908124 26.6004568,40.6337156 27.9850939,39.8404464 C28.6630886,40.1371039 29.3250004,41.7085322 30.3975287,40.8074793 C29.9291143,40.0973145 29.261674,38.5807855 30.1562852,37.9063808 C30.8453369,38.42465 31.3720519,39.1056022 32.8099635,38.8734136 C33.4542847,38.0393478 32.2098704,36.0110972 33.051207,35.0052824 C34.2081706,35.5381577 34.3152224,37.123185 36.1873723,36.939348 C36.5200873,35.3306486 34.4428804,34.0578924 35.9461288,32.8294585 C37.1885328,33.034953 36.8713981,34.8028099 38.5998071,34.5217659 C38.5681439,33.350246 37.1438022,32.0910887 38.3585637,31.1371511 C38.7762164,32.0885704 39.5316101,32.7010245 40.7709985,32.8294585 C41.6037911,31.7143488 39.855781,29.3833968 41.7359724,29.2030854 C41.9862625,30.3222245 42.6079671,31.0691566 43.9071638,31.1371511 C44.5962154,30.1917758 42.8095059,28.8656313 43.6659203,27.7525362 C44.4941896,28.2043219 45.3742257,29.6463088 46.3195986,29.2030854 C46.2547644,28.2622431 45.0309563,27.4538641 46.0783551,26.7855034 C47.2312979,27.0000638 46.8920493,28.7094958 48.2495464,28.719569 C49.2376395,28.2456222 47.6157797,26.0078478 49.2145204,25.8184706 C50.1096342,26.3724998 49.3894219,28.544798 51.1444682,28.2360526 C51.3721418,26.9577561 51.8877997,24.8670513 53.0744161,25.3349542 C52.6954628,26.7693862 53.8227735,28.050201 53.3156596,29.9283601 C55.5139908,29.885045 53.6508875,32.6007955 55.4868509,33.0712167 C55.3400945,31.8065191 54.7641257,30.9507958 55.2456074,29.6866019 C54.6148562,29.7545964 54.2082605,29.5984608 54.2806335,28.9613272 C55.3662292,27.7631131 54.0821102,25.584771 55.9693379,25.093196 C56.6478352,26.7421884 56.9448662,27.7203018 56.6930683,29.9283601 C56.8393222,30.3458966 57.8374671,29.9097245 57.8992857,30.4118765 C58.0490577,31.3094038 57.5072651,32.8999713 58.3817727,33.0712167 C59.5769331,32.2593121 58.3209593,30.9351822 59.1055032,29.2030854 C58.386296,29.1381129 57.6364309,29.8795048 57.4167988,28.9613272 C57.9183842,27.2272158 57.2976848,25.5067032 58.8642597,24.6096796 C59.3668503,24.9924634 58.9456794,26.3009797 59.3467466,26.7855034 C60.6806221,26.5064741 60.4755651,23.4089471 62.4829119,24.6096796 C60.7967205,26.2470877 59.8870315,29.1063822 62.000425,30.8953929 C67.0022065,32.1590832 70.4921955,34.2583502 74.30334,37.1811062 C77.7862928,39.851527 80.3751369,42.3280376 82.0231314,45.4008852 C78.6306449,43.4008397 76.5775624,40.0595398 73.0971226,38.148139 C74.9406248,41.5382942 79.0608625,42.6478636 80.5756705,46.367918 C76.7027074,45.7740994 71.0324804,42.2036329 66.5835485,44.1920941 C72.6116201,44.7818834 78.2330958,46.100473 83.2293488,48.7855 C83.2650328,48.071306 82.5277324,47.07909 83.4700897,46.8514344 C86.2966592,51.029822 88.7317106,56.8894365 93.8435595,57.9723118 C91.9075805,55.5209843 87.8230268,52.9457558 86.1242706,49.2690164 C85.4065713,47.7162236 84.0912917,44.1024421 85.4005402,43.2250613 C86.6705866,45.1717185 86.93897,47.7696119 88.295462,49.5107746 C89.618783,51.2086224 91.95985,51.8361864 93.1208342,53.8624223 C94.534119,56.3293633 95.7740099,57.7320646 99.3926622,57.4887954 C100.654165,61.3317435 105.629811,63.960864 104.217532,68.8615043 L104.218034,68.8509273 Z M103.25306,59.6641156 C101.9026,60.0181906 101.131123,58.8839417 101.8056,57.9718081 C103.021869,57.8055994 103.398812,58.4754711 103.25306,59.6641156 Z"/>
      </g>
    </g>
    <path fill="#FFFFFF" d="M173.101562 41.15625L173.324219 41.15625C173.589845 41.15625 173.835936 41.2773425 174.0625 41.5195312 174.289064 41.76172 174.402344 42.0390609 174.402344 42.3515625 174.402344 42.6640641 174.285157 42.9316395 174.050781 43.1542969 173.816405 43.3769542 173.523439 43.4882812 173.171875 43.4882812L172.984375 43.4882812C172.710936 43.4882812 172.466798 43.373048 172.251953 43.1425781 172.037108 42.9121082 171.929688 42.6406266 171.929688 42.328125 171.929688 42.0156234 172.041015 41.7421887 172.263672 41.5078125 172.486329 41.2734363 172.765623 41.15625 173.101562 41.15625zM173.535156 45.3164062L170.628906 56.4726562C170.535156 56.8242205 170.296877 57 169.914062 57L169.210938 57C168.765623 57 168.589843 56.8164081 168.683594 56.4492188L171.613281 45.2929688C171.691407 44.9726546 171.914061 44.8125 172.28125 44.8125L173.078125 44.8125C173.289064 44.8125 173.429687 44.8476559 173.5 44.9179688 173.570313 44.9882816 173.582031 45.1210928 173.535156 45.3164062zM185.866629 41.2851562L180.874441 41.2851562 179.175222 48.0234375 183.534597 48.0234375C183.683036 48.0234375 183.784597 48.0800776 183.839285 48.1933594 183.893973 48.3066412 183.905691 48.433593 183.874441 48.5742188L183.710379 49.171875C183.632253 49.5078142 183.390068 49.6757812 182.983816 49.6757812L178.741629 49.6757812 177.007254 56.4726562C176.913503 56.8242205 176.675224 57 176.29241 57L175.601004 57C175.40569 57 175.263114 56.9277351 175.173269 56.7832031 175.083425 56.6386712 175.065847 56.4648448 175.120535 56.2617188L178.929129 41.2851562 177.991629 41.2851562C177.757253 41.2851562 177.61077 41.2480472 177.552176 41.1738281 177.493582 41.099609 177.499441 40.9257826 177.569754 40.6523438L177.710379 40.1015625C177.772879 39.8984365 177.839285 39.7675784 177.909597 39.7089844 177.97991 39.6503903 178.128346 39.6210938 178.35491 39.6210938L186.183035 39.6210938C186.401786 39.6210938 186.548269 39.662109 186.622488 39.7441406 186.696707 39.8261723 186.702567 39.9843738 186.640066 40.21875L186.464285 40.828125C186.38616 41.132814 186.186943 41.2851562 185.866629 41.2851562zM191.612164 48.84375L195.983258 48.84375C196.233259 48.84375 196.303571 49.0195295 196.194195 49.3710938 195.280128 52.2773583 194.37584 54.2753852 193.481304 55.3652344 192.586769 56.4550836 191.594591 57.0449214 190.504742 57.1347656 189.414893 57.2246098 188.530136 56.9375033 187.850445 56.2734375 187.170754 55.6093717 186.799664 54.3769621 186.737164 52.5761719 186.674663 50.7753816 186.926614 48.8418072 187.493023 46.7753906 188.059432 44.708974 188.887549 43.0332096 189.977398 41.7480469 191.067247 40.4628842 192.112159 39.7285165 193.112164 39.5449219 194.112169 39.3613272 194.887552 39.4609356 195.438336 39.84375 195.98912 40.2265644 196.412944 40.8613237 196.70982 41.7480469 197.006696 42.6347701 197.155133 43.3027321 197.155133 43.7519531 197.155133 44.2011741 196.994978 44.4882806 196.674664 44.6132812L195.830914 44.859375C195.674663 44.8906252 195.543805 44.8613286 195.438336 44.7714844 195.332866 44.6816402 195.268414 44.3886744 195.244976 43.8925781 195.221539 43.3964819 195.098493 42.8886745 194.875836 42.3691406 194.653178 41.8496068 194.358259 41.5429692 193.99107 41.4492188 193.233254 41.2539053 192.410996 41.7363223 191.524273 42.8964844 190.63755 44.0566464 189.953963 45.5136631 189.473492 47.2675781 188.993021 49.0214931 188.733258 50.4980409 188.694195 51.6972656 188.655132 52.8964904 188.758647 53.8242155 189.004742 54.4804688 189.250837 55.136722 189.65513 55.4453127 190.217633 55.40625 190.780135 55.3671873 191.352395 54.9941442 191.934429 54.2871094 192.516464 53.5800746 193.088723 52.3086029 193.651226 50.4726562L191.342633 50.4726562C191.037943 50.4726562 190.944194 50.2500022 191.061383 49.8046875L191.248883 49.125C191.311383 48.9374991 191.432475 48.84375 191.612164 48.84375zM146.988281 209.621094L150.761719 209.621094C152.050788 209.621094 153.023434 209.894529 153.679688 210.441406 154.335941 210.988284 154.671875 211.792963 154.6875 212.855469 154.703125 213.917974 154.507815 215.00976 154.101562 216.130859 153.69531 217.251959 153.125004 218.076169 152.390625 218.603516 151.656246 219.130862 150.847661 219.46289 149.964844 219.599609 149.082027 219.736329 148.226567 219.8125 147.398438 219.828125L145.6875 226.472656C145.59375 226.824221 145.355471 227 144.972656 227L144.28125 227C144.085937 227 143.94336 226.927735 143.853516 226.783203 143.763671 226.638671 143.746093 226.464845 143.800781 226.261719L147.609375 211.261719 146.759766 211.261719C146.591796 211.261719 146.458985 211.19336 146.361328 211.056641 146.263671 210.919921 146.242187 210.76172 146.296875 210.582031L146.4375 210.101562C146.46875 209.976562 146.541015 209.865235 146.654297 209.767578 146.767579 209.669921 146.878906 209.621094 146.988281 209.621094zM149.554688 211.285156L147.808594 218.164062 149.144531 218.09375C150.425788 218 151.267576 217.593754 151.669922 216.875 152.072268 216.156246 152.351562 215.419926 152.507812 214.666016 152.664063 213.912106 152.742188 213.289065 152.742188 212.796875 152.742188 211.851558 152.199224 211.355469 151.113281 211.308594 150.92578 211.292969 150.406254 211.285156 149.554688 211.285156zM160.503347 218.023438C161.011163 217.195308 161.481861 216.507815 161.915457 215.960938 162.349053 215.41406 162.665456 215.072266 162.864676 214.935547 163.063895 214.798827 163.413501 214.730469 163.913504 214.730469L164.147879 214.730469C164.616631 214.730469 164.776786 214.910154 164.628347 215.269531 164.550222 215.457032 164.354912 215.691405 164.04241 215.972656 163.729908 216.253908 163.306085 216.734372 162.770926 217.414062 162.235767 218.093753 161.968191 218.535155 161.968191 218.738281 161.968191 219.160158 162.167408 219.554686 162.565847 219.921875 162.659598 220 162.686941 220.083984 162.647879 220.173828 162.608816 220.263672 162.526786 220.324219 162.401785 220.355469L161.487722 220.519531C161.229909 220.566406 161.032645 220.539063 160.895926 220.4375 160.759206 220.335937 160.52288 219.972659 160.186941 219.347656L158.347097 226.472656C158.245534 226.824221 158.003349 227 157.620535 227L156.929129 227C156.476001 227 156.300222 226.816408 156.401785 226.449219L159.331472 215.292969C159.409598 214.972655 159.632252 214.8125 159.999441 214.8125L160.737722 214.8125C160.948661 214.8125 161.089285 214.847656 161.159597 214.917969 161.22991 214.988282 161.241629 215.121093 161.194754 215.316406L160.503347 218.023438zM164.912945 223.519531C164.983258 221.378896 165.518409 219.351572 166.518414 217.4375 167.518419 215.523428 168.791844 214.582031 170.338726 214.613281 171.143418 214.660156 171.768412 215.062496 172.213726 215.820312 172.549665 216.343753 172.686383 217.230462 172.623883 218.480469 172.561382 220.847668 171.912951 223.039052 170.67857 225.054688 169.827003 226.531257 168.682483 227.242188 167.244976 227.1875 166.737161 227.171875 166.26451 226.949221 165.827008 226.519531 165.170754 225.894528 164.86607 224.894538 164.912945 223.519531zM169.002789 224.480469C170.088732 222.769523 170.662945 220.855479 170.725445 218.738281 170.74107 217.800777 170.692242 217.171877 170.578961 216.851562 170.465679 216.531248 170.229353 216.367188 169.869976 216.359375 169.510599 216.351562 169.182478 216.51953 168.885601 216.863281 168.588725 217.207033 168.299665 217.683591 168.018414 218.292969 167.307473 219.714851 166.920758 221.378897 166.858258 223.285156 166.827007 224.722663 167.077005 225.464844 167.608258 225.511719 168.069197 225.527344 168.534036 225.183597 169.002789 224.480469zM191.321984 214.308594C191.321984 214.707033 191.185266 214.945312 190.911828 215.023438L190.068078 215.292969C189.943077 215.339844 189.816125 215.31836 189.687218 215.228516 189.558311 215.138671 189.493859 214.992189 189.493859 214.789062 189.493859 212.671864 189.150112 211.453127 188.462609 211.132812 188.142295 210.976562 187.790736 210.984374 187.407921 211.15625 186.907919 211.414064 186.427455 211.951168 185.966515 212.767578 185.505575 213.583988 185.259484 214.511714 185.228234 215.550781 185.212609 215.964846 185.28292 216.289061 185.439171 216.523438 185.595422 216.757814 185.900106 216.945312 186.353234 217.085938L187.337609 217.425781C188.267301 217.746095 188.878623 218.117185 189.171593 218.539062 189.464563 218.96094 189.603234 219.582027 189.587609 220.402344 189.571984 222.128915 189.009489 223.720696 187.900109 225.177734 186.790728 226.634773 185.52121 227.371094 184.091515 227.386719 182.208693 227.386719 181.267296 225.851578 181.267296 222.78125 181.236046 222.140622 181.353232 221.777344 181.618859 221.691406L182.509484 221.410156C182.673547 221.347656 182.806358 221.359375 182.907921 221.445312 183.009484 221.53125 183.060265 221.671874 183.060265 221.867188 183.04464 224.265637 183.364949 225.617186 184.021203 225.921875 184.263391 225.96875 184.575888 225.914063 184.958703 225.757812 185.614956 225.468749 186.195028 224.875004 186.698937 223.976562 187.202846 223.078121 187.499718 222.201176 187.589562 221.345703 187.679406 220.49023 187.626672 219.925783 187.431359 219.652344 187.236045 219.378905 186.732144 219.117189 185.91964 218.867188L184.911828 218.550781C184.466513 218.410156 184.079798 218.154299 183.751671 217.783203 183.423545 217.412108 183.259484 216.949222 183.259484 216.394531 183.259484 215.402339 183.470419 214.373052 183.892296 213.306641 184.314173 212.240229 184.94112 211.31641 185.773156 210.535156 186.605191 209.753902 187.521197 209.363281 188.521203 209.363281 189.521208 209.363281 190.237997 209.787105 190.671593 210.634766 191.105189 211.482426 191.321984 212.707023 191.321984 214.308594zM193.739394 227L193.071425 227C192.962049 227 192.878066 226.935548 192.819472 226.806641 192.760878 226.677734 192.758925 226.535157 192.813613 226.378906L197.219863 209.316406C197.321426 208.964842 197.563611 208.789062 197.946425 208.789062L198.497206 208.789062C198.942521 208.789062 199.1183 208.972654 199.02455 209.339844L196.645644 218.667969 195.755019 221.550781 198.227675 217.425781C198.758928 216.558589 199.303844 215.906252 199.862441 215.46875 200.421037 215.031248 200.903454 214.8125 201.309706 214.8125L201.813613 214.8125C202.063614 214.8125 202.260877 214.855468 202.405409 214.941406 202.549941 215.027344 202.667128 215.222655 202.756972 215.527344 202.846816 215.832033 202.801895 216.281247 202.622206 216.875L199.938613 226.660156C199.891737 226.88672 199.762832 227 199.551894 227L198.309706 227C198.067518 227 198.001112 226.808596 198.110488 226.425781L200.630019 218.1875C200.747207 217.75781 200.8058 217.47461 200.8058 217.337891 200.8058 217.201171 200.753066 217.132812 200.647597 217.132812 200.542128 217.132812 200.413223 217.205077 200.260878 217.349609 200.108534 217.494141 199.903458 217.757811 199.645644 218.140625 199.340955 218.578127 198.977677 219.144528 198.5558 219.839844 198.133923 220.53516 197.758927 221.138669 197.4308 221.650391 197.102673 222.162112 196.630022 222.888667 196.012831 223.830078 195.395641 224.771489 194.833146 225.714839 194.325331 226.660156 194.192518 226.88672 193.997208 227 193.739394 227zM204.781804 223.519531C204.852117 221.378896 205.387268 219.351572 206.387272 217.4375 207.387278 215.523428 208.660702 214.582031 210.207585 214.613281 211.012277 214.660156 211.63727 215.062496 212.082585 215.820312 212.418524 216.343753 212.555242 217.230462 212.492741 218.480469 212.430241 220.847668 211.78181 223.039052 210.547429 225.054688 209.695862 226.531257 208.551342 227.242188 207.113835 227.1875 206.60602 227.171875 206.133368 226.949221 205.695866 226.519531 205.039613 225.894528 204.734929 224.894538 204.781804 223.519531zM208.871647 224.480469C209.95759 222.769523 210.531803 220.855479 210.594304 218.738281 210.609929 217.800777 210.561101 217.171877 210.447819 216.851562 210.334538 216.531248 210.098212 216.367188 209.738835 216.359375 209.379458 216.351562 209.051336 216.51953 208.75446 216.863281 208.457584 217.207033 208.168524 217.683591 207.887272 218.292969 207.176331 219.714851 206.789617 221.378897 206.727116 223.285156 206.695866 224.722663 206.945864 225.464844 207.477116 225.511719 207.938056 225.527344 208.402895 225.183597 208.871647 224.480469zM216.398433 225.324219C217.179686 225.769533 217.845695 225.804689 218.396479 225.429688 218.947263 225.054686 219.48632 224.138679 220.013667 222.681641 220.541013 221.224602 220.880854 220.087895 221.033198 219.271484 221.185543 218.455074 221.249995 217.902345 221.226558 217.613281 221.20312 217.324217 221.060543 217.109376 220.798823 216.96875 220.537103 216.828124 220.097654 217.113278 219.480464 217.824219 218.863273 218.53516 218.337888 219.449213 217.904292 220.566406 217.470696 221.683599 216.992185 223.195303 216.468745 225.101562L216.398433 225.324219zM218.941401 215.339844L218.39062 217.472656 218.718745 216.921875C219.054684 216.359372 219.439446 215.878908 219.873042 215.480469 220.306638 215.082029 220.66015 214.882812 220.933589 214.882812L220.980464 214.882812C221.105464 214.882812 221.304681 214.974608 221.57812 215.158203 221.851559 215.341798 222.111322 215.589842 222.357417 215.902344 222.603512 216.214845 222.779291 216.535155 222.884761 216.863281 222.99023 217.191408 222.982417 217.855464 222.861323 218.855469 222.740229 219.855474 222.359373 221.19921 221.718745 222.886719 221.078117 224.574227 220.455076 225.697263 219.849604 226.255859 219.244133 226.814456 218.476562 227.09375 217.54687 227.09375 217.015617 227.09375 216.511716 226.94922 216.035151 226.660156L214.863276 231.277344C214.761713 231.628908 214.519528 231.804688 214.136714 231.804688L213.70312 231.804688C213.445306 231.804688 213.265621 231.732423 213.164058 231.587891 213.062494 231.443359 213.035151 231.257814 213.082026 231.03125L217.113276 215.316406C217.207027 214.980467 217.421868 214.8125 217.757808 214.8125L218.460933 214.8125C218.874997 214.8125 219.035152 214.988279 218.941401 215.339844z"/>
  </g>
</svg>
